<?xml version="1.0" encoding="UTF-8"?>
<!DOCTYPE svg PUBLIC "-//W3C//DTD SVG 1.1//EN" "http://www.w3.org/Graphics/SVG/1.1/DTD/svg11.dtd">
<!-- Creator: CorelDRAW (Versión de evaluación) -->
<svg xmlns="http://www.w3.org/2000/svg" xml:space="preserve" width="124.743mm" height="40.6307mm" version="1.1" style="shape-rendering:geometricPrecision; text-rendering:geometricPrecision; image-rendering:optimizeQuality; fill-rule:evenodd; clip-rule:evenodd"
viewBox="0 0 11801.79 3844.01"
 xmlns:xlink="http://www.w3.org/1999/xlink"
 xmlns:xodm="http://www.corel.com/coreldraw/odm/2003">
 <defs>
  <style type="text/css">
   <![CDATA[
    .fil0 {fill:#4D4D4D;fill-rule:nonzero}
    .fil2 {fill:#666666;fill-rule:nonzero}
    .fil1 {fill:red;fill-rule:nonzero}
   ]]>
  </style>
 </defs>
 <g id="Capa_x0020_1">
  <metadata id="CorelCorpID_0Corel-Layer"/>
  <g id="_2125616466256">
   <path class="fil0" d="M1500.2 1600.02l-319.14 1409.11 -272.88 0 -189.78 -541.53c-51.4,-147.88 -82.62,-265.13 -93.03,-351.74 -0.5,21.13 -1.21,37.31 -2.19,49.29 -3.16,38.73 -11.93,89.78 -25.98,153.16l-156.92 690.82 -298.65 0 319.15 -1409.11 330.52 0 108.01 326.05c74.8,225.7 121.89,392.6 141.04,499.99 0.43,-27.82 1.23,-48.95 2.32,-62.33 3.25,-39.79 17.46,-116.2 42.9,-228.86l121.51 -534.85 293.12 0zm470.53 1445.02c-144.72,0 -265.98,-54.57 -363.48,-163.73 -97.51,-108.79 -138.12,-265.13 -121.49,-468.99 19.24,-235.91 95.07,-436.25 227.48,-601.03 132.71,-164.79 294.89,-247.17 486.82,-247.17 153.92,0 275.23,57.75 364.56,172.88 89.33,115.13 126.39,266.19 111.18,452.45 -19.4,238.02 -94.46,440.13 -225.44,606.32 -130.68,166.19 -290.46,249.28 -479.64,249.28zm29.16 -327.46c62.55,0 112.59,-30.98 150.43,-92.59 37.53,-61.62 70.66,-152.11 99.1,-271.47 28.72,-119.02 44.8,-199.64 48.25,-241.9 5.88,-72.18 -4.04,-127.11 -29.55,-164.08 -25.78,-37.32 -62.27,-55.98 -109.49,-55.98 -90.45,0 -160.2,73.24 -208.96,220.06 -48.47,146.83 -77.46,276.75 -86.68,389.78 -11.75,144 33.87,216.18 136.9,216.18zm1399.64 -796.43l-246.96 1087.98 -355.97 0 246.96 -1087.98 -263.07 0 73.89 -323.24 888.87 0 -73.28 323.24 -270.43 0zm812.96 -321.13l-319.45 1409.11 -348.62 0 319.14 -1409.11 348.93 0zm706.77 864.06l325.34 48.58c-50.88,153.87 -126.79,280.28 -228.02,378.51 -100.92,98.24 -222.38,147.53 -364.34,147.53 -153.92,0 -271.38,-59.86 -352.03,-179.92 -80.97,-120.08 -113.76,-274.29 -98.42,-462.31 17.72,-217.24 89.53,-409.84 215.08,-577.08 125.56,-167.26 286.3,-251.05 482.24,-251.05 142.57,0 253.78,50 333.89,150.35 80.12,100.34 114.4,232.73 102.8,397.52l-348.22 28.87c5.85,-86.61 -0.56,-151.05 -18.85,-193.66 -18.6,-42.59 -53.96,-64.08 -106.38,-64.08 -90.46,0 -158.4,77.47 -204.13,232.04 -45.41,154.57 -71.87,276.04 -79.11,364.77 -11.78,144.36 30.78,216.54 127.98,216.54 48.14,0 88.29,-18.66 121.04,-55.63 32.45,-36.97 62.81,-97.18 91.11,-180.98zm1018.84 -864.06l-319.45 1409.11 -348.62 0 319.14 -1409.11 348.93 0zm573.22 1121.79l-332.36 0 -135.66 287.32 -303.85 0 682.48 -1409.11 386.63 0 73.33 1409.11 -361.8 0 -8.76 -287.32zm-1.67 -291.54l-13.62 -408.08 -193.34 408.08 206.97 0zm1683.44 -501.74l-322.08 91.89c-5.47,-41.9 -25.47,-75 -59.39,-98.94 -33.89,-24.3 -72.47,-36.26 -115.39,-36.26 -80.95,0 -123.95,30.98 -128.97,92.6 -1.64,20.07 2.78,37.32 12.98,51.41 10.17,14.44 40.59,32.39 91.27,53.86l188.21 79.58c49.22,20.42 93.94,51.05 134.21,91.18 40.26,40.14 68.25,84.15 83.39,131.7 15.4,47.88 20.75,98.93 16.32,153.15 -11.6,142.25 -69.61,259.5 -174.38,352.45 -104.75,92.6 -238.23,139.08 -400.13,139.08 -138.89,0 -257.06,-32.39 -354.8,-97.18 -98.04,-64.79 -161.71,-163.72 -191.67,-296.47l359.71 -79.58c22.2,100 93.54,149.99 213.43,149.99 49.98,0 87.32,-10.57 111.39,-31.33 24.12,-21.13 37.08,-44.71 39.28,-71.83 1.38,-16.91 -1.67,-32.04 -9.2,-45.07 -7.82,-13.03 -16.24,-22.54 -25.57,-28.52 -9.36,-5.64 -54.29,-26.06 -134.57,-60.57 -108.43,-46.47 -184.18,-83.79 -226.98,-111.62 -42.5,-27.81 -76.81,-69.36 -102.36,-124.63 -25.56,-54.94 -35.31,-119.72 -29.25,-194.01 10.52,-128.87 60.47,-237.68 149.92,-326.75 89.43,-89.08 219.1,-133.8 388.35,-133.8 129.07,0 237.22,31.34 324.08,94.02 87.21,62.32 141.24,147.88 162.2,255.62z"/>
   <path class="fil1" d="M771.61 0l322.75 0 -248.21 1192.89 473.26 0 -57.29 275.37 -796.01 0 305.51 -1468.26zm1110.89 0l324.93 0 113.79 1468.26 -330.07 0 -9.98 -303.27 -413.04 0 -135.43 303.27 -296.65 0 746.46 -1468.26zm89.77 913.11l-22.93 -599.19 -267.49 599.19 290.42 0zm1101.51 -913.11l461.53 0c89.58,0 157.4,4.04 203.37,12.49 46.04,8.08 89.48,30.47 130.82,66.45 41.28,36.35 69.14,85.91 83.61,148.7 14.47,62.79 13.82,132.92 -2.45,211.13 -38.19,183.57 -134.11,312.8 -287.3,387.34l136.61 642.16 -351.73 0 -75.2 -580.84 -161.18 0 -120.85 580.84 -322.75 0 305.51 -1468.26zm273.31 237.55l-85.72 411.94 142.08 0c125.93,0 203.75,-70.49 233.17,-211.84 10.08,-48.48 9.22,-88.49 -3.01,-119.7 -12.23,-31.21 -29.46,-52.5 -51.76,-63.52 -22.69,-11 -57.81,-16.89 -105.9,-16.89l-128.87 0zm840.87 -237.55l892.93 0 -52.4 251.87 -570.2 0 -70.91 340.72 443.16 0 -52.63 252.96 -443.16 0 -74.94 360.19 570.19 0 -54.62 262.51 -892.93 0 305.51 -1468.26zm964.38 0l347.33 0c150.54,0 268.97,20.2 354.93,60.58 85.88,40.76 145.62,115.3 179.49,224.35 34.22,109.05 31.76,256.64 -6.81,442.05 -27.5,132.18 -69.14,249.3 -124.88,351.37 -55.75,102.07 -117.73,182.85 -185.75,241.58 -68.02,58.75 -139.37,98.04 -214.04,118.23 -74.33,20.19 -164.15,30.1 -269.51,30.1l-386.26 0 305.51 -1468.26zm270.33 251.87l-200.55 963.8 54.69 0c74.54,0 135.6,-14.68 182.32,-43.32 46.71,-28.65 89.78,-78.58 129.21,-149.8 39.13,-71.6 72.63,-174.41 100.75,-309.52 25.9,-124.47 32.7,-220.66 19.59,-288.21 -12.84,-67.2 -37.07,-113.09 -72.48,-136.96 -35.35,-24.23 -88.34,-35.99 -158.84,-35.99l-54.69 0z"/>
   <path class="fil1" d="M8292.09 3043.2c-47.92,0 -85.15,-16.52 -111.73,-49.21 -26.85,-33.04 -36.26,-73.44 -28.84,-121.59 7.65,-49.57 30.18,-89.97 67.64,-121.61 37.78,-31.63 80.94,-47.45 129.8,-47.45 49.78,0 87.69,16.18 114.39,48.15 26.44,31.64 35.86,72.04 28.32,120.91 -7.7,49.9 -30.03,91.01 -66.92,123 -37.2,31.98 -81.29,47.8 -132.66,47.8zm639.22 -1246.93c-48.87,0 -86.45,-16.17 -112.42,-48.86 -26.26,-32.68 -35.8,-72.39 -28.47,-119.84 7.54,-48.85 29.33,-88.56 65.43,-119.49 35.77,-30.93 78.26,-46.39 127.12,-46.39 49.8,0 87.51,15.46 113.74,46.39 25.91,30.93 35.45,70.64 27.9,119.49 -7.6,49.21 -29.56,89.97 -65.13,121.6 -35.84,31.28 -78.37,47.1 -128.17,47.1zm-45.44 1221.27l-289.72 0 162.79 -1054.34 289.73 0 -162.8 1054.34zm1071.84 0l-289.08 0 90.46 -585.85c25.24,-163.43 -14.17,-244.96 -118.16,-244.96 -50.11,0 -94.76,21.44 -133.7,64.66 -39.24,43.23 -64.05,98.4 -74.31,164.83l-92.85 601.32 -289.72 0 162.79 -1054.34 289.73 0 -25.78 166.94 3.76 0c89.08,-128.63 199.49,-192.59 331.67,-192.59 207.97,0 289.59,144.8 244.88,434.39l-99.69 645.6zm965.24 -1311.6c-34.73,-16.52 -69.44,-24.95 -103.58,-24.95 -93.03,0 -148.12,56.58 -165.64,170.1l-17.31 112.11 214.53 0 -37.06 240.04 -214.53 0 -125.73 814.3 -289.1 0 125.73 -814.3 -157.86 0 37.07 -240.04 157.85 0 20.2 -130.74c18.56,-120.19 68.24,-216.83 149.42,-290.3 80.87,-73.44 181.47,-110.35 301.43,-110.35 58.56,0 106.65,7.03 143.69,20.74l-39.12 253.39zm268.7 1337.25c-156.6,0 -272.09,-49.21 -346.47,-147.61 -74.39,-98.4 -98.51,-232.31 -72.46,-401 26.92,-174.32 94.38,-311.03 202.59,-409.44 108.22,-98.4 241.73,-147.61 399.9,-147.61 155.96,0 270.84,49.21 344.29,147.61 73.44,98.4 97.78,228.79 72.76,390.81 -27.02,175.02 -94.14,313.49 -201.27,415.06 -107.13,101.57 -240.24,152.18 -399.35,152.18zm139.77 -856.47c-68.59,0 -125.91,26.36 -171.94,79.07 -46.1,53.08 -76.77,127.93 -91.69,224.57 -31.26,202.43 26.09,303.65 171.73,303.65 138.75,0 224.35,-104.02 256.41,-311.73 30.45,-197.16 -24.5,-295.57 -164.51,-295.57z"/>
   <path class="fil2" d="M387.68 3832.78l-387.68 0 135.1 -646.29 372.76 0 -24.77 118.46 -227.07 0 -30.07 143.84 211.37 0 -24.66 118 -211.38 0 -30.91 147.84 242 0 -24.69 118.15zm201.15 0l-142.3 0 142.82 -683.21 142.31 0 -142.83 683.21zm527.53 -534.59c-24,0 -42.21,-7.08 -54.46,-21.38 -12.38,-14.31 -16.44,-31.69 -12.1,-52.46 4.47,-21.39 15.79,-38.77 34,-52.31 18.06,-13.54 39.17,-20.31 63.16,-20.31 24.47,0 42.75,6.77 55.14,20.31 12.25,13.54 16.31,30.92 11.84,52.31 -4.51,21.53 -15.93,39.38 -33.9,53.23 -18.09,13.69 -39.23,20.62 -63.69,20.62zm-41.46 534.59l-142.3 0 96.47 -461.53 142.31 0 -96.48 461.53zm534.85 0l-142 0 53.61 -256.46c14.96,-71.53 -3.12,-107.23 -54.19,-107.23 -24.63,0 -46.89,9.39 -66.69,28.32 -19.95,18.92 -33.01,43.07 -39.08,72.14l-55.02 263.23 -142.31 0 96.48 -461.53 142.3 0 -15.27 73.09 1.84 0c45.77,-56.31 101.01,-84.32 165.93,-84.32 102.15,0 139.97,63.39 113.47,190.14l-59.07 282.61zm361.95 -5.38c-23.39,11.07 -56.24,16.61 -98.54,16.61 -100.3,0 -139.7,-52.16 -117.93,-156.3l44.19 -211.37 -74.77 0 21.96 -105.08 74.77 0 20.81 -99.53 150.47 -40.62 -29.3 140.14 103.69 0 -21.96 105.08 -103.69 0 -39.02 186.61c-10.03,47.99 4.03,72 42.18,72 15.08,0 31.51,-4.3 49.2,-13.07l-22.06 105.54zm499.15 -184.76l-301.05 0c-9.23,66.92 26.06,100.46 105.6,100.46 50.77,0 97.89,-12 141.36,-36l-21.49 102.76c-47.37,22.76 -105.13,34.15 -173.44,34.15 -74.46,0 -128,-20.62 -160.58,-62 -32.45,-41.23 -41,-98.92 -25.56,-172.76 16.02,-76.61 50.87,-137.38 104.84,-182.15 53.83,-44.77 113.1,-67.08 178.02,-67.08 67.23,0 115.2,20.01 143.63,59.85 28.41,40 35.51,94.31 21.2,162.76l-12.55 60zm-113.69 -87.54c13.79,-65.99 -6.05,-99.07 -59.59,-99.07 -22.76,0 -44.58,9.39 -65.15,28.31 -20.73,18.92 -35.68,42.62 -45.25,70.77l169.99 0zm498.58 -55.38c-15.28,-9.38 -34.31,-13.99 -57.08,-13.99 -30.93,0 -57.45,11.38 -79.73,33.99 -22.13,22.77 -37.34,53.54 -45.51,92.61l-46.08 220.46 -142.3 0 96.47 -461.53 142.3 0 -17.91 85.7 1.85 0c35.7,-62.61 82.69,-93.84 141.31,-93.84 15.07,0 26.38,1.84 34.1,5.38l-27.43 131.22zm153.13 -201.53c-24,0 -42.21,-7.08 -54.46,-21.38 -12.38,-14.31 -16.44,-31.69 -12.1,-52.46 4.47,-21.39 15.79,-38.77 34,-52.31 18.06,-13.54 39.17,-20.31 63.16,-20.31 24.47,0 42.75,6.77 55.15,20.31 12.24,13.54 16.3,30.92 11.84,52.31 -4.51,21.53 -15.93,39.38 -33.9,53.23 -18.09,13.69 -39.23,20.62 -63.69,20.62zm-41.46 534.59l-142.3 0 96.47 -461.53 142.31 0 -96.48 461.53zm306.65 11.23c-76.92,0 -132.87,-21.54 -167.87,-64.62 -34.99,-43.08 -44.74,-101.69 -29.3,-175.53 15.96,-76.31 51.24,-136.15 105.93,-179.23 54.69,-43.08 121.04,-64.62 198.73,-64.62 76.61,0 132.25,21.54 166.79,64.62 34.53,43.08 44.45,100.15 29.62,171.07 -16.02,76.61 -51.15,137.22 -105.37,181.69 -54.22,44.46 -120.39,66.61 -198.54,66.61zm82.06 -374.91c-33.69,0 -62.24,11.54 -85.69,34.62 -23.47,23.24 -39.72,56 -48.55,98.3 -18.52,88.62 8.06,132.92 79.59,132.92 68.15,0 111.82,-45.54 130.83,-136.45 18.04,-86.3 -7.42,-129.39 -76.19,-129.39zm604.6 30.62c-15.28,-9.38 -34.31,-13.99 -57.08,-13.99 -30.93,0 -57.45,11.38 -79.73,33.99 -22.13,22.77 -37.34,53.54 -45.51,92.61l-46.08 220.46 -142.31 0 96.48 -461.53 142.3 0 -17.91 85.7 1.85 0c35.7,-62.61 82.69,-93.84 141.3,-93.84 15.08,0 26.38,1.84 34.11,5.38l-27.43 131.22zm500.48 327.69c-23.39,11.07 -56.24,16.61 -98.54,16.61 -100.31,0 -139.71,-52.16 -117.94,-156.3l44.19 -211.37 -74.77 0 21.96 -105.08 74.78 0 20.8 -99.53 150.48 -40.62 -29.3 140.14 103.69 0 -21.96 105.08 -103.69 0 -39.02 186.61c-10.04,47.99 4.02,72 42.18,72 15.07,0 31.51,-4.3 49.2,-13.07l-22.06 105.54zm432.33 5.38l-134.76 0 13.86 -66.3 -1.84 0c-41.73,51.68 -92.98,77.53 -153.76,77.53 -44.76,0 -77.34,-12.62 -97.73,-37.99 -20.39,-25.39 -26.05,-59.39 -17.2,-101.69 18.71,-89.54 82.59,-141.22 191.48,-155.06l128.86 -16.62c10.55,-50.45 -11.56,-75.69 -66.32,-75.69 -54.92,0 -110.64,16.3 -167.02,49.07l22.41 -107.23c22,-10.3 50.94,-19.22 87.04,-27.08 35.94,-7.84 68.13,-11.69 96.44,-11.69 131.53,0 183.64,65.7 156.2,196.92l-57.65 275.84zm-94.65 -187.53l6.5 -31.08 -86.08 10.78c-47.57,6 -75.02,26.92 -82.51,62.76 -3.38,16.15 -0.64,29.54 8.43,39.84 9.23,10.31 23.38,15.54 42.6,15.54 26.77,0 50.4,-9.23 71.17,-27.69 20.62,-18.46 33.98,-41.85 39.89,-70.15zm909.32 187.53l-141.99 0 55.02 -263.23c14.01,-67.07 -3.62,-100.46 -52.85,-100.46 -23.38,0 -44.55,10 -63.54,30.15 -18.98,20.16 -31.6,45.23 -37.87,75.23l-53.99 258.3 -142.3 0 55.6 -265.99c13.6,-65.07 -3.88,-97.69 -52.19,-97.69 -24.31,0 -45.85,9.54 -64.33,28.77 -18.63,19.23 -31.49,45.38 -38.39,78.46l-53.61 256.46 -142.3 0 96.47 -461.53 142.31 0 -15.09 72.16 1.85 0c19.92,-24.61 44.74,-44.77 74.58,-60.15 29.85,-15.53 60.54,-23.24 92.07,-23.24 65.23,0 103.86,28.62 115.86,86 47.24,-57.38 104.75,-86 173.06,-86 100.3,0 137.53,61.85 111.65,185.69l-60.02 287.07zm237.3 -53.69l-1.84 0 -11.22 53.69 -142.31 0 142.83 -683.21 142.3 0 -60.85 291.06 1.84 0c46.46,-53.69 102.08,-80.62 167,-80.62 59.39,0 100.96,20.47 124.58,61.24 23.6,40.91 28.08,96.76 13.25,167.67 -16.08,76.93 -47.75,138.61 -95.02,185.22 -47.45,46.62 -102.44,69.85 -165.21,69.85 -56.77,0 -95.18,-21.54 -115.35,-64.92zm36.68 -194.61l-9.88 47.23c-6.23,29.85 -2.91,54.46 10.23,74 13,19.53 32.97,29.22 59.74,29.22 32.3,0 60.14,-12.46 83.24,-37.53 23.08,-25.08 39.59,-60.62 49.2,-106.61 7.98,-38.16 5.91,-68 -5.89,-89.54 -11.99,-21.39 -32.96,-32.16 -63.43,-32.16 -28.46,0 -54.37,10.62 -77.6,32.01 -23.22,21.23 -38.43,49.06 -45.6,83.38zm533.31 -286.29c-24,0 -42.21,-7.08 -54.46,-21.38 -12.38,-14.31 -16.44,-31.69 -12.1,-52.46 4.47,-21.39 15.79,-38.77 34,-52.31 18.07,-13.54 39.17,-20.31 63.17,-20.31 24.46,0 42.74,6.77 55.14,20.31 12.24,13.54 16.3,30.92 11.84,52.31 -4.5,21.53 -15.93,39.38 -33.9,53.23 -18.09,13.69 -39.22,20.62 -63.69,20.62zm-41.45 534.59l-142.31 0 96.48 -461.53 142.3 0 -96.47 461.53zm543.51 -190.14l-301.05 0c-9.23,66.92 26.06,100.46 105.6,100.46 50.77,0 97.89,-12 141.36,-36l-21.49 102.76c-47.37,22.76 -105.13,34.15 -173.44,34.15 -74.47,0 -128,-20.62 -160.58,-62 -32.45,-41.23 -41,-98.92 -25.56,-172.76 16.02,-76.61 50.87,-137.38 104.84,-182.15 53.82,-44.77 113.1,-67.08 178.02,-67.08 67.23,0 115.2,20.01 143.63,59.85 28.4,40 35.51,94.31 21.2,162.76l-12.55 60zm-113.69 -87.54c13.79,-65.99 -6.05,-99.07 -59.59,-99.07 -22.77,0 -44.58,9.39 -65.15,28.31 -20.73,18.92 -35.68,42.62 -45.25,70.77l169.99 0zm156.9 -402.45l-171.5 145.54 -102.77 0 147.66 -145.54 126.61 0zm416.66 680.13l-142 0 53.61 -256.46c14.96,-71.53 -3.12,-107.23 -54.19,-107.23 -24.63,0 -46.89,9.39 -66.69,28.32 -19.96,18.92 -33.01,43.07 -39.08,72.14l-55.02 263.23 -142.31 0 96.48 -461.53 142.3 0 -15.27 73.09 1.84 0c45.77,-56.31 101.01,-84.32 165.93,-84.32 102.15,0 139.97,63.39 113.47,190.14l-59.08 282.61zm790.88 -190.14l-301.06 0c-9.22,66.92 26.07,100.46 105.61,100.46 50.77,0 97.89,-12 141.36,-36l-21.49 102.76c-47.37,22.76 -105.14,34.15 -173.45,34.15 -74.46,0 -128,-20.62 -160.57,-62 -32.45,-41.23 -41,-98.92 -25.56,-172.76 16.01,-76.61 50.87,-137.38 104.84,-182.15 53.82,-44.77 113.1,-67.08 178.02,-67.08 67.23,0 115.2,20.01 143.63,59.85 28.4,40 35.51,94.31 21.2,162.76l-12.55 60zm-113.7 -87.54c13.8,-65.99 -6.05,-99.07 -59.58,-99.07 -22.77,0 -44.58,9.39 -65.15,28.31 -20.73,18.92 -35.68,42.62 -45.26,70.77l169.99 0zm100.11 265.53l24.13 -115.38c20.59,14.14 41.78,24.62 63.57,31.53 21.78,6.93 43.06,10.31 63.83,10.31 25.22,0 45.94,-3.39 61.85,-10.31 16.06,-6.92 25.48,-17.39 28.44,-31.53 1.89,-9.07 0.25,-16.62 -5.12,-22.61 -5.36,-6.01 -12.73,-11.24 -22.26,-15.7 -9.37,-4.47 -19.89,-8.62 -31.46,-12.16 -11.54,-3.69 -22.54,-7.69 -32.99,-12.15 -16.86,-6.93 -31.44,-14.47 -43.8,-22.31 -12.32,-8 -22.08,-17.23 -29.4,-27.84 -7.2,-10.46 -11.88,-22.61 -13.91,-36.46 -2.04,-13.85 -1.25,-30.16 2.72,-49.08 5.4,-25.84 15.76,-48.15 30.87,-66.76 15.14,-18.62 33.39,-33.85 54.63,-45.7 21.26,-11.85 44.62,-20.62 69.93,-26.16 25.32,-5.53 51.13,-8.31 77.28,-8.31 20.45,0 40.75,1.55 61.15,4.78 20.43,3.07 40.23,7.69 59.43,13.69l-22.99 109.99c-15.93,-10.62 -33.53,-18.46 -53.04,-23.69 -19.53,-5.22 -39.13,-7.84 -58.98,-7.84 -9.39,0 -18.32,0.77 -26.83,2.46 -8.62,1.53 -16.52,4 -23.51,7.23 -6.94,3.08 -12.71,7.08 -17.3,12.16 -4.72,4.92 -7.6,10.62 -8.92,16.93 -1.73,8.31 -0.63,15.53 3.49,21.53 4.3,6 10.12,11.23 17.99,15.54 7.83,4.46 16.72,8.3 26.63,11.68 9.87,3.55 19.74,7.08 29.62,10.62 17.54,6.61 33.11,13.85 46.85,21.69 13.59,7.85 24.91,16.93 33.62,27.54 8.74,10.45 14.62,22.76 17.51,36.92 2.89,14.15 2.31,30.93 -1.78,50.46 -5.72,27.38 -16.46,50.77 -32.51,70.14 -15.9,19.39 -34.87,35.08 -57.11,47.23 -22.23,12.16 -46.87,21.08 -73.72,26.62 -26.85,5.53 -54.04,8.31 -81.74,8.31 -50.76,0 -96.05,-7.84 -136.18,-23.39zm1103.36 12.16l-142 0 53.61 -256.46c14.95,-71.53 -3.12,-107.23 -54.2,-107.23 -24.62,0 -46.89,9.39 -66.69,28.32 -19.95,18.92 -33.01,43.07 -39.08,72.14l-55.02 263.23 -142.3 0 96.47 -461.53 142.3 0 -15.27 73.09 1.84 0c45.77,-56.31 101.01,-84.32 165.93,-84.32 102.15,0 139.97,63.39 113.47,190.14l-59.07 282.61zm299.41 11.23c-76.92,0 -132.87,-21.54 -167.87,-64.62 -34.99,-43.08 -44.74,-101.69 -29.3,-175.53 15.96,-76.31 51.24,-136.15 105.93,-179.23 54.69,-43.08 121.04,-64.62 198.73,-64.62 76.61,0 132.26,21.54 166.8,64.62 34.52,43.08 44.44,100.15 29.61,171.07 -16.02,76.61 -51.15,137.22 -105.37,181.69 -54.22,44.46 -120.39,66.61 -198.54,66.61zm82.07 -374.91c-33.7,0 -62.25,11.54 -85.7,34.62 -23.47,23.24 -39.71,56 -48.55,98.3 -18.52,88.62 8.06,132.92 79.59,132.92 68.15,0 111.82,-45.54 130.83,-136.45 18.04,-86.3 -7.42,-129.39 -76.18,-129.39zm513.92 358.3c-23.39,11.07 -56.24,16.61 -98.54,16.61 -100.3,0 -139.7,-52.16 -117.93,-156.3l44.19 -211.37 -74.77 0 21.96 -105.08 74.77 0 20.81 -99.53 150.47 -40.62 -29.3 140.14 103.69 0 -21.96 105.08 -103.69 0 -39.02 186.61c-10.03,47.99 4.03,72 42.18,72 15.08,0 31.51,-4.3 49.2,-13.07l-22.06 105.54zm232.1 -529.21c-24,0 -42.21,-7.08 -54.46,-21.38 -12.38,-14.31 -16.44,-31.69 -12.1,-52.46 4.47,-21.39 15.79,-38.77 34,-52.31 18.07,-13.54 39.17,-20.31 63.17,-20.31 24.46,0 42.74,6.77 55.14,20.31 12.24,13.54 16.3,30.92 11.84,52.31 -4.5,21.53 -15.93,39.38 -33.9,53.23 -18.09,13.69 -39.22,20.62 -63.69,20.62zm-41.45 534.59l-142.3 0 96.47 -461.53 142.3 0 -96.47 461.53zm442.31 -16.62c-36.05,18.62 -84.44,27.85 -145.05,27.85 -70.92,0 -123.82,-21.39 -158.67,-64.47 -34.87,-42.92 -45.29,-98.3 -31.07,-166.29 16.4,-78.46 52.83,-140.14 109.21,-185.38 56.53,-45.24 124.17,-67.85 202.94,-67.85 54.31,0 92.18,7.24 113.49,21.54l-25.28 120.92c-25.03,-22.31 -55.94,-33.39 -92.56,-33.39 -40.92,0 -75.71,11.85 -104.72,35.85 -28.83,23.84 -47.71,56.77 -56.53,98.92 -8.51,40.77 -3.7,72.92 14.22,96.14 17.87,23.4 47,34.93 86.84,34.93 35.53,0 72.47,-11.08 111.14,-33.38l-23.96 114.6zm242.82 -517.97c-24,0 -42.21,-7.08 -54.46,-21.38 -12.38,-14.31 -16.44,-31.69 -12.1,-52.46 4.47,-21.39 15.79,-38.77 34,-52.31 18.07,-13.54 39.17,-20.31 63.17,-20.31 24.46,0 42.74,6.77 55.14,20.31 12.24,13.54 16.3,30.92 11.84,52.31 -4.5,21.53 -15.93,39.38 -33.9,53.23 -18.09,13.69 -39.22,20.62 -63.69,20.62zm-41.45 534.59l-142.31 0 96.48 -461.53 142.3 0 -96.47 461.53zm473.15 0l-134.77 0 13.86 -66.3 -1.84 0c-41.73,51.68 -92.98,77.53 -153.76,77.53 -44.76,0 -77.34,-12.62 -97.74,-37.99 -20.38,-25.39 -26.05,-59.39 -17.19,-101.69 18.71,-89.54 82.59,-141.22 191.48,-155.06l128.86 -16.62c10.55,-50.45 -11.56,-75.69 -66.33,-75.69 -54.91,0 -110.64,16.3 -167.02,49.07l22.42 -107.23c22,-10.3 50.94,-19.22 87.04,-27.08 35.94,-7.84 68.13,-11.69 96.43,-11.69 131.54,0 183.64,65.7 156.21,196.92l-57.65 275.84zm-94.65 -187.53l6.5 -31.08 -86.09 10.78c-47.56,6 -75.01,26.92 -82.51,62.76 -3.37,16.15 -0.63,29.54 8.44,39.84 9.23,10.31 23.38,15.54 42.6,15.54 26.77,0 50.39,-9.23 71.17,-27.69 20.62,-18.46 33.97,-41.85 39.89,-70.15z"/>
  </g>
 </g>
</svg>
