<?xml version="1.0" encoding="UTF-8"?>
<!DOCTYPE svg PUBLIC "-//W3C//DTD SVG 1.1//EN" "http://www.w3.org/Graphics/SVG/1.1/DTD/svg11.dtd">
<!-- Creator: CorelDRAW (Versión de evaluación) -->
<svg xmlns="http://www.w3.org/2000/svg" xml:space="preserve" width="141.263mm" height="46.5659mm" version="1.1" style="shape-rendering:geometricPrecision; text-rendering:geometricPrecision; image-rendering:optimizeQuality; fill-rule:evenodd; clip-rule:evenodd"
viewBox="0 0 14477.58 4772.39"
 xmlns:xlink="http://www.w3.org/1999/xlink"
 xmlns:xodm="http://www.corel.com/coreldraw/odm/2003">
 <defs>
  <style type="text/css">
   <![CDATA[
    .str0 {stroke:gray;stroke-width:27.11;stroke-miterlimit:22.9256}
    .fil4 {fill:none}
    .fil0 {fill:#FEFEFE}
    .fil1 {fill:#666666}
    .fil2 {fill:red}
    .fil6 {fill:white}
    .fil3 {fill:#FEFEFE;fill-rule:nonzero}
    .fil5 {fill:#666666;fill-rule:nonzero}
    .fil7 {fill:red;fill-rule:nonzero}
   ]]>
  </style>
   <clipPath id="id0">
    <path d="M293.56 2203.19l1942.25 -1942.25c96.32,-96.32 253.91,-96.32 350.23,0l1942.25 1942.25c96.32,96.32 96.32,253.91 0,350.23l-1942.25 1942.25c-96.32,96.32 -253.91,96.32 -350.23,0l-1942.25 -1942.25c-96.32,-96.32 -96.32,-253.91 0,-350.23z"/>
   </clipPath>
 </defs>
 <g id="Capa_x0020_1">
  <metadata id="CorelCorpID_0Corel-Layer"/>
  <rect class="fil0 str0" transform="matrix(0.833282 -0.833282 0.833282 0.833282 -152.128 2386.2)" width="3046.18" height="3046.18" rx="338.46" ry="338.46"/>
  <path class="fil1" d="M293.56 2203.19l1942.25 -1942.25c96.32,-96.32 253.91,-96.32 350.23,0l1942.25 1942.25c96.32,96.32 96.32,253.91 0,350.23l-1942.25 1942.25c-96.32,96.32 -253.91,96.32 -350.23,0l-1942.25 -1942.25c-96.32,-96.32 -96.32,-253.91 0,-350.23z"/>
  <g style="clip-path:url(#id0)">
   <g id="_2125610306640">
    <g>
     <path id="_1" class="fil2" d="M2406.43 1286.17c1505.02,0 2725.09,1076.52 2725.09,2404.49 0,1327.95 -1220.07,2404.49 -2725.09,2404.49 -1505.01,0 -2725.08,-1076.53 -2725.08,-2404.49 0,-1327.96 1220.07,-2404.49 2725.08,-2404.49z"/>
     <path id="_2" class="fil3" d="M5191.47 3690.66l-119.91 0 0 0 -3.44 -120.29 -10.23 -118.68 -16.85 -116.94 -23.29 -115.08 -29.58 -113.07 -35.71 -110.93 -41.67 -108.67 -47.47 -106.24 -53.12 -103.69 -58.61 -100.96 -63.94 -98.12 -69.1 -95.1 -74.11 -91.95 -78.95 -88.64 -83.62 -85.18 -88.14 -81.57 -92.48 -77.8 -96.66 -73.88 -100.67 -69.8 -104.52 -65.58 -108.2 -61.19 -111.71 -56.68 -115.04 -52 -118.22 -47.15 -121.22 -42.17 -124.07 -37.03 -126.73 -31.76 -129.23 -26.31 -131.56 -20.74 -133.72 -14.99 -135.72 -9.1 -137.57 -3.06 0 -120.24 142.9 3.19 141.05 9.47 139.03 15.59 136.83 21.56 134.45 27.37 131.91 33.05 129.17 38.57 126.28 43.94 123.2 49.14 119.96 54.22 116.53 59.11 112.93 63.88 109.17 68.49 105.2 72.96 101.1 77.26 96.81 81.45 92.32 85.44 87.68 89.32 82.86 93.03 77.84 96.58 72.66 100.02 67.3 103.27 61.75 106.39 56.03 109.34 50.1 112.14 44.03 114.78 37.74 117.27 31.28 119.59 24.64 121.74 17.81 123.72 10.82 125.55 3.65 127.18 0 0zm0 0c0,33.2 -26.85,60.12 -59.95,60.12 -33.1,0 -59.95,-26.92 -59.95,-60.12l119.91 0zm-2785.04 2464.6l0 -120.24 0 0 137.57 -3.06 135.72 -9.1 133.72 -14.99 131.56 -20.74 129.23 -26.31 126.73 -31.76 124.07 -37.03 121.22 -42.17 118.22 -47.16 115.04 -51.99 111.71 -56.68 108.2 -61.21 104.52 -65.58 100.67 -69.8 96.66 -73.88 92.49 -77.79 88.13 -81.57 83.62 -85.18 78.95 -88.64 74.11 -91.95 69.1 -95.1 63.94 -98.12 58.61 -100.96 53.12 -103.69 47.47 -106.24 41.67 -108.67 35.71 -110.94 29.58 -113.06 23.29 -115.08 16.85 -116.94 10.23 -118.68 3.44 -120.29 119.91 0 -3.65 127.18 -10.82 125.55 -17.81 123.72 -24.64 121.74 -31.28 119.58 -37.74 117.28 -44.03 114.78 -50.1 112.14 -56.03 109.34 -61.75 106.39 -67.3 103.27 -72.66 100.02 -77.84 96.58 -82.86 93.03 -87.68 89.32 -92.33 85.44 -96.8 81.44 -101.1 77.26 -105.2 72.96 -109.17 68.49 -112.93 63.89 -116.53 59.11 -119.96 54.21 -123.2 49.15 -126.28 43.94 -129.17 38.57 -131.91 33.05 -134.45 27.37 -136.83 21.56 -139.03 15.59 -141.05 9.47 -142.9 3.19 0 0zm0 0c-33.1,0 -59.95,-26.92 -59.95,-60.12 0,-33.2 26.85,-60.12 59.95,-60.12l0 120.24zm-2785.03 -2464.6l119.91 0 0 0 3.44 120.29 10.23 118.68 16.85 116.94 23.29 115.08 29.58 113.06 35.71 110.94 41.67 108.67 47.47 106.24 53.12 103.69 58.61 100.96 63.94 98.12 69.1 95.1 74.11 91.95 78.95 88.64 83.62 85.18 88.13 81.57 92.49 77.79 96.65 73.88 100.68 69.8 104.52 65.58 108.2 61.21 111.71 56.68 115.04 51.99 118.22 47.16 121.22 42.17 124.06 37.03 126.73 31.76 129.23 26.31 131.56 20.74 133.72 14.99 135.72 9.1 137.57 3.06 0 120.24 -142.9 -3.19 -141.05 -9.47 -139.03 -15.59 -136.83 -21.56 -134.45 -27.37 -131.91 -33.05 -129.16 -38.57 -126.28 -43.94 -123.2 -49.15 -119.96 -54.21 -116.53 -59.11 -112.93 -63.89 -109.17 -68.49 -105.21 -72.96 -101.09 -77.26 -96.8 -81.44 -92.33 -85.44 -87.68 -89.32 -82.86 -93.03 -77.84 -96.58 -72.66 -100.02 -67.3 -103.27 -61.75 -106.39 -56.03 -109.34 -50.1 -112.14 -44.03 -114.78 -37.74 -117.28 -31.28 -119.58 -24.64 -121.74 -17.81 -123.72 -10.82 -125.55 -3.65 -127.18 0 0zm0 0c0,-33.2 26.85,-60.12 59.95,-60.12 33.1,0 59.95,26.92 59.95,60.12l-119.91 0zm2785.03 -2464.6l0 120.24 0 0 -137.57 3.06 -135.72 9.1 -133.72 14.99 -131.56 20.74 -129.23 26.31 -126.73 31.76 -124.06 37.03 -121.22 42.17 -118.22 47.15 -115.04 52 -111.71 56.68 -108.2 61.19 -104.52 65.58 -100.68 69.8 -96.65 73.88 -92.48 77.8 -88.14 81.57 -83.62 85.18 -78.95 88.64 -74.11 91.95 -69.1 95.1 -63.94 98.12 -58.61 100.96 -53.12 103.69 -47.47 106.24 -41.67 108.67 -35.71 110.93 -29.58 113.07 -23.29 115.08 -16.85 116.94 -10.23 118.68 -3.44 120.29 -119.91 0 3.65 -127.18 10.82 -125.55 17.81 -123.72 24.64 -121.74 31.28 -119.59 37.74 -117.27 44.03 -114.78 50.1 -112.14 56.03 -109.34 61.75 -106.39 67.3 -103.27 72.66 -100.02 77.84 -96.58 82.86 -93.03 87.68 -89.32 92.32 -85.44 96.81 -81.45 101.09 -77.26 105.21 -72.96 109.17 -68.49 112.93 -63.88 116.53 -59.11 119.96 -54.22 123.2 -49.14 126.28 -43.94 129.16 -38.57 131.91 -33.05 134.45 -27.37 136.83 -21.56 139.03 -15.59 141.05 -9.47 142.9 -3.19 0 0zm0 0c33.1,0 59.95,26.92 59.95,60.12 0,33.2 -26.85,60.12 -59.95,60.12l0 -120.24z"/>
    </g>
    <g>
     <path class="fil2" d="M2406.43 2077.64c1505.02,0 2725.09,1076.53 2725.09,2404.49 0,1327.96 -1220.07,2404.49 -2725.09,2404.49 -1505.01,0 -2725.08,-1076.52 -2725.08,-2404.49 0,-1327.95 1220.07,-2404.49 2725.08,-2404.49z"/>
     <path id="_1_0" class="fil3" d="M5191.47 4482.13l-119.91 0 0 0 -3.44 -120.29 -10.23 -118.68 -16.85 -116.94 -23.29 -115.08 -29.58 -113.06 -35.71 -110.94 -41.67 -108.67 -47.47 -106.24 -53.12 -103.69 -58.61 -100.96 -63.94 -98.12 -69.1 -95.1 -74.11 -91.95 -78.95 -88.64 -83.62 -85.18 -88.13 -81.57 -92.49 -77.79 -96.66 -73.88 -100.67 -69.8 -104.52 -65.58 -108.2 -61.21 -111.71 -56.68 -115.04 -51.99 -118.22 -47.16 -121.22 -42.17 -124.07 -37.03 -126.73 -31.76 -129.23 -26.31 -131.56 -20.74 -133.72 -14.99 -135.72 -9.1 -137.57 -3.06 0 -120.24 142.9 3.19 141.05 9.47 139.03 15.59 136.83 21.56 134.45 27.37 131.91 33.05 129.17 38.57 126.28 43.94 123.2 49.15 119.96 54.21 116.53 59.11 112.93 63.89 109.17 68.49 105.2 72.96 101.1 77.26 96.8 81.44 92.33 85.44 87.68 89.32 82.86 93.03 77.84 96.58 72.66 100.02 67.3 103.27 61.75 106.39 56.03 109.34 50.1 112.14 44.03 114.78 37.74 117.28 31.28 119.58 24.64 121.74 17.81 123.72 10.82 125.55 3.65 127.18 0 0zm0 0c0,33.2 -26.85,60.12 -59.95,60.12 -33.1,0 -59.95,-26.92 -59.95,-60.12l119.91 0zm-2785.04 2464.6l0 -120.24 0 0 137.57 -3.06 135.72 -9.1 133.72 -14.99 131.56 -20.74 129.23 -26.31 126.73 -31.76 124.07 -37.03 121.22 -42.17 118.22 -47.15 115.04 -52 111.71 -56.68 108.2 -61.19 104.52 -65.58 100.67 -69.8 96.66 -73.88 92.48 -77.8 88.14 -81.57 83.62 -85.18 78.95 -88.64 74.11 -91.95 69.1 -95.1 63.94 -98.12 58.61 -100.96 53.12 -103.69 47.47 -106.24 41.67 -108.67 35.71 -110.93 29.58 -113.07 23.29 -115.08 16.85 -116.94 10.23 -118.68 3.44 -120.29 119.91 0 -3.65 127.18 -10.82 125.55 -17.81 123.72 -24.64 121.74 -31.28 119.59 -37.74 117.27 -44.03 114.78 -50.1 112.14 -56.03 109.34 -61.75 106.39 -67.3 103.27 -72.66 100.02 -77.84 96.58 -82.86 93.03 -87.68 89.32 -92.32 85.44 -96.81 81.45 -101.1 77.26 -105.2 72.96 -109.17 68.49 -112.93 63.88 -116.53 59.11 -119.96 54.22 -123.2 49.14 -126.28 43.94 -129.17 38.57 -131.91 33.05 -134.45 27.37 -136.83 21.56 -139.03 15.59 -141.05 9.47 -142.9 3.19 0 0zm0 0c-33.1,0 -59.95,-26.92 -59.95,-60.12 0,-33.2 26.85,-60.12 59.95,-60.12l0 120.24zm-2785.03 -2464.6l119.91 0 0 0 3.44 120.29 10.23 118.68 16.85 116.94 23.29 115.08 29.58 113.07 35.71 110.93 41.67 108.67 47.47 106.24 53.12 103.69 58.61 100.96 63.94 98.12 69.1 95.1 74.11 91.95 78.95 88.64 83.62 85.18 88.14 81.57 92.48 77.8 96.65 73.88 100.68 69.8 104.52 65.58 108.2 61.19 111.71 56.68 115.04 52 118.22 47.15 121.22 42.17 124.06 37.03 126.73 31.76 129.23 26.31 131.56 20.74 133.72 14.99 135.72 9.1 137.57 3.06 0 120.24 -142.9 -3.19 -141.05 -9.47 -139.03 -15.59 -136.83 -21.56 -134.45 -27.37 -131.91 -33.05 -129.16 -38.57 -126.28 -43.94 -123.2 -49.14 -119.96 -54.22 -116.53 -59.11 -112.93 -63.88 -109.17 -68.49 -105.21 -72.96 -101.09 -77.26 -96.81 -81.45 -92.32 -85.44 -87.68 -89.32 -82.86 -93.03 -77.84 -96.58 -72.66 -100.02 -67.3 -103.27 -61.75 -106.39 -56.03 -109.34 -50.1 -112.14 -44.03 -114.78 -37.74 -117.27 -31.28 -119.59 -24.64 -121.74 -17.81 -123.72 -10.82 -125.55 -3.65 -127.18 0 0zm0 0c0,-33.2 26.85,-60.12 59.95,-60.12 33.1,0 59.95,26.92 59.95,60.12l-119.91 0zm2785.03 -2464.6l0 120.24 0 0 -137.57 3.06 -135.72 9.1 -133.72 14.99 -131.56 20.74 -129.23 26.31 -126.73 31.76 -124.06 37.03 -121.22 42.17 -118.22 47.16 -115.04 51.99 -111.71 56.68 -108.2 61.21 -104.52 65.58 -100.68 69.8 -96.65 73.88 -92.49 77.79 -88.13 81.57 -83.62 85.18 -78.95 88.64 -74.11 91.95 -69.1 95.1 -63.94 98.12 -58.61 100.96 -53.12 103.69 -47.47 106.24 -41.67 108.67 -35.71 110.94 -29.58 113.06 -23.29 115.08 -16.85 116.94 -10.23 118.68 -3.44 120.29 -119.91 0 3.65 -127.18 10.82 -125.55 17.81 -123.72 24.64 -121.74 31.28 -119.58 37.74 -117.28 44.03 -114.78 50.1 -112.14 56.03 -109.34 61.75 -106.39 67.3 -103.27 72.66 -100.02 77.84 -96.58 82.86 -93.03 87.68 -89.32 92.33 -85.44 96.8 -81.44 101.09 -77.26 105.21 -72.96 109.17 -68.49 112.93 -63.89 116.53 -59.11 119.96 -54.21 123.2 -49.15 126.28 -43.94 129.16 -38.57 131.91 -33.05 134.45 -27.37 136.83 -21.56 139.03 -15.59 141.05 -9.47 142.9 -3.19 0 0zm0 0c33.1,0 59.95,26.92 59.95,60.12 0,33.2 -26.85,60.12 -59.95,60.12l0 -120.24z"/>
    </g>
    <g>
     <path class="fil2" d="M2406.43 2879.14c1408.36,0 2550.08,1076.52 2550.08,2404.48 0,1327.96 -1141.71,2404.49 -2550.08,2404.49 -1408.36,0 -2550.07,-1076.52 -2550.07,-2404.49 0,-1327.95 1141.7,-2404.48 2550.07,-2404.48z"/>
     <path id="_1_1" class="fil3" d="M5012.61 5283.62l-112.2 0 0 0 -3.23 -120.29 -9.57 -118.68 -15.76 -116.94 -21.79 -115.07 -27.69 -113.07 -33.4 -110.94 -38.99 -108.66 -44.44 -106.25 -49.71 -103.68 -54.84 -100.96 -59.84 -98.12 -64.66 -95.11 -69.35 -91.95 -73.87 -88.64 -78.25 -85.17 -82.47 -81.57 -86.54 -77.8 -90.47 -73.88 -94.2 -69.8 -97.81 -65.58 -101.25 -61.19 -104.54 -56.68 -107.65 -52 -110.62 -47.15 -113.44 -42.17 -116.1 -37.03 -118.58 -31.76 -120.92 -26.31 -123.12 -20.74 -125.14 -14.99 -127.01 -9.1 -128.73 -3.06 0 -120.24 133.71 3.19 131.99 9.47 130.12 15.59 128.04 21.56 125.82 27.37 123.44 33.05 120.87 38.57 118.18 43.94 115.3 49.14 112.24 54.22 109.05 59.11 105.67 63.88 102.16 68.49 98.46 72.96 94.61 77.26 90.58 81.45 86.41 85.44 82.04 89.31 77.54 93.03 72.84 96.6 68 100.01 62.98 103.27 57.79 106.39 52.41 109.33 46.9 112.13 41.2 114.79 35.31 117.28 29.27 119.57 23.06 121.75 16.66 123.72 10.13 125.55 3.41 127.18 0 0zm0 0c0,33.2 -25.12,60.12 -56.1,60.12 -30.98,0 -56.1,-26.92 -56.1,-60.12l112.2 0zm-2606.18 2464.6l0 -120.24 0 0 128.73 -3.06 127.01 -9.1 125.14 -14.99 123.12 -20.74 120.92 -26.31 118.58 -31.76 116.1 -37.03 113.44 -42.17 110.62 -47.15 107.65 -52 104.54 -56.68 101.25 -61.19 97.81 -65.58 94.2 -69.8 90.47 -73.88 86.54 -77.8 82.47 -81.57 78.25 -85.18 73.88 -88.64 69.34 -91.95 64.66 -95.1 59.84 -98.12 54.84 -100.96 49.71 -103.69 44.44 -106.25 38.99 -108.66 33.4 -110.93 27.69 -113.08 21.79 -115.07 15.76 -116.94 9.57 -118.68 3.23 -120.29 112.2 0 -3.41 127.18 -10.13 125.55 -16.66 123.72 -23.06 121.75 -29.27 119.58 -35.31 117.27 -41.2 114.79 -46.9 112.13 -52.41 109.34 -57.79 106.39 -62.98 103.27 -68 100.02 -72.85 96.58 -77.53 93.03 -82.04 89.32 -86.41 85.44 -90.58 81.45 -94.61 77.26 -98.46 72.96 -102.16 68.49 -105.67 63.88 -109.05 59.11 -112.24 54.22 -115.3 49.14 -118.18 43.94 -120.87 38.57 -123.44 33.05 -125.82 27.37 -128.04 21.56 -130.12 15.59 -131.99 9.47 -133.71 3.19 0 0zm0 0c-30.98,0 -56.1,-26.92 -56.1,-60.12 0,-33.2 25.12,-60.12 56.1,-60.12l0 120.24zm-2606.17 -2464.6l112.2 0 0 0 3.23 120.29 9.57 118.68 15.76 116.94 21.79 115.08 27.68 113.07 33.41 110.93 38.99 108.66 44.43 106.25 49.72 103.68 54.84 100.97 59.83 98.12 64.66 95.1 69.35 91.95 73.87 88.64 78.26 85.18 82.46 81.57 86.55 77.8 90.45 73.88 94.21 69.8 97.8 65.58 101.25 61.19 104.54 56.68 107.66 52 110.61 47.15 113.44 42.17 116.1 37.03 118.58 31.76 120.92 26.31 123.12 20.74 125.14 14.99 127.01 9.1 128.73 3.06 0 120.24 -133.71 -3.19 -131.99 -9.47 -130.12 -15.59 -128.04 -21.56 -125.82 -27.37 -123.44 -33.05 -120.87 -38.57 -118.18 -43.94 -115.29 -49.14 -112.25 -54.22 -109.05 -59.11 -105.67 -63.88 -102.15 -68.49 -98.47 -72.96 -94.6 -77.26 -90.59 -81.45 -86.4 -85.44 -82.05 -89.32 -77.52 -93.03 -72.86 -96.58 -68 -100.02 -62.97 -103.27 -57.79 -106.38 -52.42 -109.35 -46.89 -112.13 -41.2 -114.79 -35.32 -117.27 -29.26 -119.59 -23.06 -121.74 -16.66 -123.72 -10.13 -125.55 -3.41 -127.18 0 0zm0 0c0,-33.2 25.12,-60.12 56.1,-60.12 30.98,0 56.1,26.92 56.1,60.12l-112.2 0zm2606.17 -2464.59l0 120.24 0 0 -128.73 3.06 -127.01 9.1 -125.14 14.99 -123.12 20.74 -120.92 26.31 -118.58 31.76 -116.1 37.03 -113.44 42.17 -110.61 47.15 -107.66 52 -104.54 56.68 -101.25 61.19 -97.8 65.58 -94.21 69.8 -90.45 73.88 -86.55 77.8 -82.46 81.57 -78.26 85.17 -73.86 88.64 -69.36 91.96 -64.66 95.1 -59.83 98.12 -54.84 100.97 -49.72 103.67 -44.43 106.25 -38.99 108.66 -33.41 110.94 -27.68 113.06 -21.79 115.08 -15.76 116.94 -9.57 118.68 -3.23 120.29 -112.2 0 3.41 -127.18 10.13 -125.55 16.66 -123.72 23.06 -121.74 29.26 -119.58 35.32 -117.28 41.2 -114.79 46.89 -112.13 52.42 -109.34 57.79 -106.38 62.97 -103.27 68 -100.02 72.85 -96.59 77.53 -93.03 82.05 -89.31 86.4 -85.44 90.59 -81.45 94.6 -77.26 98.47 -72.96 102.15 -68.49 105.67 -63.88 109.05 -59.11 112.25 -54.22 115.29 -49.14 118.18 -43.94 120.87 -38.57 123.44 -33.05 125.82 -27.37 128.04 -21.56 130.12 -15.59 131.99 -9.47 133.71 -3.19 0 0zm0 0c30.98,0 56.1,26.92 56.1,60.12 0,33.2 -25.12,60.12 -56.1,60.12l0 -120.24z"/>
    </g>
    <g>
     <path class="fil2" d="M2406.43 3650.58c1265.9,0 2292.12,1076.52 2292.12,2404.49 0,1327.95 -1026.22,2404.48 -2292.12,2404.48 -1265.9,0 -2292.11,-1076.52 -2292.11,-2404.48 0,-1327.96 1026.21,-2404.49 2292.11,-2404.49z"/>
     <path id="_1_2" class="fil3" d="M4748.98 6055.07l-100.85 0 0 0 -2.9 -120.29 -8.61 -118.68 -14.16 -116.94 -19.6 -115.08 -24.87 -113.07 -30.03 -110.93 -35.05 -108.66 -39.94 -106.25 -44.67 -103.69 -49.3 -100.96 -53.79 -98.12 -58.12 -95.11 -62.32 -91.94 -66.41 -88.64 -70.34 -85.18 -74.14 -81.57 -77.78 -77.8 -81.3 -73.88 -84.68 -69.8 -87.9 -65.58 -91.02 -61.19 -93.95 -56.68 -96.77 -52 -99.44 -47.15 -101.95 -42.17 -104.35 -37.03 -106.6 -31.76 -108.69 -26.31 -110.66 -20.74 -112.48 -14.99 -114.16 -9.1 -115.72 -3.06 0 -120.24 120.19 3.19 118.65 9.47 116.95 15.59 115.08 21.56 113.09 27.37 110.94 33.05 108.66 38.57 106.22 43.94 103.62 49.14 100.91 54.22 98.01 59.11 95 63.88 91.82 68.49 88.5 72.96 85.03 77.26 81.43 81.45 77.66 85.44 73.74 89.32 69.69 93.03 65.48 96.59 61.11 100.01 56.61 103.27 51.94 106.39 47.11 109.34 42.15 112.13 37.02 114.79 31.75 117.27 26.31 119.59 20.72 121.74 14.98 123.72 9.1 125.55 3.06 127.18 0 0zm0 0c0,33.2 -22.58,60.12 -50.42,60.12 -27.85,0 -50.42,-26.92 -50.42,-60.12l100.85 0zm-2342.54 2464.59l0 -120.24 0 0 115.72 -3.06 114.16 -9.1 112.48 -14.99 110.66 -20.74 108.69 -26.31 106.6 -31.76 104.35 -37.03 101.95 -42.17 99.44 -47.15 96.77 -52 93.95 -56.68 91.02 -61.19 87.9 -65.58 84.68 -69.8 81.3 -73.88 77.78 -77.8 74.14 -81.57 70.34 -85.17 66.4 -88.64 62.33 -91.95 58.12 -95.11 53.79 -98.12 49.3 -100.96 44.67 -103.68 39.94 -106.25 35.05 -108.66 30.03 -110.94 24.87 -113.06 19.6 -115.08 14.16 -116.94 8.61 -118.68 2.9 -120.29 100.85 0 -3.06 127.18 -9.1 125.55 -14.98 123.72 -20.72 121.74 -26.31 119.58 -31.75 117.28 -37.02 114.79 -42.15 112.13 -47.11 109.33 -51.94 106.39 -56.61 103.27 -61.11 100.01 -65.47 96.6 -69.7 93.03 -73.74 89.31 -77.66 85.44 -81.43 81.45 -85.03 77.26 -88.5 72.96 -91.82 68.49 -95 63.88 -98.01 59.11 -100.91 54.22 -103.62 49.14 -106.22 43.94 -108.66 38.57 -110.94 33.05 -113.09 27.37 -115.08 21.56 -116.95 15.59 -118.65 9.47 -120.19 3.19 0 0zm0 0c-27.85,0 -50.42,-26.92 -50.42,-60.12 0,-33.2 22.58,-60.12 50.42,-60.12l0 120.24zm-2342.53 -2464.59l100.85 0 0 0 2.9 120.29 8.61 118.68 14.16 116.94 19.6 115.08 24.87 113.06 30.03 110.94 35.05 108.67 39.93 106.24 44.68 103.67 49.3 100.97 53.77 98.12 58.13 95.1 62.33 91.96 66.4 88.64 70.34 85.17 74.13 81.57 77.78 77.8 81.3 73.88 84.68 69.8 87.91 65.58 91.01 61.19 93.96 56.68 96.77 52 99.43 47.15 101.95 42.17 104.35 37.03 106.6 31.76 108.69 26.31 110.66 20.74 112.48 14.99 114.16 9.1 115.72 3.06 0 120.24 -120.19 -3.19 -118.65 -9.47 -116.95 -15.59 -115.08 -21.56 -113.09 -27.37 -110.94 -33.05 -108.66 -38.57 -106.22 -43.94 -103.63 -49.14 -100.89 -54.22 -98.02 -59.11 -94.98 -63.88 -91.83 -68.49 -88.5 -72.96 -85.03 -77.26 -81.43 -81.45 -77.65 -85.44 -73.74 -89.31 -69.7 -93.03 -65.47 -96.59 -61.12 -100.02 -56.6 -103.27 -51.94 -106.38 -47.12 -109.34 -42.14 -112.14 -37.02 -114.78 -31.75 -117.28 -26.31 -119.58 -20.72 -121.74 -14.98 -123.72 -9.1 -125.55 -3.06 -127.18 0 0zm0 0c0,-33.2 22.58,-60.12 50.42,-60.12 27.85,0 50.42,26.92 50.42,60.12l-100.85 0zm2342.53 -2464.6l0 120.24 0 0 -115.72 3.06 -114.16 9.1 -112.48 14.99 -110.66 20.74 -108.69 26.31 -106.6 31.76 -104.35 37.03 -101.95 42.17 -99.43 47.15 -96.77 52 -93.96 56.68 -91.01 61.19 -87.91 65.58 -84.68 69.8 -81.3 73.88 -77.78 77.8 -74.13 81.57 -70.34 85.18 -66.41 88.64 -62.32 91.95 -58.13 95.1 -53.77 98.12 -49.3 100.96 -44.68 103.69 -39.93 106.24 -35.05 108.67 -30.03 110.93 -24.87 113.07 -19.6 115.08 -14.16 116.94 -8.61 118.68 -2.9 120.29 -100.85 0 3.06 -127.18 9.1 -125.55 14.98 -123.72 20.72 -121.74 26.31 -119.59 31.75 -117.27 37.02 -114.78 42.14 -112.14 47.12 -109.34 51.94 -106.39 56.6 -103.27 61.12 -100.02 65.48 -96.58 69.69 -93.03 73.74 -89.32 77.65 -85.44 81.43 -81.45 85.03 -77.26 88.5 -72.96 91.83 -68.49 94.98 -63.88 98.02 -59.11 100.89 -54.22 103.63 -49.14 106.22 -43.94 108.66 -38.57 110.94 -33.05 113.09 -27.37 115.08 -21.56 116.95 -15.59 118.65 -9.47 120.19 -3.19 0 0zm0 0c27.85,0 50.42,26.92 50.42,60.12 0,33.2 -22.58,60.12 -50.42,60.12l0 -120.24z"/>
    </g>
   </g>
  </g>
  <path class="fil4" d="M293.56 2203.19l1942.25 -1942.25c96.32,-96.32 253.91,-96.32 350.23,0l1942.25 1942.25c96.32,96.32 96.32,253.91 0,350.23l-1942.25 1942.25c-96.32,96.32 -253.91,96.32 -350.23,0l-1942.25 -1942.25c-96.32,-96.32 -96.32,-253.91 0,-350.23z"/>
  <path class="fil5" d="M5036.31 3477.54l176.69 0 157.49 -543.74c4.44,-16.44 8.72,-33.33 12.95,-50.91 4,-17.58 7.51,-34.02 10.79,-49.31 3.03,-15.29 5.67,-27.62 7.49,-37.21 1.77,-9.35 2.63,-14.39 2.67,-14.6l2.75 0c-0.1,0.45 0.59,5.7 1.64,15.74 1.24,10.28 2.78,23.3 4.61,39.27 1.89,15.74 4.02,32.41 6.51,49.52 2.69,17.35 5.24,33.11 8.11,47.49l75.5 376.64 154.77 0 238.14 -376.64c9.01,-14.38 18.32,-30.14 28.16,-47.26 9.59,-17.12 18.82,-33.55 27.16,-49.08 8.63,-15.74 15.48,-28.53 20.83,-38.58 5.38,-10.27 8.11,-15.52 8.16,-15.75l2.75 0c-0.05,0.24 -1.3,5.02 -3.55,14.38 -2.06,9.59 -4.87,21.7 -8.31,36.75 -3.23,15.08 -6.75,31.51 -10.02,48.87 -3.47,17.34 -6.41,34.23 -9.02,50.67l-75.31 543.74 175.31 0 130.11 -972.45 -189.01 0 -293.3 480.75c-8.6,14.61 -17.64,30.14 -26.65,46.58 -9.17,16.2 -17.52,31.71 -25.43,46.32 -7.88,14.38 -14.07,26.25 -19,35.39 -4.69,9.13 -7.32,13.92 -7.36,14.15l-2.74 0c0.04,-0.24 -0.53,-5.02 -1.55,-14.15 -1,-9.14 -2.57,-21.01 -4.28,-35.39 -1.66,-14.61 -3.82,-30.12 -6.07,-46.32 -2.18,-16.44 -4.56,-31.97 -6.92,-46.58l-87.46 -480.75 -189.01 0 -287.62 972.45zm1293.73 -349.25c-11.44,54.55 -12.76,104.32 -3.62,149.06 9.16,44.75 27.43,83.1 55.18,115.51 27.81,32.17 63.8,57.06 108.2,74.64 44.23,17.35 95.97,26.25 155.03,26.48 58.96,-0.24 114.05,-9.13 165.7,-26.48 51.69,-17.58 98.34,-42.47 139.7,-74.64 41.4,-32.42 76.33,-70.77 104.39,-115.51 28.29,-44.74 48.31,-94.5 60.22,-149.06l133.41 -623.19 -176.68 0 -133.13 621.82c-9.6,43.82 -26.75,81.27 -51.06,111.63 -24.34,30.58 -54.46,53.87 -90.28,69.84 -35.55,15.75 -75.44,23.97 -119.03,23.97 -43.61,0 -79.8,-7.98 -108.55,-23.97 -28.55,-15.98 -48.5,-39.03 -59.56,-69.39 -11.3,-30.36 -12.34,-67.11 -3.24,-110.71l133.41 -623.19 -176.68 0 -133.42 623.19zm942.87 349.25l597.16 0 32.55 -152.03 -420.47 0 175.63 -820.42 -176.69 0 -208.18 972.45zm861.49 0l176.7 0 175.63 -820.41 319.11 0 32.54 -152.04 -814.91 0 -32.55 152.04 319.11 0 -175.63 820.41zm624.56 0l176.69 0 208.18 -972.45 -176.7 0 -208.17 972.45zm393.09 0l176.68 0 157.5 -543.74c4.43,-16.44 8.72,-33.33 12.95,-50.91 4,-17.58 7.5,-34.02 10.78,-49.31 3.03,-15.29 5.68,-27.62 7.5,-37.21 1.76,-9.35 2.62,-14.39 2.66,-14.6l2.75 0c-0.09,0.45 0.6,5.7 1.65,15.74 1.24,10.28 2.78,23.3 4.61,39.27 1.88,15.74 4.02,32.41 6.51,49.52 2.67,17.35 5.24,33.11 8.11,47.49l75.5 376.64 154.76 0 238.15 -376.64c9.01,-14.38 18.32,-30.14 28.16,-47.26 9.59,-17.12 18.82,-33.55 27.16,-49.08 8.63,-15.74 15.47,-28.53 20.82,-38.58 5.39,-10.27 8.11,-15.52 8.17,-15.75l2.75 0c-0.05,0.24 -1.31,5.02 -3.56,14.38 -2.05,9.59 -4.87,21.7 -8.31,36.75 -3.22,15.08 -6.74,31.51 -10.01,48.87 -3.48,17.34 -6.41,34.23 -9.02,50.67l-75.32 543.74 175.32 0 130.11 -972.45 -189.01 0 -293.31 480.75c-8.6,14.61 -17.63,30.14 -26.64,46.58 -9.17,16.2 -17.52,31.71 -25.44,46.32 -7.87,14.38 -14.07,26.25 -18.99,35.39 -4.69,9.13 -7.32,13.92 -7.36,14.15l-2.74 0c0.04,-0.24 -0.53,-5.02 -1.56,-14.15 -1,-9.14 -2.56,-21.01 -4.28,-35.39 -1.66,-14.61 -3.82,-30.12 -6.07,-46.32 -2.17,-16.44 -4.56,-31.97 -6.91,-46.58l-87.46 -480.75 -189.02 0 -287.61 972.45zm1232.65 0l604.01 0 32.55 -152.03 -427.31 0 56 -261.6 327.33 0 32.55 -152.04 -327.33 0 54.53 -254.74 405.41 0 32.55 -152.04 -582.11 0 -208.18 972.45zm787.53 0l331.46 0c75.36,-0.24 145.75,-11.19 211.14,-33.1 65.42,-21.91 124.26,-53.64 176.84,-95.64 52.37,-42.01 96.59,-92.9 132.78,-153.18 36.2,-60.26 62.71,-128.74 79.41,-205.67 16.25,-76.93 19,-145.18 8.56,-205.21 -10.43,-60.04 -32.91,-110.72 -67.39,-152.26 -34.7,-41.55 -79.95,-73.28 -136.08,-94.74 -56.07,-21.68 -121.76,-32.64 -197.09,-32.64l-331.45 0 -208.18 972.45zm209.25 -152.03l143.08 -668.38 145.17 0c48.86,0 91.35,7.31 128.05,21.46 36.39,14.38 65.87,35.6 88.41,63.68 22.23,28.32 36.72,63.01 43.17,104.32 6.45,41.32 3.72,89.26 -7.65,143.36 -15.86,73.05 -42.52,134.68 -79.44,184.45 -36.9,49.77 -82.38,87.42 -135.98,112.76 -53.64,25.57 -113.44,38.36 -179.65,38.36l-145.16 0zm802.91 152.03l176.7 0 208.18 -972.45 -176.7 0 -208.18 972.45zm461.67 -493.07c-12.08,57.53 -15.5,111.85 -10.01,163 5.27,51.13 18.57,97.69 39.66,139.93 21.09,42.23 49.06,78.99 84.05,109.57 34.95,30.83 75.93,54.79 123.04,71.45 47.29,16.88 99.37,25.33 156.84,25.57 57.58,-0.24 113.47,-8.69 167.76,-25.57 54.26,-16.66 105.5,-40.63 153.64,-71.45 48.11,-30.58 91.8,-67.33 130.98,-109.57 39.17,-42.23 72.44,-88.79 99.59,-139.93 27.38,-51.14 47.24,-105.47 59.77,-163 11.76,-55.93 14.82,-108.65 9.03,-158.42 -5.54,-49.76 -19.11,-95.17 -40.43,-136.27 -21.35,-41.09 -49.56,-76.7 -84.71,-106.61 -35.09,-30.12 -76.26,-53.19 -123.44,-69.62 -47.14,-16.44 -99.49,-24.66 -156.97,-24.89 -57.57,0.24 -113.21,8.46 -167.63,24.89 -54.18,16.43 -105.23,39.5 -153.24,69.62 -47.95,29.91 -91.41,65.52 -130.32,106.61 -38.95,41.1 -71.96,86.51 -98.81,136.27 -27.1,49.78 -46.59,102.5 -58.8,158.42zm182.16 0c10.54,-48.16 28.51,-92.68 53.6,-133.07 25.13,-40.65 55.54,-76.02 91.15,-105.93 35.44,-30.12 74.45,-53.42 116.82,-70.07 42.08,-16.44 85.67,-24.88 130.46,-25.12 44.69,0.24 84.66,8.68 119.95,25.12 35.01,16.65 64.03,39.95 86.8,70.07 22.82,29.91 38.07,65.28 45.59,105.93 7.78,40.39 6.69,84.91 -3.37,133.07 -10.99,50.22 -29.36,96.56 -54.84,138.8 -25.23,42.22 -55.95,78.98 -91.85,110.26 -35.86,31.03 -75.11,55.46 -117.35,72.59 -42.52,17.35 -86.14,26.01 -130.95,26.25 -44.68,-0.24 -84.6,-8.9 -119.47,-26.25 -35.14,-17.14 -63.92,-41.56 -86.27,-72.59 -22.52,-31.28 -37.48,-68.03 -44.88,-110.26 -7.4,-42.23 -5.9,-88.58 4.61,-138.8zm847.98 376.65c-0.1,0.45 3.71,5.02 11.17,13.93 7.51,8.68 19.07,19.63 34.51,32.87 15.7,13.01 35.7,26.25 59.84,39.27 24.34,13.24 53.05,24.19 86.56,32.87 33.47,8.91 71.76,13.46 115.03,13.93 50.74,-0.24 97.55,-7.76 140.49,-22.83 42.9,-14.83 80.84,-35.38 113.85,-61.63 33.02,-26.26 60.47,-56.39 82.18,-90.63 21.47,-34.24 36.6,-70.77 44.96,-109.79 8.03,-38.59 8.65,-72.38 2.01,-101.12 -6.61,-28.77 -18.62,-53.65 -35.83,-74.65 -17.18,-21 -37.69,-39.26 -61.49,-55.01 -23.84,-15.52 -48.71,-29.44 -75.11,-41.55 -26.36,-12.33 -51.66,-24.19 -76.42,-35.38 -24.78,-11.18 -46.66,-23.06 -65.69,-35.39 -19.05,-12.33 -33.38,-26.47 -42.8,-42.21 -9.4,-15.76 -12.06,-34.25 -7.7,-55.71 5.16,-23.05 16.1,-43.15 32.63,-60.71 16.74,-17.34 37.02,-31.04 61.26,-40.86 24,-9.82 49.92,-14.6 77.58,-14.84 24.38,0.24 46.81,3.2 67.25,8.9 20.52,5.48 38.65,12.56 54.65,21.01 16.04,8.22 29.76,16.65 40.73,25.11 11.21,8.44 19.78,15.29 25.4,21.01 5.87,5.7 8.89,8.66 8.83,8.9l107.49 -143.81c0.06,-0.24 -3.05,-3.89 -9.52,-10.97 -6.3,-6.85 -16.08,-15.52 -29.64,-25.79 -13.31,-10.27 -30.51,-20.55 -51.6,-30.82 -21.09,-10.27 -46.44,-18.72 -75.75,-25.8 -29.35,-6.85 -63.28,-10.5 -101.56,-10.74 -46.85,0.24 -91.5,7.31 -133.98,21.25 -42.75,14.14 -81.19,33.78 -116.05,59.11 -34.95,25.57 -63.9,55.25 -87.65,89.48 -23.55,34.24 -39.79,71.68 -48.69,112.31 -7.76,37.21 -8.07,69.63 -1.25,97.48 7,28.09 19.17,52.28 36.4,73.05 17.47,20.76 37.98,39.03 61.79,54.78 23.79,15.76 48.84,29.92 75.08,42.69 26.3,12.56 51.74,24.88 76.37,36.75 24.66,11.65 46.63,24.21 65.53,37.21 19.18,12.78 33.18,27.39 42.67,43.83 9.32,16.2 11.87,35.15 7.51,56.61 -5.9,26.47 -17.44,48.38 -34.18,65.74 -16.76,17.58 -36.67,30.58 -59.98,39.26 -23.04,8.46 -47.02,12.78 -72.13,12.78 -27.34,-0.22 -52.59,-3.88 -75.55,-10.72 -22.96,-6.85 -43.3,-15.3 -61.23,-25.33 -17.89,-10.28 -33.09,-20.32 -45.5,-30.59 -12.46,-10.05 -21.84,-18.49 -28.36,-25.35 -6.52,-6.85 -9.85,-10.49 -9.8,-10.73l-124.32 132.85z"/>
  <g id="_2125610309280">
   <path class="fil6" d="M9524.99 880.57l426.64 0c126.06,0 265.71,13.7 381,68.13 120.75,57.02 195.8,160.78 235.08,286.59 46.13,147.77 28.15,321.34 -2.87,470.41 -25.84,124.21 -66.48,245.61 -127.41,357.17 -52,95.21 -116.98,186.3 -199.47,257.53 -72.54,62.65 -155.2,110.75 -248.06,135.92 -90.49,24.53 -187.32,32.13 -280.78,32.13l-1743.35 0 -36.34 -280.72 -58.41 280.72 -571.57 0 334.57 -1607.89 530.53 0c67.91,0 142.14,1.49 209.07,13.52 69.77,12.52 131.53,45.53 184.59,91.99 20.98,18.37 39.2,38.7 54.86,60.64l34.57 -166.15 877.35 0zm-104.31 501.26l-305.77 0 -7.88 37.84 305.79 0 7.86 -37.84zm-112.39 540.12l-305.78 0 -11.55 55.55 305.78 0 11.55 -55.55zm-866.5 -52.11l10.07 -48.41c-5.75,4.49 -11.6,8.9 -17.57,13.21l7.49 35.2zm-337.82 -501.02l-19.62 94.32c23.43,-12.68 31.51,-39.33 39.16,-76.07 0.85,-4.14 2.15,-11.14 2.91,-17.99 -5.99,-0.25 -11.68,-0.27 -15.88,-0.27l-6.58 0zm1887.04 18.98l-114.12 548.44c14.54,-17.81 27.17,-38.52 36.19,-54.92 38.11,-69.29 61.67,-166.84 77.66,-243.72 11.87,-57.04 28.59,-150.73 17.42,-208.77 -1.7,-8.89 -6.4,-29.34 -11.95,-39.27 -1.55,-0.63 -3.31,-1.21 -5.21,-1.75zm-3965.31 578.01l551.74 -1085.23 504.98 0 124.61 1607.89 -578.96 0 -9.08 -275.9 -155.86 0 -123.2 275.9 -1134.91 0 334.57 -1607.89 571.57 0 -225.81 1085.23 140.35 0z"/>
  </g>
  <path class="fil7" d="M5650.27 1016.64l293.61 0 -225.81 1085.22 430.55 0 -52.12 250.52 -724.17 0 277.94 -1335.74zm1010.63 0l295.6 0 103.52 1335.74 -300.29 0 -9.07 -275.89 -375.78 0 -123.2 275.89 -269.89 0 679.1 -1335.74zm81.67 830.7l-20.87 -545.12 -243.34 545.12 264.21 0zm1002.11 -830.7l419.87 0c81.5,0 143.19,3.67 185.02,11.36 41.88,7.35 81.41,27.72 119.02,60.46 37.55,33.06 62.9,78.16 76.07,135.27 13.16,57.13 12.58,120.92 -2.22,192.07 -34.75,167 -122.01,284.59 -261.37,352.38l124.29 584.21 -319.98 0 -68.42 -528.42 -146.63 0 -109.96 528.42 -293.61 0 277.94 -1335.74zm248.64 216.1l-77.98 374.76 129.27 0c114.56,0 185.36,-64.13 212.12,-192.72 9.17,-44.1 8.4,-80.49 -2.73,-108.89 -11.13,-28.4 -26.81,-47.76 -47.09,-57.79 -20.64,-10.01 -52.6,-15.36 -96.35,-15.36l-117.23 0zm764.98 -216.1l812.35 0 -47.68 229.13 -518.74 0 -64.51 309.97 403.15 0 -47.88 230.13 -403.15 0 -68.18 327.69 518.74 0 -49.7 238.81 -812.35 0 277.94 -1335.74zm877.35 0l315.98 0c136.95,0 244.71,18.37 322.9,55.11 78.14,37.07 132.5,104.89 163.29,204.09 31.14,99.21 28.9,233.48 -6.19,402.16 -25.02,120.25 -62.9,226.8 -113.61,319.66 -50.73,92.86 -107.12,166.35 -169,219.78 -61.88,53.45 -126.79,89.19 -194.71,107.56 -67.63,18.37 -149.33,27.38 -245.19,27.38l-351.41 0 277.94 -1335.74zm245.94 229.13l-182.46 876.82 49.77 0c67.82,0 123.35,-13.36 165.85,-39.42 42.5,-26.06 81.68,-71.49 117.55,-136.29 35.59,-65.13 66.07,-158.66 91.65,-281.58 23.56,-113.24 29.74,-200.74 17.82,-262.2 -11.67,-61.13 -33.72,-102.88 -65.94,-124.59 -32.15,-22.04 -80.36,-32.73 -144.5,-32.73l-49.76 0z"/>
 </g>
</svg>
