<svg id="Capa_1" data-name="Capa 1" xmlns="http://www.w3.org/2000/svg" xmlns:xlink="http://www.w3.org/1999/xlink" viewBox="0 0 467.76 117.08"><defs><style>.cls-1{fill:none;}.cls-2{fill:#4d4d4d;}.cls-3,.cls-8{fill:red;}.cls-4,.cls-6{fill:#666;}.cls-5,.cls-9{fill:#fefefe;}.cls-5{stroke:gray;stroke-miterlimit:22.93;stroke-width:1.5px;}.cls-6,.cls-8{fill-rule:evenodd;}.cls-7{clip-path:url(#clip-path);}</style><clipPath id="clip-path"><path class="cls-1" d="M10.3,54.3,57,7.61a6,6,0,0,1,8.42,0L112.1,54.3a6,6,0,0,1,0,8.42L65.41,109.41a6,6,0,0,1-8.42,0L10.3,62.72a6,6,0,0,1,0-8.42Z"/></clipPath></defs><title>icono-noticias</title><g id="Capa_1-2" data-name="Capa_1"><g id="_2125616466256" data-name=" 2125616466256"><path class="cls-2" d="M159.11,48.85l-9.56,42.22h-8.18l-5.69-16.23a53.94,53.94,0,0,1-2.78-10.53c0,.63,0,1.11-.07,1.47a35.35,35.35,0,0,1-.78,4.59l-4.7,20.7H118.4L128,48.85h9.9l3.23,9.77a119.2,119.2,0,0,1,4.23,15c0-.83,0-1.47.07-1.87a59.79,59.79,0,0,1,1.29-6.85l3.64-16Zm14.1,43.3a14,14,0,0,1-10.89-4.91q-4.4-4.89-3.64-14a32.13,32.13,0,0,1,6.81-18q6-7.41,14.59-7.41A13.08,13.08,0,0,1,191,53q4,5.17,3.33,13.56a33,33,0,0,1-6.75,18.17q-5.88,7.47-14.37,7.47Zm.87-9.82a5.13,5.13,0,0,0,4.51-2.77,29.57,29.57,0,0,0,3-8.13A58,58,0,0,0,183,64.18a7.59,7.59,0,0,0-.88-4.92,3.76,3.76,0,0,0-3.28-1.67q-4.07,0-6.26,6.59A50.53,50.53,0,0,0,170,75.86C169.63,80.17,171,82.33,174.08,82.33ZM216,58.47l-7.4,32.6H198l7.4-32.6h-7.88l2.21-9.68h26.63l-2.19,9.68Zm24.35-9.62L230.8,91.07H220.36l9.56-42.22Zm21.18,25.89,9.75,1.45a27.68,27.68,0,0,1-6.83,11.35A15.13,15.13,0,0,1,253.55,92,11.93,11.93,0,0,1,243,86.56q-3.63-5.39-2.95-13.85a32.63,32.63,0,0,1,6.45-17.29Q252.14,47.9,261,47.9a12.07,12.07,0,0,1,10,4.51q3.6,4.5,3.08,11.91l-10.43.86a13.23,13.23,0,0,0-.57-5.8,3.15,3.15,0,0,0-3.19-1.92q-4.06,0-6.11,6.95a58.72,58.72,0,0,0-2.37,10.93c-.35,4.33.92,6.49,3.83,6.49a4.66,4.66,0,0,0,3.63-1.67,16.44,16.44,0,0,0,2.73-5.42Zm30.53-25.89L282.5,91.07H272.06l9.56-42.22Zm17.17,33.61h-10l-4.06,8.61h-9.11l20.45-42.22h11.59l2.19,42.22H309.51l-.26-8.61Zm-.05-8.73-.41-12.23L303,73.73Zm50.44-15L350,61.45a4.13,4.13,0,0,0-1.78-3,5.78,5.78,0,0,0-3.46-1.08q-3.63,0-3.86,2.77a2.21,2.21,0,0,0,.39,1.54A7.15,7.15,0,0,0,344,63.32l5.64,2.39a12.31,12.31,0,0,1,4,2.73,9.65,9.65,0,0,1,2.5,4,11.76,11.76,0,0,1,.49,4.58,15.23,15.23,0,0,1-5.23,10.56,17.38,17.38,0,0,1-12,4.17,18.77,18.77,0,0,1-10.63-2.91,13.76,13.76,0,0,1-5.75-8.88l10.78-2.39q1,4.5,6.4,4.5a5,5,0,0,0,3.33-.94,3.15,3.15,0,0,0,1.18-2.15,2.25,2.25,0,0,0-.28-1.35,2.5,2.5,0,0,0-.76-.86c-.28-.17-1.63-.78-4-1.81a50,50,0,0,1-6.8-3.35,8.59,8.59,0,0,1-3.07-3.73,11.42,11.42,0,0,1-.88-5.82,15.13,15.13,0,0,1,4.49-9.79c2.68-2.66,6.57-4,11.64-4A16.21,16.21,0,0,1,354.78,51a11.88,11.88,0,0,1,4.86,7.66Z"/><path class="cls-3" d="M137.28.91H147l-7.44,35.74h14.18L152,44.9H128.13l9.15-44Zm33.28,0h9.74l3.41,44h-9.89l-.3-9.08H161.14l-4,9.08H148.2l22.36-44Zm2.69,27.36-.68-17.95-8,18Zm33-27.36h13.82a37,37,0,0,1,6.1.37,8.21,8.21,0,0,1,6.42,6.45,14.57,14.57,0,0,1-.07,6.33q-1.72,8.25-8.61,11.6L228,44.9H217.48l-2.26-17.4h-4.83l-3.62,17.4H197.1l9.16-44ZM214.44,8l-2.56,12.34h4.25q5.67,0,7-6.35a6.32,6.32,0,0,0-.09-3.58,3.36,3.36,0,0,0-1.55-1.91,7.61,7.61,0,0,0-3.17-.5ZM239.64.91h26.75l-1.57,7.55H247.74l-2.13,10.21h13.28l-1.58,7.57H244L241.79,37h17.09l-1.64,7.86H230.48l9.16-44Zm28.89,0h10.41q6.76,0,10.63,1.82A10.3,10.3,0,0,1,295,9.45c1,3.26.95,7.69-.2,13.24A38.24,38.24,0,0,1,291,33.22a25.71,25.71,0,0,1-5.57,7.24A16.26,16.26,0,0,1,279,44a31,31,0,0,1-8.08.9H259.38l9.15-44Zm8.1,7.55-6,28.87h1.64A10.44,10.44,0,0,0,277.73,36a11.91,11.91,0,0,0,3.87-4.49,35.14,35.14,0,0,0,3-9.28c.77-3.73,1-6.61.58-8.63s-1.11-3.39-2.17-4.1a8.45,8.45,0,0,0-4.76-1.08Z"/><path class="cls-3" d="M362.61,92.09a4.06,4.06,0,0,1-3.35-1.47,4.43,4.43,0,0,1-.87-3.65,5.79,5.79,0,0,1,2-3.64,5.87,5.87,0,0,1,3.89-1.42,4.21,4.21,0,0,1,3.43,1.44,4.39,4.39,0,0,1,.85,3.62,6,6,0,0,1-2,3.69A5.87,5.87,0,0,1,362.61,92.09Zm19.15-37.36a4,4,0,0,1-3.37-1.46,4.38,4.38,0,0,1-.85-3.59,5.77,5.77,0,0,1,5.77-5,4.18,4.18,0,0,1,3.4,1.39,4.26,4.26,0,0,1,.84,3.58,6,6,0,0,1-1.95,3.64,5.64,5.64,0,0,1-3.84,1.41ZM380.4,91.32h-8.68l4.87-31.59h8.68L380.4,91.32Zm32.11,0h-8.66l2.71-17.55c.76-4.9-.43-7.34-3.54-7.34a5.27,5.27,0,0,0-4,1.94,9.21,9.21,0,0,0-2.22,4.93l-2.79,18h-8.68l4.88-31.59h8.68l-.77,5h.11q4-5.78,9.94-5.77,9.34,0,7.34,13ZM441.43,52a7.26,7.26,0,0,0-3.1-.74c-2.79,0-4.44,1.69-5,5.09l-.51,3.36h6.42l-1.11,7.19h-6.42L428,91.32h-8.66l3.76-24.4h-4.73l1.11-7.19h4.73l.61-3.92a14.2,14.2,0,0,1,4.48-8.69,12.93,12.93,0,0,1,9-3.31,12.63,12.63,0,0,1,4.3.62L441.43,52Zm8.05,40.07q-7,0-10.38-4.42t-2.17-12c.81-5.22,2.83-9.32,6.07-12.26A17.15,17.15,0,0,1,455,59c4.67,0,8.12,1.48,10.32,4.43s2.93,6.85,2.18,11.7q-1.22,7.88-6,12.44a16.73,16.73,0,0,1-12,4.56Zm4.19-25.66a6.55,6.55,0,0,0-5.15,2.37,13.14,13.14,0,0,0-2.75,6.73q-1.41,9.09,5.15,9.09c4.15,0,6.72-3.11,7.68-9.34q1.36-8.85-4.93-8.85Z"/><path class="cls-4" d="M125.78,115.75H114.16l4-19.37h11.17l-.75,3.55h-6.8l-.9,4.31h6.33l-.74,3.54h-6.33l-.93,4.43h7.26Zm6,0h-4.26l4.28-20.47h4.26Zm15.81-16a2,2,0,0,1-1.63-.64,1.73,1.73,0,0,1-.37-1.57,2.62,2.62,0,0,1,1-1.57,3.05,3.05,0,0,1,1.89-.61,2.12,2.12,0,0,1,1.66.61,1.7,1.7,0,0,1,.35,1.57,2.65,2.65,0,0,1-1,1.59,3.1,3.1,0,0,1-1.91.62Zm-1.24,16H142.1L145,101.92h4.27Zm16,0h-4.25l1.6-7.69q.67-3.21-1.62-3.21a2.81,2.81,0,0,0-2,.85,4,4,0,0,0-1.17,2.16l-1.65,7.89H149l2.89-13.83h4.26l-.46,2.19h.06a6.2,6.2,0,0,1,5-2.53q4.59,0,3.4,5.7l-1.77,8.47Zm10.85-.16a7.16,7.16,0,0,1-3,.49q-4.5,0-3.53-4.68l1.32-6.33h-2.24l.66-3.15h2.24l.63-3,4.5-1.22-.87,4.2h3.1l-.66,3.15h-3.1l-1.17,5.59q-.45,2.16,1.26,2.16a3.3,3.3,0,0,0,1.48-.4l-.66,3.17Zm14.95-5.54h-9c-.28,2,.78,3,3.16,3a8.6,8.6,0,0,0,4.24-1.08l-.64,3.08a12,12,0,0,1-5.2,1c-2.23,0-3.84-.61-4.81-1.85s-1.23-3-.77-5.18a9.33,9.33,0,0,1,3.14-5.46,8.17,8.17,0,0,1,5.34-2c2,0,3.45.6,4.3,1.8a6,6,0,0,1,.64,4.87l-.38,1.8Zm-3.41-2.62c.42-2-.18-3-1.78-3a2.83,2.83,0,0,0-1.95.85,5,5,0,0,0-1.36,2.12Zm14.94-1.66a3.21,3.21,0,0,0-1.71-.42,3.25,3.25,0,0,0-2.39,1,5.52,5.52,0,0,0-1.36,2.77l-1.38,6.61h-4.26l2.89-13.83h4.26l-.54,2.57h.06a4.77,4.77,0,0,1,4.23-2.81,2.46,2.46,0,0,1,1,.16l-.82,3.93Zm4.59-6a2,2,0,0,1-1.63-.64,1.73,1.73,0,0,1-.36-1.57,2.54,2.54,0,0,1,1-1.57,3,3,0,0,1,1.89-.61,2.11,2.11,0,0,1,1.65.61,1.67,1.67,0,0,1,.35,1.57,2.61,2.61,0,0,1-1,1.59,3.08,3.08,0,0,1-1.91.62Zm-1.24,16h-4.26l2.89-13.83H206Zm9.19.33c-2.31,0-4-.64-5-1.93s-1.34-3.05-.88-5.26a8.87,8.87,0,0,1,3.17-5.37,9.35,9.35,0,0,1,6-1.94c2.29,0,4,.65,5,1.94a5.86,5.86,0,0,1,.89,5.12,9.2,9.2,0,0,1-3.16,5.45,9.05,9.05,0,0,1-5.94,2Zm2.46-11.23a3.53,3.53,0,0,0-2.57,1,5.64,5.64,0,0,0-1.46,2.94c-.55,2.66.24,4,2.39,4s3.35-1.37,3.92-4.09-.22-3.88-2.29-3.88Zm18.11.92a3.45,3.45,0,0,0-4.1.6,5.44,5.44,0,0,0-1.36,2.77L226,115.75h-4.27l2.89-13.83h4.27l-.54,2.57h.06c1.07-1.88,2.47-2.81,4.23-2.81a2.46,2.46,0,0,1,1,.16l-.82,3.93Zm15,9.82a7.16,7.16,0,0,1-3,.49q-4.5,0-3.53-4.68l1.32-6.33h-2.24l.66-3.15h2.24l.62-3,4.51-1.22-.87,4.2h3.1l-.66,3.15h-3.1l-1.17,5.59q-.45,2.16,1.26,2.16a3.3,3.3,0,0,0,1.48-.4l-.66,3.17Zm12.95.16h-4l.42-2h-.06a5.7,5.7,0,0,1-4.61,2.32,3.15,3.15,0,0,1-3.44-4.18c.56-2.68,2.48-4.23,5.74-4.65l3.86-.49c.31-1.52-.35-2.27-2-2.27a9.93,9.93,0,0,0-5,1.47l.67-3.22a13.58,13.58,0,0,1,2.61-.81,14,14,0,0,1,2.89-.35q5.91,0,4.68,5.9l-1.73,8.27Zm-2.84-5.62.2-.93-2.58.32c-1.43.18-2.25.81-2.47,1.88a1.3,1.3,0,0,0,.25,1.19,1.63,1.63,0,0,0,1.28.47,3.12,3.12,0,0,0,2.13-.83,3.7,3.7,0,0,0,1.19-2.1Zm27.25,5.62h-4.26l1.65-7.89c.42-2-.11-3-1.58-3a2.59,2.59,0,0,0-1.91.9A4.7,4.7,0,0,0,278,108l-1.62,7.74h-4.26l1.66-8c.41-2-.11-2.93-1.56-2.93a2.63,2.63,0,0,0-1.93.86,4.77,4.77,0,0,0-1.15,2.35l-1.6,7.69h-4.27l2.89-13.83h4.27l-.45,2.16H270a6.85,6.85,0,0,1,2.24-1.8,5.82,5.82,0,0,1,2.75-.7q2.94,0,3.48,2.58a6.46,6.46,0,0,1,5.18-2.58c3,0,4.12,1.86,3.35,5.57Zm7.11-1.61h-.06l-.33,1.61h-4.27l4.28-20.47h4.27L294.36,104h.06a6.4,6.4,0,0,1,5-2.42,3.94,3.94,0,0,1,3.73,1.84,7.08,7.08,0,0,1,.4,5A10.58,10.58,0,0,1,300.7,114a6.83,6.83,0,0,1-4.95,2.09,3.43,3.43,0,0,1-3.45-1.94Zm1.1-5.83-.3,1.41a2.77,2.77,0,0,0,.31,2.22,2,2,0,0,0,1.79.88,3.28,3.28,0,0,0,2.49-1.13,6.63,6.63,0,0,0,1.48-3.19,4,4,0,0,0-.18-2.69,2,2,0,0,0-1.9-1,3.38,3.38,0,0,0-2.33,1,4.55,4.55,0,0,0-1.36,2.5Zm16-8.58a2,2,0,0,1-1.64-.64,1.73,1.73,0,0,1-.36-1.57,2.58,2.58,0,0,1,1-1.57,3.1,3.1,0,0,1,1.89-.61,2.13,2.13,0,0,1,1.65.61,1.7,1.7,0,0,1,.36,1.57,2.67,2.67,0,0,1-1,1.59,3.05,3.05,0,0,1-1.9.62Zm-1.25,16h-4.26l2.89-13.83H311l-2.89,13.83Zm16.29-5.7h-9c-.28,2,.78,3,3.16,3A8.65,8.65,0,0,0,322.8,112l-.65,3.08a12,12,0,0,1-5.19,1c-2.23,0-3.84-.61-4.81-1.85s-1.23-3-.77-5.18a9.28,9.28,0,0,1,3.14-5.46,8.15,8.15,0,0,1,5.33-2q3,0,4.31,1.8a6,6,0,0,1,.63,4.87l-.37,1.8ZM321,107.43c.41-2-.18-3-1.78-3a2.86,2.86,0,0,0-2,.85,4.93,4.93,0,0,0-1.35,2.12Zm4.7-12.06-5.14,4.36H317.5l4.42-4.36Zm12.49,20.38h-4.26l1.61-7.69c.45-2.14-.1-3.21-1.63-3.21a2.8,2.8,0,0,0-2,.85,4,4,0,0,0-1.17,2.16l-1.65,7.89h-4.27l2.89-13.83H332l-.46,2.19h.06a6.19,6.19,0,0,1,5-2.53q4.59,0,3.4,5.7l-1.77,8.47Zm23.69-5.7h-9c-.27,2,.78,3,3.17,3a8.59,8.59,0,0,0,4.23-1.08l-.64,3.08a12,12,0,0,1-5.2,1c-2.23,0-3.83-.61-4.81-1.85s-1.23-3-.77-5.18a9.29,9.29,0,0,1,3.15-5.46,8.13,8.13,0,0,1,5.33-2c2,0,3.45.6,4.3,1.8a6,6,0,0,1,.64,4.87l-.38,1.8Zm-3.4-2.62c.41-2-.19-3-1.79-3a2.85,2.85,0,0,0-1.95.85,5,5,0,0,0-1.36,2.12Zm3,7.95.72-3.45a7.47,7.47,0,0,0,1.9.94,6.26,6.26,0,0,0,1.92.31,4.67,4.67,0,0,0,1.85-.31,1.32,1.32,0,0,0,.85-.94.73.73,0,0,0-.15-.68,1.94,1.94,0,0,0-.67-.47,6.82,6.82,0,0,0-.94-.37q-.53-.16-1-.36a8,8,0,0,1-1.31-.67,3.05,3.05,0,0,1-.88-.83,2.54,2.54,0,0,1-.42-1.09,4.27,4.27,0,0,1,.08-1.48,4.56,4.56,0,0,1,.93-2,5.64,5.64,0,0,1,1.63-1.36,7.66,7.66,0,0,1,2.1-.79,11.19,11.19,0,0,1,2.31-.25,11.42,11.42,0,0,1,1.84.15,11.79,11.79,0,0,1,1.78.41l-.69,3.29a5.44,5.44,0,0,0-1.59-.71,7.11,7.11,0,0,0-1.77-.23,4.11,4.11,0,0,0-.8.07,3,3,0,0,0-.71.22,1.51,1.51,0,0,0-.52.36,1,1,0,0,0-.26.51.81.81,0,0,0,.1.64,1.57,1.57,0,0,0,.54.47,4.94,4.94,0,0,0,.8.35l.89.32a9.61,9.61,0,0,1,1.4.65,3.46,3.46,0,0,1,1,.82A2.43,2.43,0,0,1,373,110a3.73,3.73,0,0,1,0,1.51,4.64,4.64,0,0,1-1,2.1,5.75,5.75,0,0,1-1.71,1.42,7.73,7.73,0,0,1-2.21.79,11.68,11.68,0,0,1-2.44.25,11.08,11.08,0,0,1-4.08-.7Zm33.05.37h-4.25l1.61-7.69q.66-3.21-1.63-3.21a2.82,2.82,0,0,0-2,.85,4.09,4.09,0,0,0-1.17,2.16l-1.65,7.89h-4.26l2.89-13.83h4.26l-.45,2.19h.05a6.2,6.2,0,0,1,5-2.53c3.06,0,4.2,1.9,3.4,5.7l-1.77,8.47Zm9,.33c-2.3,0-4-.64-5-1.93a6,6,0,0,1-.88-5.26,8.87,8.87,0,0,1,3.17-5.37,9.35,9.35,0,0,1,6-1.94c2.29,0,4,.65,5,1.94a5.89,5.89,0,0,1,.89,5.12,9.2,9.2,0,0,1-3.16,5.45,9.06,9.06,0,0,1-5.95,2ZM406,104.85a3.51,3.51,0,0,0-2.56,1,5.68,5.68,0,0,0-1.46,2.94c-.55,2.66.24,4,2.39,4s3.35-1.37,3.92-4.09-.23-3.88-2.29-3.88Zm15.4,10.74a7.08,7.08,0,0,1-2.95.49q-4.51,0-3.53-4.68l1.32-6.33H414l.66-3.15h2.24l.62-3L422,97.72l-.88,4.2h3.11l-.66,3.15h-3.11l-1.17,5.59c-.3,1.44.13,2.16,1.27,2.16a3.26,3.26,0,0,0,1.47-.4l-.66,3.17Zm7-15.86a2,2,0,0,1-1.64-.64,1.73,1.73,0,0,1-.36-1.57,2.58,2.58,0,0,1,1-1.57,3.1,3.1,0,0,1,1.89-.61,2.17,2.17,0,0,1,1.66.61,1.73,1.73,0,0,1,.35,1.57,2.62,2.62,0,0,1-1,1.59,3.05,3.05,0,0,1-1.9.62Zm-1.25,16h-4.26l2.89-13.83H430Zm13.26-.5a9.52,9.52,0,0,1-4.35.83,5.74,5.74,0,0,1-4.75-1.93,5.64,5.64,0,0,1-.93-5,9.25,9.25,0,0,1,3.27-5.55,9.4,9.4,0,0,1,6.08-2,6.44,6.44,0,0,1,3.4.65l-.76,3.62a4,4,0,0,0-2.77-1,4.75,4.75,0,0,0-3.14,1.08,5,5,0,0,0-1.69,3,3.42,3.42,0,0,0,.42,2.88,3.08,3.08,0,0,0,2.6,1,6.71,6.71,0,0,0,3.33-1l-.71,3.43Zm7.27-15.52a2,2,0,0,1-1.63-.64,1.73,1.73,0,0,1-.36-1.57,2.54,2.54,0,0,1,1-1.57,3.1,3.1,0,0,1,1.89-.61,2.14,2.14,0,0,1,1.65.61,1.7,1.7,0,0,1,.36,1.57,2.67,2.67,0,0,1-1,1.59,3.08,3.08,0,0,1-1.91.62Zm-1.24,16h-4.26L445,101.92h4.26l-2.89,13.83Zm14.18,0h-4l.41-2h-.05a5.71,5.71,0,0,1-4.61,2.32,3.14,3.14,0,0,1-3.44-4.18q.84-4,5.74-4.65l3.86-.49c.31-1.52-.35-2.27-2-2.27a9.94,9.94,0,0,0-5,1.47l.68-3.21a12.73,12.73,0,0,1,2.6-.82,14.13,14.13,0,0,1,2.89-.35c3.94,0,5.51,2,4.68,5.9l-1.72,8.27Zm-2.84-5.62.2-.93-2.58.32c-1.43.18-2.25.81-2.48,1.88a1.3,1.3,0,0,0,.26,1.2,1.64,1.64,0,0,0,1.27.46,3.17,3.17,0,0,0,2.14-.83A3.82,3.82,0,0,0,457.71,110.13Z"/></g></g><rect class="cls-5" x="17.45" y="15.55" width="86.3" height="86.3" rx="9.59" transform="translate(-23.76 60.04) rotate(-45)"/><path class="cls-6" d="M10.3,54.3,57,7.61a6,6,0,0,1,8.42,0L112.1,54.3a6,6,0,0,1,0,8.42L65.41,109.41a6,6,0,0,1-8.42,0L10.3,62.72a6,6,0,0,1,0-8.42Z"/><g class="cls-7"><path id="_1" data-name=" 1" class="cls-8" d="M61.09,32.25c36.18,0,65.51,25.88,65.51,57.81s-29.33,57.8-65.51,57.8S-4.42,122-4.42,90.06,24.91,32.25,61.09,32.25Z"/><path id="_2" data-name=" 2" class="cls-9" d="M128,90.06h-2.88l-.08-2.89-.25-2.86-.4-2.81-.56-2.77L123.16,76l-.86-2.67-1-2.61-1.15-2.56-1.27-2.49-1.41-2.43-1.54-2.36-1.66-2.28-1.78-2.21-1.9-2.13-2-2.05-2.12-2-2.22-1.87-2.33-1.78-2.42-1.68L97,43.37l-2.6-1.47-2.69-1.37-2.76-1.25-2.84-1.13-2.92-1-3-.89-3-.77L74,34.85l-3.17-.5L67.66,34l-3.26-.22-3.31-.07V30.81l3.43.07,3.4.23,3.34.38,3.29.51,3.23.66,3.17.8,3.11.92,3,1.06,3,1.18,2.89,1.31,2.8,1.42,2.71,1.53,2.63,1.65,2.53,1.75L106,46.14l2.33,2,2.21,2,2.11,2.15,2,2.24,1.88,2.32,1.74,2.4,1.62,2.49,1.49,2.55,1.34,2.63,1.21,2.7L125,72.39l.91,2.82.75,2.87.6,2.93.42,3,.26,3,.09,3.06Zm0,0a1.44,1.44,0,0,1-2.88,0ZM61.09,149.31v-2.89h0l3.31-.08,3.26-.22,3.21-.36,3.17-.5,3.1-.63,3-.76,3-.89,2.92-1,2.84-1.13,2.76-1.25,2.69-1.36,2.6-1.47,2.51-1.58,2.42-1.68,2.33-1.77,2.22-1.87,2.12-2,2-2,1.9-2.13,1.78-2.21,1.66-2.29,1.54-2.36,1.41-2.43,1.27-2.49,1.15-2.55,1-2.61.86-2.67.71-2.72.56-2.77.4-2.81.25-2.85.08-2.89H128l-.09,3-.26,3-.42,3-.6,2.92-.75,2.88-.91,2.82L124,110.49l-1.21,2.69-1.34,2.63-1.49,2.56-1.62,2.48-1.74,2.41-1.88,2.32-2,2.23L110.58,130,108.37,132,106,134l-2.43,1.86-2.53,1.76-2.63,1.64-2.71,1.54-2.8,1.42-2.89,1.3-3,1.18-3,1.06-3.11.93-3.17.79-3.23.66-3.29.52-3.34.37-3.4.23-3.43.08Zm0,0a1.45,1.45,0,0,1,0-2.89v2.89ZM-5.86,90.06H-3L-2.9,93l.25,2.85.4,2.81.56,2.77L-1,104.1l.86,2.67,1,2.61L2,111.93l1.27,2.49,1.41,2.43,1.54,2.36,1.66,2.29,1.78,2.21,1.9,2.13,2,2,2.12,2,2.22,1.87,2.33,1.77,2.42,1.68,2.51,1.58,2.6,1.47,2.68,1.36,2.77,1.25L36.09,142,39,143l3,.89,3,.76,3.1.64,3.16.49,3.22.36,3.26.22,3.31.08v2.89l-3.44-.08L54.26,149l-3.34-.37-3.29-.52-3.23-.66-3.17-.79-3.11-.93-3-1.06-3-1.18-2.89-1.3-2.8-1.42-2.71-1.54-2.63-1.64-2.53-1.76L16.14,134,13.81,132,11.59,130l-2.1-2.14-2-2.24-1.87-2.32-1.74-2.41-1.62-2.48L.77,115.81l-1.34-2.63-1.21-2.69-1.06-2.76-.9-2.82L-4.49,102l-.6-2.92-.43-3-.26-3-.08-3Zm0,0a1.44,1.44,0,0,1,1.44-1.45A1.45,1.45,0,0,1-3,90.06Zm67-59.25V33.7h0l-3.31.07L54.52,34l-3.22.36-3.16.5-3.1.63-3,.77-3,.89-2.92,1-2.84,1.13-2.77,1.25L27.8,41.9l-2.6,1.47-2.51,1.57-2.42,1.68L17.94,48.4l-2.22,1.87-2.12,2-2,2.05-1.9,2.13L7.91,58.62,6.25,60.9,4.71,63.26,3.3,65.69,2,68.18.88,70.74l-1,2.61L-1,76l-.71,2.72-.56,2.76-.4,2.81-.25,2.86L-3,90.06H-5.86L-5.78,87l.26-3,.43-3,.6-2.93.75-2.87.9-2.82,1.06-2.76,1.21-2.7L.77,64.3l1.49-2.55,1.62-2.49,1.74-2.4,1.87-2.32,2-2.24,2.1-2.15,2.22-2,2.33-2,2.43-1.86,2.53-1.75,2.63-1.65,2.71-1.53,2.8-1.42,2.89-1.31,3-1.18,3-1,3.11-.93,3.17-.8L47.63,32l3.29-.52,3.34-.38,3.39-.23,3.44-.07Zm0,0a1.45,1.45,0,0,1,0,2.89Z"/><path class="cls-8" d="M61.09,51.28c36.18,0,65.51,25.88,65.51,57.8s-29.33,57.81-65.51,57.81S-4.42,141-4.42,109.08s29.33-57.8,65.51-57.8Z"/><path id="_1_0" data-name=" 1 0" class="cls-9" d="M128,109.08h-2.88l-.08-2.89-.25-2.85-.4-2.81-.56-2.77L123.16,95l-.86-2.66-1-2.62-1.14-2.55-1.27-2.49-1.41-2.43-1.54-2.36-1.66-2.28-1.78-2.21-1.9-2.14-2-2-2.12-2-2.22-1.87-2.33-1.78L99.49,64,97,62.39l-2.6-1.47-2.69-1.36-2.76-1.25-2.84-1.13-2.92-1-3-.89-3-.76L74,53.88l-3.17-.5L67.66,53,64.4,52.8l-3.31-.07V49.84l3.43.07,3.4.23,3.34.37,3.29.52,3.23.66,3.17.79,3.11.93,3,1.06,3,1.18L92.94,57l2.8,1.42,2.71,1.54,2.63,1.65,2.53,1.75L106,65.17l2.33,2,2.21,2.05,2.11,2.15,2,2.23,1.88,2.33,1.74,2.4,1.62,2.48,1.49,2.56L122.75,86,124,88.65,125,91.41l.91,2.82.75,2.88.6,2.92.42,3,.26,3,.09,3Zm0,0a1.44,1.44,0,1,1-2.88,0ZM61.09,168.33v-2.89h0l3.31-.07,3.26-.22,3.21-.36,3.17-.5,3.1-.63,3-.76,3-.89,2.92-1,2.84-1.13,2.76-1.25,2.69-1.36,2.6-1.48,2.51-1.57,2.42-1.68,2.33-1.78,2.22-1.87,2.12-2,2-2,1.9-2.14,1.78-2.21,1.66-2.28,1.54-2.36,1.41-2.43,1.27-2.49,1.15-2.56,1-2.61.86-2.66.71-2.72.56-2.77.4-2.81.25-2.85.08-2.9H128l-.09,3.06-.26,3-.42,3-.6,2.93-.75,2.88-.91,2.82L124,129.51l-1.21,2.7-1.34,2.63-1.49,2.56-1.62,2.48-1.74,2.4-1.88,2.33-2,2.23L110.58,149l-2.21,2L106,153l-2.43,1.86-2.53,1.75-2.63,1.65-2.71,1.53-2.8,1.43-2.89,1.3-3,1.18-3,1.06-3.11.92-3.17.8-3.23.66-3.29.52-3.34.37-3.4.23-3.43.07Zm0,0a1.45,1.45,0,0,1,0-2.89v2.89ZM-5.86,109.08H-3l.08,2.9.25,2.85.4,2.81.56,2.77.71,2.72.86,2.66,1,2.61L2,131l1.27,2.49,1.41,2.43,1.54,2.36,1.66,2.28,1.78,2.21,1.9,2.14,2,2,2.12,2,2.22,1.87,2.33,1.78,2.42,1.68,2.51,1.58,2.6,1.47,2.68,1.36,2.77,1.25L36.09,161,39,162l3,.89,3,.76,3.1.63,3.16.5,3.22.36,3.26.22,3.31.07v2.89l-3.44-.07L54.26,168l-3.34-.37-3.29-.52-3.23-.66-3.17-.8-3.11-.92-3-1.06-3-1.18-2.89-1.3-2.8-1.42-2.71-1.54-2.63-1.65-2.53-1.75L16.14,153l-2.33-2-2.22-2-2.1-2.15-2-2.23-1.87-2.33-1.74-2.4L2.26,137.4.77,134.84l-1.34-2.63-1.21-2.69-1.06-2.76-.9-2.82-.75-2.88-.6-2.93-.43-3-.26-3-.08-3.06Zm0,0a1.44,1.44,0,0,1,1.44-1.44A1.45,1.45,0,0,1-3,109.08Zm67-59.24v2.89h0l-3.31.07L54.52,53l-3.22.36-3.16.5-3.1.63-3,.76-3,.89-2.92,1-2.84,1.13-2.77,1.25L27.8,60.92l-2.6,1.47L22.69,64l-2.42,1.68-2.33,1.78L15.72,69.3l-2.12,2-2,2-1.9,2.14L7.91,77.65,6.25,79.93,4.71,82.29,3.3,84.72,2,87.21.88,89.76l-1,2.62L-1,95l-.71,2.72-.56,2.77-.4,2.81-.25,2.85L-3,109.08H-5.86l.08-3,.26-3,.43-3,.6-2.93.75-2.88.9-2.82,1.06-2.76L-.57,86,.77,83.33l1.49-2.56,1.62-2.48,1.74-2.4,1.87-2.33,2-2.23,2.1-2.15,2.22-2.05,2.33-2,2.43-1.86,2.53-1.75,2.62-1.65,2.72-1.54L29.24,57l2.89-1.3,3-1.18,3-1.06,3.11-.92,3.17-.8L47.63,51l3.29-.52,3.34-.37,3.39-.23,3.44-.07Zm0,0a1.45,1.45,0,0,1,0,2.89Z"/><path class="cls-8" d="M61.09,70.55c33.86,0,61.3,25.88,61.3,57.8S95,186.16,61.09,186.16-.21,160.28-.21,128.35s27.44-57.8,61.3-57.8Z"/><path id="_1_1" data-name=" 1 1" class="cls-9" d="M123.74,128.35H121l-.07-2.89-.23-2.85-.38-2.81-.53-2.77-.66-2.72-.8-2.67-.94-2.61-1.07-2.55L115.17,104l-1.32-2.43-1.44-2.36-1.56-2.29-1.66-2.21-1.78-2.13-1.88-2-2-2-2.08-1.87-2.18-1.77L97,83.24l-2.35-1.58-2.44-1.47-2.51-1.36-2.59-1.25-2.66-1.13-2.73-1L79,74.54l-2.85-.76-2.9-.64-3-.49-3-.36-3.06-.22L61.09,72V69.1l3.21.08,3.18.23,3.12.37,3.08.52,3,.66,3,.79,2.9.93,2.84,1.06,2.77,1.18,2.7,1.3,2.62,1.42,2.54,1.54,2.46,1.64,2.37,1.76,2.27,1.86,2.18,2,2.08,2.06,2,2.14,1.86,2.24L113,95.15l1.64,2.41,1.51,2.48,1.39,2.56,1.26,2.63,1.13,2.69,1,2.76.85,2.82.7,2.88.56,2.92.4,3,.24,3,.08,3Zm0,0a1.35,1.35,0,1,1-2.7,0ZM61.09,187.6v-2.89h0l3.09-.07,3.06-.22,3-.36,3-.5,2.9-.63,2.85-.77,2.79-.89,2.73-1,2.66-1.13,2.59-1.25,2.51-1.37L94.68,175,97,173.47l2.26-1.68,2.18-1.78,2.08-1.87,2-2,1.88-2.05,1.78-2.13,1.66-2.21,1.56-2.28,1.44-2.36,1.32-2.43,1.19-2.49,1.07-2.56.94-2.61.8-2.67.66-2.72.53-2.76.38-2.81.23-2.86.07-2.89h2.7l-.08,3.06-.24,3-.4,3-.56,2.93-.7,2.87-.85,2.82-1,2.76-1.13,2.7-1.26,2.63-1.39,2.55-1.51,2.49-1.64,2.4-1.75,2.32-1.86,2.24-2,2.15-2.08,2.05-2.18,2-2.27,1.86-2.37,1.75-2.46,1.65-2.54,1.53-2.62,1.42-2.7,1.31L85.42,183,82.58,184l-2.91.93-3,.8-3,.65-3.08.52-3.12.38-3.18.23-3.21.07Zm0,0a1.45,1.45,0,0,1,0-2.89v2.89ZM-1.56,128.35H1.13l.08,2.89.23,2.86.38,2.81.52,2.77L3,142.39l.8,2.67.94,2.61,1.07,2.56L7,152.72l1.32,2.43,1.44,2.36,1.55,2.28L13,162l1.78,2.13,1.88,2.05,2,2L20.71,170l2.18,1.78,2.26,1.68L27.5,175l2.44,1.47,2.51,1.37L35,179.13l2.66,1.13,2.72,1,2.8.89,2.85.77,2.9.63,3,.5,3,.36,3.05.22,3.1.07v2.89l-3.22-.07-3.17-.23-3.13-.38-3.07-.51-3-.66-3-.8L39.6,184,36.76,183,34,181.79l-2.69-1.31-2.63-1.42-2.54-1.53-2.45-1.65-2.37-1.75L19,172.27l-2.18-2-2.08-2.05-2-2.15-1.86-2.24-1.76-2.32-1.63-2.4L6,156.66l-1.39-2.55-1.26-2.63-1.13-2.7-1-2.76L.42,143.2l-.7-2.87-.56-2.93-.4-3-.24-3-.08-3.06Zm0,0a1.39,1.39,0,0,1,1.35-1.44,1.39,1.39,0,0,1,1.34,1.44ZM61.09,69.1V72h0l-3.1.08-3.05.22-3,.36-3,.5-2.9.63-2.85.76-2.8.89-2.72,1L35,77.58l-2.59,1.25-2.51,1.36L27.5,81.66l-2.35,1.58-2.26,1.68-2.18,1.77-2.08,1.87-2,2-1.88,2L13,94.7l-1.67,2.21L9.77,99.2l-1.44,2.36L7,104l-1.19,2.49L4.75,109l-.94,2.62L3,114.31,2.34,117l-.52,2.77-.38,2.81-.23,2.85-.08,2.89H-1.56l.08-3,.24-3,.4-3,.56-2.92.7-2.88.85-2.82,1-2.76,1.13-2.69,1.26-2.63L6,100l1.51-2.48,1.64-2.41,1.75-2.32L12.8,90.6l2-2.15,2.08-2.06,2.18-2,2.27-1.86,2.37-1.75,2.45-1.65,2.55-1.54,2.62-1.42,2.7-1.3,2.77-1.18,2.84-1.06,2.9-.93,3-.79,3-.66,3.07-.52,3.13-.37,3.18-.23,3.21-.08Zm0,0a1.45,1.45,0,0,1,0,2.89Z"/><path class="cls-8" d="M61.09,89.09c30.43,0,55.1,25.88,55.1,57.81s-24.67,57.8-55.1,57.8S6,178.82,6,146.9s24.67-57.81,55.1-57.81Z"/><path id="_1_2" data-name=" 1 2" class="cls-9" d="M117.4,146.9H115l-.07-2.89-.21-2.86-.34-2.81-.47-2.76-.6-2.72-.72-2.67-.84-2.61-1-2.56-1.07-2.49-1.19-2.43-1.29-2.35-1.4-2.29-1.5-2.21-1.6-2.13L101,109.07l-1.78-2-1.87-1.87-1.95-1.78-2-1.68-2.11-1.57-2.19-1.47-2.26-1.37-2.32-1.25L82.12,95l-2.46-1-2.5-.89-2.57-.77L72,91.69l-2.66-.5-2.7-.36-2.75-.22-2.78-.07V87.65l2.89.08,2.85.22,2.81.38,2.77.52,2.72.65,2.67.8,2.61.93,2.55,1,2.49,1.18,2.43,1.31,2.35,1.42,2.29,1.53,2.2,1.65,2.13,1.75L98.9,103l1.95,2,1.87,2,1.77,2.15,1.68,2.24,1.57,2.32,1.47,2.4,1.36,2.49,1.25,2.55,1.13,2.63,1,2.7.89,2.76.76,2.82.63,2.87.5,2.93.36,3,.22,3,.07,3.06Zm0,0a1.23,1.23,0,1,1-2.42,0ZM61.09,206.15v-2.89h0l2.78-.08,2.75-.22,2.7-.36,2.66-.49,2.61-.64,2.57-.76,2.5-.89,2.46-1,2.39-1.14,2.32-1.25,2.26-1.36,2.19-1.47L93.39,192l2-1.68,1.95-1.77,1.87-1.87,1.78-2,1.69-2,1.6-2.13,1.5-2.21,1.4-2.29,1.29-2.36,1.18-2.43,1.08-2.49,1-2.55.84-2.61.72-2.67.6-2.72.47-2.77.34-2.81.21-2.85.07-2.89h2.42l-.07,3.06-.22,3-.36,3-.5,2.92-.63,2.88-.76,2.82-.89,2.76L113,170l-1.13,2.63-1.25,2.56-1.36,2.48-1.47,2.41-1.57,2.32-1.68,2.24-1.77,2.14-1.87,2.06-1.95,1.95-2.05,1.86-2.13,1.76-2.2,1.64-2.29,1.54L87.88,199l-2.43,1.3L83,201.51l-2.55,1.06-2.62.93-2.66.79-2.72.66-2.77.52-2.81.37-2.85.23-2.89.08Zm0,0a1.47,1.47,0,0,1,0-2.89v2.89ZM4.77,146.9H7.2l.07,2.89.21,2.85.34,2.81.47,2.77.6,2.72.72,2.67.84,2.61,1,2.55,1.07,2.49,1.19,2.43L15,176.05l1.4,2.29,1.5,2.21,1.59,2.13,1.69,2,1.79,2,1.87,1.87,1.95,1.77,2,1.68,2.11,1.58,2.19,1.47,2.26,1.36,2.32,1.25,2.39,1.14,2.45,1,2.51.89,2.57.76,2.61.64,2.66.49,2.7.36,2.75.22,2.78.08v2.89l-2.89-.08-2.85-.23-2.81-.37L49.77,205l-2.72-.66-2.67-.79-2.61-.93-2.55-1.06-2.49-1.18L34.3,199l-2.36-1.42-2.28-1.54-2.21-1.64-2.12-1.76-2-1.86-2-1.95-1.86-2.06-1.77-2.14L16,182.42l-1.57-2.32L13,177.69l-1.36-2.48-1.25-2.56L9.22,170l-1-2.69-.89-2.76-.76-2.82-.63-2.87L5.43,156l-.36-3-.22-3-.08-3.06Zm0,0A1.35,1.35,0,0,1,6,145.45,1.35,1.35,0,0,1,7.2,146.9ZM61.09,87.65v2.89h0l-2.78.07-2.75.22-2.7.36-2.66.5-2.61.63L45,93.09,42.51,94l-2.45,1-2.39,1.13-2.32,1.25-2.26,1.37-2.19,1.47-2.11,1.58-2,1.67-1.95,1.78-1.87,1.87-1.79,2-1.69,2.05-1.59,2.13-1.5,2.21L15,117.75l-1.29,2.35-1.19,2.43L11.41,125l-1,2.56-.84,2.61-.72,2.67-.6,2.72-.47,2.76-.34,2.81L7.27,144,7.2,146.9H4.77l.08-3.06.22-3,.36-3,.5-2.93.63-2.87.76-2.82.89-2.76,1-2.7,1.14-2.63,1.25-2.55L13,116.1l1.47-2.4L16,111.38l1.68-2.24L19.46,107l1.87-2,2-2,2-1.86,2.12-1.75,2.21-1.65L32,96.19l2.35-1.42,2.43-1.31,2.49-1.18,2.55-1,2.61-.93,2.67-.8,2.72-.65,2.77-.52L55.35,88l2.85-.22,2.89-.08Zm0,0a1.47,1.47,0,0,1,0,2.89Z"/></g><path class="cls-1" d="M10.3,54.3,57,7.61a6,6,0,0,1,8.42,0L112.1,54.3a6,6,0,0,1,0,8.42L65.41,109.41a6,6,0,0,1-8.42,0L10.3,62.72a6,6,0,0,1,0-8.42Z"/></svg>