<?xml version="1.0" encoding="UTF-8"?>
<!DOCTYPE svg PUBLIC "-//W3C//DTD SVG 1.1//EN" "http://www.w3.org/Graphics/SVG/1.1/DTD/svg11.dtd">
<!-- Creator: CorelDRAW (Versión de evaluación) -->
<svg xmlns="http://www.w3.org/2000/svg" xml:space="preserve" width="97.4684mm" height="97.4684mm" version="1.1" style="shape-rendering:geometricPrecision; text-rendering:geometricPrecision; image-rendering:optimizeQuality; fill-rule:evenodd; clip-rule:evenodd"
viewBox="0 0 9120.55 9120.55"
 xmlns:xlink="http://www.w3.org/1999/xlink"
 xmlns:xodm="http://www.corel.com/coreldraw/odm/2003">
 <defs>
  <style type="text/css">
   <![CDATA[
    .str0 {stroke:gray;stroke-width:24.75;stroke-miterlimit:22.9256}
    .fil4 {fill:none}
    .fil0 {fill:#FEFEFE}
    .fil1 {fill:#666666}
    .fil2 {fill:red}
    .fil3 {fill:#FEFEFE;fill-rule:nonzero}
   ]]>
  </style>
    <clipPath id="id0">
     <path d="M549.09 4209.47l3722.91 -3722.9c184.63,-184.63 486.72,-184.63 671.35,0l3722.9 3722.9c184.63,184.63 184.63,486.72 0,671.35l-3722.9 3722.9c-184.63,184.63 -486.72,184.63 -671.35,0l-3722.91 -3722.9c-184.62,-184.63 -184.62,-486.72 0,-671.35z"/>
    </clipPath>
 </defs>
 <g id="Capa_x0020_1">
  <metadata id="CorelCorpID_0Corel-Layer"/>
  <g id="_2125904730544">
   <rect class="fil0 str0" transform="matrix(1.74938 -1.74938 1.74938 1.74938 -305.228 4560.27)" width="2781.27" height="2781.27" rx="309.03" ry="309.03"/>
   <path class="fil1" d="M549.09 4209.47l3722.91 -3722.9c184.63,-184.63 486.72,-184.63 671.35,0l3722.9 3722.9c184.63,184.63 184.63,486.72 0,671.35l-3722.9 3722.9c-184.63,184.63 -486.72,184.63 -671.35,0l-3722.91 -3722.9c-184.62,-184.63 -184.62,-486.72 0,-671.35z"/>
   <g style="clip-path:url(#id0)">
    <g>
     <g>
      <path id="_1" class="fil2" d="M4599.06 2451.73c2884.85,0 5223.5,2063.47 5223.5,4608.95 0,2545.44 -2338.65,4608.95 -5223.5,4608.95 -2884.81,0 -5223.46,-2063.51 -5223.46,-4608.95 0,-2545.48 2338.65,-4608.95 5223.46,-4608.95z"/>
      <path id="_2" class="fil3" d="M9937.48 7060.68l-229.84 0 0 0 -6.61 -230.58 -19.6 -227.48 -32.29 -224.16 -44.64 -220.58 -56.69 -216.74 -68.44 -212.65 -79.88 -208.29 -91.01 -203.65 -101.83 -198.73 -112.34 -193.55 -122.55 -188.06 -132.45 -182.3 -142.06 -176.25 -151.31 -169.91 -160.29 -163.26 -168.94 -156.35 -177.27 -149.12 -185.28 -141.62 -192.98 -133.8 -200.34 -125.71 -207.4 -117.3 -214.12 -108.64 -220.52 -99.66 -226.61 -90.39 -232.36 -80.84 -237.8 -70.99 -242.91 -60.88 -247.71 -50.44 -252.17 -39.74 -256.32 -28.74 -260.16 -17.45 -263.7 -5.89 0 -230.46 273.9 6.11 270.38 18.14 266.5 29.88 262.28 41.33 257.72 52.48 252.85 63.35 247.61 73.92 242.06 84.21 236.15 94.21 229.93 103.91 223.36 113.32 216.48 122.45 209.25 131.28 201.68 139.85 193.79 148.11 185.54 156.1 176.99 163.78 168.06 171.19 158.81 178.32 149.22 185.16 139.29 191.7 128.99 197.96 118.36 203.92 107.39 209.59 96.04 214.95 84.39 220.02 72.33 224.78 59.96 229.22 47.23 233.37 34.15 237.16 20.75 240.65 6.98 243.77 0 0zm0 0c0,63.63 -51.46,115.23 -114.92,115.23 -63.46,0 -114.92,-51.6 -114.92,-115.23l229.84 0zm-5338.42 4724.18l0 -230.46 0 0 263.7 -5.89 260.16 -17.45 256.32 -28.74 252.17 -39.74 247.71 -50.45 242.91 -60.87 237.8 -70.99 232.36 -80.84 226.61 -90.38 220.52 -99.67 214.12 -108.64 207.4 -117.3 200.34 -125.72 192.98 -133.8 185.28 -141.62 177.27 -149.11 168.94 -156.35 160.28 -163.27 151.32 -169.91 142.06 -176.25 132.45 -182.3 122.55 -188.06 112.34 -193.54 101.83 -198.73 91.01 -203.65 79.88 -208.29 68.44 -212.65 56.69 -216.75 44.65 -220.57 32.28 -224.15 19.6 -227.48 6.61 -230.58 229.84 0 -6.98 243.77 -20.75 240.65 -34.15 237.15 -47.22 233.36 -59.96 229.23 -72.33 224.78 -84.39 220.02 -96.04 214.95 -107.39 209.59 -118.36 203.91 -128.99 197.96 -139.29 191.7 -149.22 185.16 -158.81 178.32 -168.07 171.2 -176.99 163.78 -185.54 156.09 -193.79 148.11 -201.68 139.85 -209.25 131.29 -216.48 122.45 -223.36 113.32 -229.93 103.91 -236.15 94.2 -242.06 84.21 -247.61 73.93 -252.85 63.34 -257.72 52.49 -262.28 41.33 -266.5 29.88 -270.38 18.14 -273.9 6.11 0 0zm0 0c-63.46,0 -114.92,-51.6 -114.92,-115.23 0,-63.63 51.46,-115.23 114.92,-115.23l0 230.46zm-5338.38 -4724.18l229.84 0 0 0 6.61 230.58 19.6 227.48 32.28 224.15 44.65 220.57 56.69 216.75 68.44 212.65 79.88 208.29 91.01 203.65 101.83 198.73 112.34 193.54 122.55 188.06 132.45 182.3 142.05 176.25 151.32 169.91 160.29 163.27 168.93 156.35 177.28 149.11 185.28 141.62 192.97 133.81 200.34 125.71 207.39 117.3 214.13 108.64 220.52 99.67 226.61 90.38 232.35 80.84 237.8 70.99 242.9 60.87 247.71 50.45 252.17 39.74 256.32 28.74 260.16 17.45 263.69 5.89 0 230.46 -273.89 -6.11 -270.38 -18.14 -266.5 -29.88 -262.28 -41.33 -257.72 -52.49 -252.84 -63.34 -247.61 -73.93 -242.05 -84.21 -236.15 -94.2 -229.93 -103.91 -223.37 -113.32 -216.47 -122.45 -209.25 -131.3 -201.67 -139.84 -193.79 -148.11 -185.55 -156.09 -176.98 -163.78 -168.06 -171.2 -158.82 -178.32 -149.21 -185.16 -139.29 -191.7 -128.99 -197.96 -118.36 -203.91 -107.39 -209.59 -96.04 -214.95 -84.39 -220.02 -72.33 -224.78 -59.96 -229.23 -47.22 -233.36 -34.15 -237.15 -20.75 -240.65 -6.98 -243.77 0 0zm0 0c0,-63.63 51.46,-115.23 114.92,-115.23 63.46,0 114.92,51.6 114.92,115.23l-229.84 0zm5338.38 -4724.18l0 230.46 0 0 -263.69 5.89 -260.16 17.45 -256.32 28.74 -252.17 39.74 -247.71 50.44 -242.9 60.88 -237.8 70.99 -232.35 80.84 -226.61 90.39 -220.52 99.66 -214.13 108.64 -207.39 117.3 -200.34 125.71 -192.97 133.8 -185.28 141.62 -177.28 149.12 -168.93 156.35 -160.29 163.26 -151.32 169.91 -142.05 176.25 -132.45 182.3 -122.55 188.06 -112.34 193.55 -101.83 198.73 -91.01 203.65 -79.88 208.29 -68.44 212.65 -56.69 216.74 -44.64 220.58 -32.29 224.16 -19.6 227.48 -6.61 230.58 -229.84 0 6.98 -243.77 20.75 -240.65 34.15 -237.16 47.23 -233.37 59.96 -229.22 72.33 -224.78 84.39 -220.02 96.04 -214.95 107.39 -209.59 118.36 -203.92 128.99 -197.96 139.29 -191.7 149.21 -185.16 158.82 -178.32 168.06 -171.19 176.98 -163.78 185.55 -156.1 193.79 -148.11 201.67 -139.85 209.25 -131.28 216.47 -122.45 223.37 -113.32 229.93 -103.91 236.15 -94.21 242.05 -84.21 247.61 -73.92 252.84 -63.35 257.72 -52.48 262.28 -41.33 266.5 -29.88 270.38 -18.14 273.89 -6.11 0 0zm0 0c63.46,0 114.92,51.6 114.92,115.23 0,63.63 -51.46,115.23 -114.92,115.23l0 -230.46z"/>
     </g>
     <g>
      <path class="fil2" d="M4599.06 3968.84c2884.85,0 5223.5,2063.51 5223.5,4608.95 0,2545.46 -2338.65,4608.97 -5223.5,4608.97 -2884.81,0 -5223.46,-2063.51 -5223.46,-4608.97 0,-2545.44 2338.65,-4608.95 5223.46,-4608.95z"/>
      <path id="_1_0" class="fil3" d="M9937.48 8577.79l-229.84 0 0 0 -6.61 -230.58 -19.6 -227.48 -32.28 -224.15 -44.65 -220.57 -56.69 -216.75 -68.44 -212.65 -79.88 -208.29 -91.01 -203.65 -101.83 -198.73 -112.34 -193.54 -122.55 -188.06 -132.45 -182.3 -142.06 -176.25 -151.32 -169.91 -160.28 -163.27 -168.94 -156.35 -177.27 -149.11 -185.28 -141.62 -192.98 -133.8 -200.34 -125.72 -207.4 -117.3 -214.12 -108.64 -220.52 -99.67 -226.61 -90.38 -232.36 -80.84 -237.8 -70.99 -242.91 -60.87 -247.71 -50.45 -252.17 -39.74 -256.32 -28.74 -260.16 -17.45 -263.7 -5.89 0 -230.46 273.9 6.11 270.38 18.14 266.5 29.88 262.28 41.33 257.72 52.49 252.85 63.34 247.61 73.93 242.06 84.21 236.15 94.2 229.93 103.91 223.36 113.32 216.48 122.45 209.25 131.29 201.68 139.85 193.79 148.11 185.54 156.09 176.99 163.78 168.07 171.2 158.81 178.32 149.22 185.16 139.29 191.7 128.99 197.96 118.36 203.91 107.39 209.59 96.04 214.95 84.39 220.02 72.33 224.78 59.96 229.23 47.22 233.36 34.15 237.15 20.75 240.65 6.98 243.77 0 0zm0 0c0,63.63 -51.46,115.23 -114.92,115.23 -63.46,0 -114.92,-51.6 -114.92,-115.23l229.84 0zm-5338.42 4724.2l0 -230.46 0 0 263.7 -5.89 260.16 -17.45 256.32 -28.74 252.17 -39.74 247.71 -50.45 242.91 -60.87 237.8 -70.99 232.36 -80.84 226.61 -90.38 220.52 -99.67 214.12 -108.64 207.4 -117.3 200.34 -125.72 192.98 -133.8 185.28 -141.62 177.27 -149.12 168.94 -156.34 160.28 -163.27 151.32 -169.91 142.06 -176.25 132.45 -182.3 122.55 -188.07 112.34 -193.54 101.83 -198.73 91.01 -203.65 79.88 -208.29 68.44 -212.65 56.69 -216.75 44.65 -220.57 32.28 -224.16 19.6 -227.48 6.61 -230.58 229.84 0 -6.98 243.77 -20.75 240.65 -34.15 237.16 -47.22 233.36 -59.96 229.23 -72.33 224.78 -84.39 220.02 -96.04 214.95 -107.39 209.59 -118.36 203.91 -128.99 197.97 -139.29 191.7 -149.22 185.16 -158.81 178.32 -168.07 171.2 -176.99 163.77 -185.54 156.1 -193.79 148.11 -201.68 139.85 -209.25 131.29 -216.48 122.45 -223.36 113.32 -229.93 103.91 -236.15 94.2 -242.06 84.21 -247.61 73.93 -252.85 63.34 -257.72 52.49 -262.28 41.33 -266.5 29.88 -270.38 18.14 -273.9 6.11 0 0zm0 0c-63.46,0 -114.92,-51.6 -114.92,-115.23 0,-63.63 51.46,-115.23 114.92,-115.23l0 230.46zm-5338.38 -4724.2l229.84 0 0 0 6.61 230.58 19.6 227.48 32.28 224.16 44.65 220.57 56.69 216.75 68.44 212.65 79.88 208.29 91.01 203.65 101.83 198.73 112.34 193.54 122.55 188.07 132.45 182.3 142.05 176.25 151.32 169.91 160.29 163.27 168.93 156.34 177.28 149.12 185.28 141.62 192.97 133.81 200.34 125.71 207.39 117.3 214.13 108.64 220.52 99.67 226.61 90.38 232.35 80.84 237.8 70.99 242.9 60.87 247.71 50.45 252.17 39.74 256.32 28.74 260.16 17.45 263.69 5.89 0 230.46 -273.89 -6.11 -270.38 -18.14 -266.5 -29.88 -262.28 -41.33 -257.72 -52.49 -252.84 -63.34 -247.61 -73.93 -242.05 -84.21 -236.15 -94.2 -229.93 -103.91 -223.37 -113.32 -216.47 -122.45 -209.25 -131.3 -201.67 -139.84 -193.79 -148.11 -185.55 -156.1 -176.98 -163.77 -168.06 -171.2 -158.82 -178.32 -149.21 -185.16 -139.29 -191.7 -128.99 -197.97 -118.36 -203.91 -107.39 -209.59 -96.04 -214.95 -84.39 -220.02 -72.33 -224.78 -59.96 -229.23 -47.22 -233.36 -34.15 -237.16 -20.75 -240.65 -6.98 -243.77 0 0zm0 0c0,-63.63 51.46,-115.23 114.92,-115.23 63.46,0 114.92,51.6 114.92,115.23l-229.84 0zm5338.38 -4724.18l0 230.46 0 0 -263.69 5.89 -260.16 17.45 -256.32 28.74 -252.17 39.74 -247.71 50.45 -242.9 60.87 -237.8 70.99 -232.35 80.84 -226.61 90.38 -220.52 99.67 -214.13 108.64 -207.39 117.3 -200.34 125.71 -192.97 133.81 -185.28 141.62 -177.28 149.11 -168.93 156.35 -160.29 163.27 -151.32 169.91 -142.05 176.25 -132.45 182.3 -122.55 188.06 -112.34 193.54 -101.83 198.73 -91.01 203.65 -79.88 208.29 -68.44 212.65 -56.69 216.75 -44.65 220.57 -32.28 224.15 -19.6 227.48 -6.61 230.58 -229.84 0 6.98 -243.77 20.75 -240.65 34.15 -237.15 47.22 -233.36 59.96 -229.23 72.33 -224.78 84.39 -220.02 96.04 -214.95 107.39 -209.59 118.36 -203.91 128.99 -197.96 139.29 -191.7 149.21 -185.16 158.82 -178.32 168.06 -171.2 176.98 -163.78 185.55 -156.09 193.79 -148.11 201.67 -139.84 209.25 -131.3 216.47 -122.45 223.37 -113.32 229.93 -103.91 236.15 -94.2 242.05 -84.21 247.61 -73.93 252.84 -63.34 257.72 -52.49 262.28 -41.33 266.5 -29.88 270.38 -18.14 273.89 -6.11 0 0zm0 0c63.46,0 114.92,51.6 114.92,115.23 0,63.63 -51.46,115.23 -114.92,115.23l0 -230.46z"/>
     </g>
     <g>
      <path class="fil2" d="M4599.06 5505.16c2699.57,0 4888.03,2063.5 4888.03,4608.93 0,2545.48 -2188.45,4608.96 -4888.03,4608.96 -2699.57,0 -4888.01,-2063.48 -4888.01,-4608.96 0,-2545.43 2188.43,-4608.93 4888.01,-4608.93z"/>
      <path id="_1_1" class="fil3" d="M9594.62 10114.09l-215.07 0 0 0 -6.19 -230.58 -18.34 -227.47 -30.21 -224.16 -41.78 -220.57 -53.06 -216.74 -64.04 -212.65 -74.74 -208.29 -85.16 -203.65 -95.29 -198.73 -105.13 -193.53 -114.68 -188.07 -123.94 -182.3 -132.92 -176.25 -141.62 -169.91 -149.99 -163.27 -158.08 -156.34 -165.89 -149.12 -173.38 -141.62 -180.57 -133.8 -187.48 -125.71 -194.08 -117.32 -200.37 -108.63 -206.35 -99.66 -212.06 -90.38 -217.44 -80.85 -222.52 -70.99 -227.31 -60.87 -231.8 -50.45 -235.99 -39.74 -239.86 -28.74 -243.45 -17.45 -246.77 -5.89 0 -230.46 256.31 6.11 253.02 18.14 249.39 29.88 245.44 41.33 241.18 52.49 236.59 63.34 231.71 73.92 226.52 84.22 220.99 94.2 215.16 103.91 209.02 113.33 202.58 122.45 195.8 131.28 188.73 139.85 181.34 148.11 173.64 156.1 165.61 163.77 157.27 171.2 148.61 178.32 139.64 185.16 130.34 191.7 120.71 197.95 110.76 203.92 100.49 209.59 89.88 214.95 78.95 220.02 67.69 224.78 56.11 229.22 44.2 233.36 31.97 237.16 19.41 240.65 6.53 243.77 0 0zm0 0c0,63.63 -48.15,115.23 -107.54,115.23 -59.38,0 -107.54,-51.6 -107.54,-115.23l215.07 0zm-4995.56 4724.19l0 -230.46 0 0 246.77 -5.89 243.45 -17.45 239.86 -28.74 235.99 -39.74 231.8 -50.45 227.31 -60.87 222.52 -70.99 217.44 -80.84 212.05 -90.39 206.36 -99.66 200.37 -108.64 194.08 -117.3 187.47 -125.71 180.58 -133.81 173.38 -141.62 165.89 -149.11 158.08 -156.35 149.99 -163.27 141.62 -169.91 132.92 -176.25 123.94 -182.3 114.68 -188.06 105.13 -193.55 95.29 -198.72 85.16 -203.66 74.74 -208.28 64.04 -212.66 53.06 -216.74 41.78 -220.58 30.21 -224.16 18.34 -227.48 6.19 -230.58 215.07 0 -6.53 243.77 -19.41 240.65 -31.97 237.16 -44.2 233.37 -56.11 229.22 -67.69 224.78 -78.95 220.01 -89.88 214.96 -100.49 209.58 -110.76 203.92 -120.71 197.96 -130.34 191.7 -139.64 185.16 -148.61 178.32 -157.27 171.2 -165.61 163.78 -173.64 156.09 -181.34 148.11 -188.72 139.84 -195.81 131.3 -202.58 122.45 -209.02 113.32 -215.16 103.91 -220.99 94.21 -226.52 84.21 -231.71 73.92 -236.59 63.34 -241.18 52.49 -245.44 41.33 -249.39 29.88 -253.02 18.14 -256.31 6.11 0 0zm0 0c-59.38,0 -107.54,-51.6 -107.54,-115.23 0,-63.63 48.15,-115.23 107.54,-115.23l0 230.46zm-4995.54 -4724.19l215.07 0 0 0 6.19 230.58 18.34 227.48 30.21 224.16 41.78 220.58 53.05 216.74 64.05 212.66 74.74 208.28 85.16 203.66 95.29 198.72 105.13 193.55 114.68 188.06 123.94 182.3 132.93 176.25 141.6 169.91 149.99 163.27 158.08 156.35 165.89 149.11 173.38 141.62 180.58 133.81 187.47 125.71 194.07 117.3 200.37 108.64 206.37 99.66 212.04 90.39 217.44 80.84 222.52 70.99 227.32 60.87 231.79 50.45 235.99 39.74 239.86 28.74 243.45 17.45 246.77 5.89 0 230.46 -256.31 -6.11 -253.02 -18.14 -249.39 -29.88 -245.44 -41.33 -241.17 -52.49 -236.6 -63.34 -231.71 -73.92 -226.52 -84.21 -220.99 -94.21 -215.16 -103.91 -209.02 -113.32 -202.57 -122.45 -195.81 -131.3 -188.72 -139.84 -181.34 -148.11 -173.64 -156.09 -165.61 -163.78 -157.27 -171.2 -148.61 -178.32 -139.63 -185.16 -130.34 -191.7 -120.71 -197.96 -110.76 -203.92 -100.49 -209.58 -89.88 -214.96 -78.95 -220.01 -67.7 -224.78 -56.1 -229.22 -44.2 -233.37 -31.97 -237.16 -19.41 -240.65 -6.53 -243.77 0 0zm0 0c0,-63.63 48.15,-115.23 107.54,-115.23 59.38,0 107.54,51.6 107.54,115.23l-215.07 0zm4995.54 -4724.16l0 230.46 0 0 -246.77 5.89 -243.45 17.45 -239.86 28.74 -235.99 39.74 -231.79 50.45 -227.32 60.87 -222.52 70.99 -217.44 80.85 -212.05 90.38 -206.36 99.66 -200.37 108.63 -194.07 117.32 -187.48 125.71 -180.57 133.8 -173.38 141.62 -165.89 149.12 -158.08 156.34 -149.99 163.27 -141.6 169.91 -132.93 176.25 -123.94 182.3 -114.68 188.07 -105.13 193.53 -95.29 198.73 -85.16 203.65 -74.74 208.29 -64.05 212.65 -53.05 216.74 -41.78 220.57 -30.21 224.16 -18.34 227.47 -6.19 230.58 -215.07 0 6.53 -243.77 19.41 -240.65 31.97 -237.16 44.2 -233.36 56.1 -229.22 67.7 -224.78 78.95 -220.02 89.88 -214.95 100.49 -209.59 110.76 -203.92 120.71 -197.95 130.34 -191.7 139.63 -185.16 148.61 -178.32 157.27 -171.2 165.61 -163.77 173.64 -156.1 181.34 -148.11 188.73 -139.85 195.8 -131.28 202.57 -122.45 209.02 -113.33 215.17 -103.91 220.98 -94.2 226.52 -84.22 231.71 -73.92 236.6 -63.34 241.17 -52.49 245.44 -41.33 249.39 -29.88 253.02 -18.14 256.31 -6.11 0 0zm0 0c59.38,0 107.54,51.6 107.54,115.23 0,63.63 -48.15,115.23 -107.54,115.23l0 -230.46z"/>
     </g>
     <g>
      <path class="fil2" d="M4599.06 6983.87c2426.5,0 4393.58,2063.49 4393.58,4608.94 0,2545.46 -1967.08,4608.94 -4393.58,4608.94 -2426.5,0 -4393.55,-2063.48 -4393.55,-4608.94 0,-2545.45 1967.06,-4608.94 4393.55,-4608.94z"/>
      <path id="_1_2" class="fil3" d="M9089.3 11592.81l-193.32 0 0 0 -5.56 -230.58 -16.49 -227.48 -27.16 -224.15 -37.55 -220.58 -47.69 -216.74 -57.57 -212.65 -67.19 -208.29 -76.54 -203.65 -85.65 -198.73 -94.49 -193.54 -103.08 -188.06 -111.41 -182.3 -119.49 -176.25 -127.28 -169.91 -134.82 -163.27 -142.09 -156.35 -149.1 -149.11 -155.85 -141.62 -162.3 -133.8 -168.52 -125.71 -174.44 -117.32 -180.1 -108.63 -185.49 -99.66 -190.59 -90.39 -195.45 -80.84 -200.02 -70.99 -204.32 -60.87 -208.34 -50.45 -212.11 -39.74 -215.6 -28.74 -218.82 -17.45 -221.8 -5.89 0 -230.46 230.39 6.11 227.41 18.14 224.16 29.88 220.61 41.33 216.78 52.49 212.67 63.34 208.27 73.92 203.59 84.21 198.64 94.21 193.39 103.91 187.89 113.33 182.08 122.45 176 131.28 169.64 139.85 163 148.11 156.06 156.09 148.87 163.78 141.35 171.2 133.59 178.32 125.51 185.16 117.16 191.7 108.49 197.96 99.56 203.91 90.33 209.59 80.79 214.95 70.97 220.02 60.84 224.78 50.44 229.22 39.72 233.37 28.73 237.15 17.44 240.65 5.88 243.77 0 0zm0 0c0,63.63 -43.28,115.23 -96.66,115.23 -53.38,0 -96.66,-51.6 -96.66,-115.23l193.32 0zm-4490.24 4724.17l0 -230.46 0 0 221.8 -5.89 218.82 -17.45 215.6 -28.74 212.11 -39.74 208.34 -50.44 204.32 -60.88 200.02 -70.99 195.45 -80.84 190.59 -90.39 185.49 -99.66 180.1 -108.64 174.44 -117.3 168.52 -125.72 162.3 -133.8 155.85 -141.61 149.1 -149.12 142.1 -156.35 134.81 -163.26 127.28 -169.91 119.49 -176.25 111.41 -182.3 103.07 -188.06 94.5 -193.55 85.65 -198.73 76.54 -203.65 67.19 -208.28 57.57 -212.65 47.69 -216.75 37.55 -220.57 27.16 -224.16 16.49 -227.48 5.56 -230.58 193.32 0 -5.88 243.77 -17.44 240.65 -28.73 237.16 -39.72 233.36 -50.44 229.23 -60.84 224.78 -70.97 220.01 -80.79 214.95 -90.33 209.59 -99.55 203.92 -108.5 197.96 -117.16 191.7 -125.51 185.16 -133.59 178.32 -141.36 171.19 -148.86 163.78 -156.06 156.1 -163 148.1 -169.64 139.85 -176 131.29 -182.08 122.45 -187.89 113.32 -193.39 103.91 -198.64 94.21 -203.59 84.21 -208.27 73.92 -212.67 63.35 -216.78 52.48 -220.61 41.33 -224.16 29.88 -227.41 18.14 -230.39 6.11 0 0zm0 0c-53.38,0 -96.66,-51.6 -96.66,-115.23 0,-63.63 43.28,-115.23 96.66,-115.23l0 230.46zm-4490.21 -4724.17l193.32 0 0 0 5.56 230.58 16.49 227.48 27.16 224.16 37.55 220.57 47.69 216.75 57.57 212.65 67.19 208.28 76.54 203.65 85.64 198.73 94.49 193.55 103.09 188.06 111.4 182.3 119.49 176.25 127.28 169.91 134.82 163.26 142.08 156.35 149.11 149.12 155.84 141.61 162.3 133.8 168.52 125.72 174.44 117.3 180.1 108.64 185.48 99.66 190.59 90.39 195.45 80.84 200.02 70.99 204.32 60.88 208.34 50.44 212.11 39.74 215.6 28.74 218.82 17.45 221.8 5.89 0 230.46 -230.39 -6.11 -227.41 -18.14 -224.16 -29.88 -220.61 -41.33 -216.78 -52.48 -212.67 -63.35 -208.27 -73.92 -203.59 -84.21 -198.64 -94.21 -193.4 -103.91 -187.87 -113.32 -182.08 -122.45 -176 -131.29 -169.64 -139.85 -162.99 -148.1 -156.07 -156.1 -148.86 -163.78 -141.35 -171.19 -133.59 -178.32 -125.51 -185.16 -117.15 -191.7 -108.5 -197.96 -99.56 -203.92 -90.32 -209.59 -80.79 -214.95 -70.97 -220.01 -60.84 -224.78 -50.44 -229.23 -39.72 -233.36 -28.73 -237.16 -17.44 -240.65 -5.88 -243.77 0 0zm0 0c0,-63.63 43.28,-115.23 96.66,-115.23 53.38,0 96.66,51.6 96.66,115.23l-193.32 0zm4490.21 -4724.17l0 230.46 0 0 -221.8 5.89 -218.82 17.45 -215.6 28.74 -212.11 39.74 -208.34 50.45 -204.32 60.87 -200.02 70.99 -195.45 80.84 -190.59 90.39 -185.48 99.66 -180.1 108.63 -174.44 117.32 -168.52 125.71 -162.3 133.8 -155.84 141.62 -149.11 149.11 -142.08 156.34 -134.82 163.28 -127.28 169.91 -119.49 176.25 -111.4 182.3 -103.09 188.07 -94.49 193.53 -85.64 198.73 -76.54 203.65 -67.19 208.29 -57.57 212.65 -47.69 216.74 -37.55 220.58 -27.16 224.15 -16.49 227.48 -5.56 230.58 -193.32 0 5.88 -243.77 17.44 -240.65 28.73 -237.15 39.72 -233.37 50.44 -229.22 60.84 -224.78 70.97 -220.02 80.79 -214.95 90.32 -209.59 99.56 -203.92 108.5 -197.95 117.15 -191.7 125.51 -185.16 133.59 -178.32 141.35 -171.19 148.86 -163.79 156.07 -156.09 162.99 -148.11 169.64 -139.85 176 -131.28 182.08 -122.45 187.87 -113.33 193.4 -103.91 198.64 -94.21 203.59 -84.21 208.27 -73.92 212.67 -63.34 216.78 -52.49 220.61 -41.33 224.16 -29.88 227.41 -18.14 230.39 -6.11 0 0zm0 0c53.38,0 96.66,51.6 96.66,115.23 0,63.63 -43.28,115.23 -96.66,115.23l0 -230.46z"/>
     </g>
    </g>
   </g>
   <path class="fil4" d="M549.09 4209.47l3722.91 -3722.9c184.63,-184.63 486.72,-184.63 671.35,0l3722.9 3722.9c184.63,184.63 184.63,486.72 0,671.35l-3722.9 3722.9c-184.63,184.63 -486.72,184.63 -671.35,0l-3722.91 -3722.9c-184.62,-184.63 -184.62,-486.72 0,-671.35z"/>
  </g>
 </g>
</svg>
