<?xml version="1.0" encoding="UTF-8"?>
<!DOCTYPE svg PUBLIC "-//W3C//DTD SVG 1.1//EN" "http://www.w3.org/Graphics/SVG/1.1/DTD/svg11.dtd">
<!-- Creator: CorelDRAW (Versión de evaluación) -->
<svg xmlns="http://www.w3.org/2000/svg" xml:space="preserve" width="167.584mm" height="64.1468mm" version="1.1" style="shape-rendering:geometricPrecision; text-rendering:geometricPrecision; image-rendering:optimizeQuality; fill-rule:evenodd; clip-rule:evenodd"
viewBox="0 0 16744.11 6409.22"
 xmlns:xlink="http://www.w3.org/1999/xlink"
 xmlns:xodm="http://www.corel.com/coreldraw/odm/2003">
 <defs>
  <style type="text/css">
   <![CDATA[
    .fil3 {fill:none}
    .fil1 {fill:#FEFEFE}
    .fil0 {fill:black}
    .fil2 {fill:#FEFEFE;fill-rule:nonzero}
    .fil4 {fill:white;fill-rule:nonzero}
   ]]>
  </style>
   <clipPath id="id0">
    <path d="M1779.49 3051.64l1893.51 -1893.51c93.9,-93.9 247.54,-93.9 341.44,0l1893.51 1893.51c93.9,93.9 93.9,247.54 0,341.44l-1893.51 1893.51c-93.9,93.9 -247.54,93.9 -341.44,0l-1893.51 -1893.51c-93.9,-93.9 -93.9,-247.54 0,-341.44z"/>
   </clipPath>
 </defs>
 <g id="Capa_x0020_1">
  <metadata id="CorelCorpID_0Corel-Layer"/>
  <rect class="fil0" x="-0" width="16744.11" height="6409.22"/>
  <rect class="fil1" transform="matrix(0.833282 -0.833282 0.833282 0.833282 1344.99 3230.05)" width="2969.73" height="2969.73" rx="329.97" ry="329.97"/>
  <path class="fil1" d="M1779.49 3051.64l1893.51 -1893.51c93.9,-93.9 247.54,-93.9 341.44,0l1893.51 1893.51c93.9,93.9 93.9,247.54 0,341.44l-1893.51 1893.51c-93.9,93.9 -247.54,93.9 -341.44,0l-1893.51 -1893.51c-93.9,-93.9 -93.9,-247.54 0,-341.44z"/>
  <g style="clip-path:url(#id0)">
   <g id="_2125617263296">
    <g>
     <path id="_1" class="fil0" d="M3839.34 2157.63c1467.25,0 2656.7,1049.51 2656.7,2344.14 0,1294.63 -1189.45,2344.14 -2656.7,2344.14 -1467.24,0 -2656.69,-1049.52 -2656.69,-2344.14 0,-1294.64 1189.45,-2344.14 2656.69,-2344.14z"/>
     <path id="_2" class="fil2" d="M6554.49 4501.78l-116.9 0 0 0 -3.36 -117.27 -9.97 -115.7 -16.43 -114 -22.7 -112.19 -28.84 -110.24 -34.81 -108.15 -40.63 -105.94 -46.28 -103.57 -51.79 -101.08 -57.14 -98.43 -62.34 -95.66 -67.36 -92.71 -72.25 -89.64 -76.96 -86.42 -81.52 -83.04 -85.93 -79.52 -90.16 -75.85 -94.23 -72.03 -98.15 -68.05 -101.89 -63.94 -105.48 -59.66 -108.91 -55.25 -112.15 -50.7 -115.25 -45.97 -118.18 -41.11 -120.96 -36.1 -123.54 -30.96 -125.98 -25.65 -128.26 -20.22 -130.37 -14.62 -132.32 -8.87 -134.12 -2.99 0 -117.22 139.31 3.11 137.51 9.23 135.54 15.2 133.4 21.02 131.08 26.69 128.6 32.22 125.93 37.6 123.12 42.83 120.11 47.91 116.95 52.85 113.6 57.63 110.1 62.28 106.43 66.77 102.56 71.13 98.57 75.33 94.38 79.4 90 83.3 85.48 87.08 80.78 90.69 75.89 94.16 70.84 97.51 65.61 100.67 60.2 103.72 54.62 106.6 48.84 109.33 42.92 111.89 36.79 114.32 30.49 116.59 24.02 118.69 17.37 120.62 10.55 122.4 3.56 123.98 0 0zm0 0c0,32.36 -26.18,58.61 -58.45,58.61 -32.27,0 -58.45,-26.25 -58.45,-58.61l116.9 0zm-2715.15 2402.75l0 -117.22 0 0 134.12 -2.99 132.32 -8.87 130.37 -14.62 128.26 -20.22 125.98 -25.65 123.54 -30.96 120.96 -36.1 118.18 -41.11 115.25 -45.98 112.15 -50.69 108.91 -55.25 105.48 -59.67 101.89 -63.94 98.15 -68.05 94.23 -72.03 90.17 -75.84 85.92 -79.52 81.52 -83.04 76.96 -86.42 72.25 -89.64 67.36 -92.71 62.34 -95.66 57.14 -98.43 51.79 -101.08 46.28 -103.57 40.63 -105.94 34.81 -108.16 28.84 -110.23 22.7 -112.19 16.43 -114 9.97 -115.7 3.36 -117.27 116.9 0 -3.56 123.98 -10.55 122.4 -17.37 120.62 -24.02 118.69 -30.49 116.58 -36.79 114.33 -42.92 111.89 -48.84 109.33 -54.62 106.6 -60.2 103.72 -65.61 100.67 -70.84 97.51 -75.89 94.16 -80.78 90.69 -85.48 87.08 -90.01 83.3 -94.37 79.39 -98.57 75.33 -102.56 71.13 -106.43 66.77 -110.1 62.29 -113.6 57.63 -116.95 52.85 -120.11 47.92 -123.12 42.83 -125.93 37.6 -128.6 32.22 -131.08 26.69 -133.4 21.02 -135.54 15.2 -137.51 9.23 -139.31 3.11 0 0zm0 0c-32.27,0 -58.45,-26.25 -58.45,-58.61 0,-32.36 26.18,-58.61 58.45,-58.61l0 117.22zm-2715.14 -2402.75l116.9 0 0 0 3.36 117.27 9.97 115.7 16.43 114 22.7 112.19 28.84 110.23 34.81 108.16 40.63 105.94 46.28 103.57 51.79 101.08 57.14 98.43 62.34 95.66 67.36 92.71 72.25 89.64 76.96 86.42 81.52 83.04 85.92 79.52 90.17 75.84 94.22 72.03 98.16 68.05 101.89 63.94 105.48 59.67 108.91 55.25 112.15 50.69 115.25 45.98 118.18 41.11 120.95 36.1 123.54 30.96 125.98 25.65 128.26 20.22 130.37 14.62 132.32 8.87 134.12 2.99 0 117.22 -139.31 -3.11 -137.51 -9.23 -135.54 -15.2 -133.4 -21.02 -131.08 -26.69 -128.6 -32.22 -125.92 -37.6 -123.12 -42.83 -120.11 -47.92 -116.95 -52.85 -113.6 -57.63 -110.1 -62.29 -106.43 -66.77 -102.57 -71.13 -98.56 -75.33 -94.37 -79.39 -90.01 -83.3 -85.48 -87.08 -80.78 -90.69 -75.89 -94.16 -70.84 -97.51 -65.61 -100.67 -60.2 -103.72 -54.62 -106.6 -48.84 -109.33 -42.92 -111.89 -36.79 -114.33 -30.49 -116.58 -24.02 -118.69 -17.37 -120.62 -10.55 -122.4 -3.56 -123.98 0 0zm0 0c0,-32.36 26.18,-58.61 58.45,-58.61 32.27,0 58.45,26.25 58.45,58.61l-116.9 0zm2715.14 -2402.75l0 117.22 0 0 -134.12 2.99 -132.32 8.87 -130.37 14.62 -128.26 20.22 -125.98 25.65 -123.54 30.96 -120.95 36.1 -118.18 41.11 -115.25 45.97 -112.15 50.7 -108.91 55.25 -105.48 59.66 -101.89 63.94 -98.16 68.05 -94.22 72.03 -90.16 75.85 -85.93 79.52 -81.52 83.04 -76.96 86.42 -72.25 89.64 -67.36 92.71 -62.34 95.66 -57.14 98.43 -51.79 101.08 -46.28 103.57 -40.63 105.94 -34.81 108.15 -28.84 110.24 -22.7 112.19 -16.43 114 -9.97 115.7 -3.36 117.27 -116.9 0 3.56 -123.98 10.55 -122.4 17.37 -120.62 24.02 -118.69 30.49 -116.59 36.79 -114.32 42.92 -111.89 48.84 -109.33 54.62 -106.6 60.2 -103.72 65.61 -100.67 70.84 -97.51 75.89 -94.16 80.78 -90.69 85.48 -87.08 90 -83.3 94.38 -79.4 98.56 -75.33 102.57 -71.13 106.43 -66.77 110.1 -62.28 113.6 -57.63 116.95 -52.85 120.11 -47.91 123.12 -42.83 125.92 -37.6 128.6 -32.22 131.08 -26.69 133.4 -21.02 135.54 -15.2 137.51 -9.23 139.31 -3.11 0 0zm0 0c32.27,0 58.45,26.25 58.45,58.61 0,32.36 -26.18,58.61 -58.45,58.61l0 -117.22z"/>
    </g>
    <g>
     <path class="fil0" d="M3839.34 2929.25c1467.25,0 2656.7,1049.52 2656.7,2344.14 0,1294.64 -1189.45,2344.14 -2656.7,2344.14 -1467.24,0 -2656.69,-1049.51 -2656.69,-2344.14 0,-1294.63 1189.45,-2344.14 2656.69,-2344.14z"/>
     <path id="_1_0" class="fil2" d="M6554.49 5273.39l-116.9 0 0 0 -3.36 -117.27 -9.97 -115.7 -16.43 -114 -22.7 -112.19 -28.84 -110.23 -34.81 -108.16 -40.63 -105.94 -46.28 -103.57 -51.79 -101.08 -57.14 -98.43 -62.34 -95.66 -67.36 -92.71 -72.25 -89.64 -76.96 -86.42 -81.52 -83.04 -85.92 -79.52 -90.17 -75.84 -94.23 -72.03 -98.15 -68.05 -101.89 -63.94 -105.48 -59.67 -108.91 -55.25 -112.15 -50.69 -115.25 -45.98 -118.18 -41.11 -120.96 -36.1 -123.54 -30.96 -125.98 -25.65 -128.26 -20.22 -130.37 -14.62 -132.32 -8.87 -134.12 -2.99 0 -117.22 139.31 3.11 137.51 9.23 135.54 15.2 133.4 21.02 131.08 26.69 128.6 32.22 125.93 37.6 123.12 42.83 120.11 47.92 116.95 52.85 113.6 57.63 110.1 62.29 106.43 66.77 102.56 71.13 98.57 75.33 94.37 79.39 90.01 83.3 85.48 87.08 80.78 90.69 75.89 94.16 70.84 97.51 65.61 100.67 60.2 103.72 54.62 106.6 48.84 109.33 42.92 111.89 36.79 114.33 30.49 116.58 24.02 118.69 17.37 120.62 10.55 122.4 3.56 123.98 0 0zm0 0c0,32.36 -26.18,58.61 -58.45,58.61 -32.27,0 -58.45,-26.25 -58.45,-58.61l116.9 0zm-2715.15 2402.75l0 -117.22 0 0 134.12 -2.99 132.32 -8.87 130.37 -14.62 128.26 -20.22 125.98 -25.65 123.54 -30.96 120.96 -36.1 118.18 -41.11 115.25 -45.97 112.15 -50.7 108.91 -55.25 105.48 -59.66 101.89 -63.94 98.15 -68.05 94.23 -72.03 90.16 -75.85 85.93 -79.52 81.52 -83.04 76.96 -86.42 72.25 -89.64 67.36 -92.71 62.34 -95.66 57.14 -98.43 51.79 -101.08 46.28 -103.57 40.63 -105.94 34.81 -108.15 28.84 -110.24 22.7 -112.19 16.43 -114 9.97 -115.7 3.36 -117.27 116.9 0 -3.56 123.98 -10.55 122.4 -17.37 120.62 -24.02 118.69 -30.49 116.59 -36.79 114.32 -42.92 111.89 -48.84 109.33 -54.62 106.6 -60.2 103.72 -65.61 100.67 -70.84 97.51 -75.89 94.16 -80.78 90.69 -85.48 87.08 -90 83.3 -94.38 79.4 -98.57 75.33 -102.56 71.13 -106.43 66.77 -110.1 62.28 -113.6 57.63 -116.95 52.85 -120.11 47.91 -123.12 42.83 -125.93 37.6 -128.6 32.22 -131.08 26.69 -133.4 21.02 -135.54 15.2 -137.51 9.23 -139.31 3.11 0 0zm0 0c-32.27,0 -58.45,-26.25 -58.45,-58.61 0,-32.36 26.18,-58.61 58.45,-58.61l0 117.22zm-2715.14 -2402.75l116.9 0 0 0 3.36 117.27 9.97 115.7 16.43 114 22.7 112.19 28.84 110.24 34.81 108.15 40.63 105.94 46.28 103.57 51.79 101.08 57.14 98.43 62.34 95.66 67.36 92.71 72.25 89.64 76.96 86.42 81.52 83.04 85.93 79.52 90.16 75.85 94.22 72.03 98.16 68.05 101.89 63.94 105.48 59.66 108.91 55.25 112.15 50.7 115.25 45.97 118.18 41.11 120.95 36.1 123.54 30.96 125.98 25.65 128.26 20.22 130.37 14.62 132.32 8.87 134.12 2.99 0 117.22 -139.31 -3.11 -137.51 -9.23 -135.54 -15.2 -133.4 -21.02 -131.08 -26.69 -128.6 -32.22 -125.92 -37.6 -123.12 -42.83 -120.11 -47.91 -116.95 -52.85 -113.6 -57.63 -110.1 -62.28 -106.43 -66.77 -102.57 -71.13 -98.56 -75.33 -94.38 -79.4 -90 -83.3 -85.48 -87.08 -80.78 -90.69 -75.89 -94.16 -70.84 -97.51 -65.61 -100.67 -60.2 -103.72 -54.62 -106.6 -48.84 -109.33 -42.92 -111.89 -36.79 -114.32 -30.49 -116.59 -24.02 -118.69 -17.37 -120.62 -10.55 -122.4 -3.56 -123.98 0 0zm0 0c0,-32.36 26.18,-58.61 58.45,-58.61 32.27,0 58.45,26.25 58.45,58.61l-116.9 0zm2715.14 -2402.75l0 117.22 0 0 -134.12 2.99 -132.32 8.87 -130.37 14.62 -128.26 20.22 -125.98 25.65 -123.54 30.96 -120.95 36.1 -118.18 41.11 -115.25 45.98 -112.15 50.69 -108.91 55.25 -105.48 59.67 -101.89 63.94 -98.16 68.05 -94.22 72.03 -90.17 75.84 -85.92 79.52 -81.52 83.04 -76.96 86.42 -72.25 89.64 -67.36 92.71 -62.34 95.66 -57.14 98.43 -51.79 101.08 -46.28 103.57 -40.63 105.94 -34.81 108.16 -28.84 110.23 -22.7 112.19 -16.43 114 -9.97 115.7 -3.36 117.27 -116.9 0 3.56 -123.98 10.55 -122.4 17.37 -120.62 24.02 -118.69 30.49 -116.58 36.79 -114.33 42.92 -111.89 48.84 -109.33 54.62 -106.6 60.2 -103.72 65.61 -100.67 70.84 -97.51 75.89 -94.16 80.78 -90.69 85.48 -87.08 90.01 -83.3 94.37 -79.39 98.56 -75.33 102.57 -71.13 106.43 -66.77 110.1 -62.29 113.6 -57.63 116.95 -52.85 120.11 -47.92 123.12 -42.83 125.92 -37.6 128.6 -32.22 131.08 -26.69 133.4 -21.02 135.54 -15.2 137.51 -9.23 139.31 -3.11 0 0zm0 0c32.27,0 58.45,26.25 58.45,58.61 0,32.36 -26.18,58.61 -58.45,58.61l0 -117.22z"/>
    </g>
    <g>
     <path class="fil0" d="M3839.34 3710.63c1373.02,0 2486.08,1049.51 2486.08,2344.13 0,1294.64 -1113.06,2344.14 -2486.08,2344.14 -1373.02,0 -2486.07,-1049.51 -2486.07,-2344.14 0,-1294.63 1113.05,-2344.13 2486.07,-2344.13z"/>
     <path id="_1_1" class="fil2" d="M6380.12 6054.76l-109.39 0 0 0 -3.15 -117.27 -9.33 -115.7 -15.37 -114 -21.24 -112.18 -27 -110.24 -32.56 -108.16 -38.01 -105.93 -43.32 -103.58 -48.46 -101.07 -53.46 -98.43 -58.34 -95.66 -63.04 -92.72 -67.61 -89.64 -72.02 -86.42 -76.29 -83.03 -80.4 -79.52 -84.37 -75.85 -88.19 -72.03 -91.83 -68.05 -95.36 -63.94 -98.71 -59.66 -101.91 -55.25 -104.95 -50.7 -107.85 -45.97 -110.6 -41.11 -113.18 -36.1 -115.6 -30.96 -117.89 -25.65 -120.03 -20.22 -122 -14.62 -123.82 -8.87 -125.5 -2.99 0 -117.22 130.36 3.11 128.68 9.23 126.85 15.2 124.82 21.02 122.67 26.69 120.34 32.22 117.84 37.6 115.21 42.83 112.4 47.91 109.43 52.85 106.31 57.63 103.02 62.28 99.6 66.77 95.99 71.13 92.23 75.33 88.3 79.4 84.24 83.3 79.98 87.07 75.6 90.69 71.01 94.18 66.29 97.5 61.4 100.67 56.34 103.72 51.1 106.59 45.72 109.32 40.17 111.9 34.42 114.33 28.54 116.57 22.48 118.7 16.25 120.62 9.87 122.4 3.33 123.98 0 0zm0 0c0,32.36 -24.49,58.61 -54.69,58.61 -30.2,0 -54.69,-26.25 -54.69,-58.61l109.39 0zm-2540.78 2402.75l0 -117.22 0 0 125.5 -2.99 123.82 -8.87 122 -14.62 120.03 -20.22 117.89 -25.65 115.6 -30.96 113.18 -36.1 110.6 -41.11 107.85 -45.97 104.95 -50.7 101.91 -55.25 98.71 -59.66 95.36 -63.94 91.83 -68.05 88.19 -72.03 84.37 -75.85 80.4 -79.52 76.29 -83.04 72.03 -86.42 67.6 -89.64 63.04 -92.71 58.34 -95.66 53.46 -98.43 48.46 -101.08 43.32 -103.58 38.01 -105.93 32.56 -108.15 27 -110.25 21.24 -112.18 15.37 -114 9.33 -115.7 3.15 -117.27 109.39 0 -3.33 123.98 -9.87 122.4 -16.25 120.62 -22.48 118.7 -28.54 116.58 -34.42 114.32 -40.17 111.9 -45.72 109.32 -51.1 106.6 -56.34 103.72 -61.4 100.67 -66.29 97.51 -71.02 94.16 -75.59 90.69 -79.98 87.08 -84.24 83.3 -88.3 79.4 -92.23 75.33 -95.99 71.13 -99.6 66.77 -103.02 62.28 -106.31 57.63 -109.43 52.85 -112.4 47.91 -115.21 42.83 -117.84 37.6 -120.34 32.22 -122.67 26.69 -124.82 21.02 -126.85 15.2 -128.68 9.23 -130.36 3.11 0 0zm0 0c-30.2,0 -54.69,-26.25 -54.69,-58.61 0,-32.36 24.49,-58.61 54.69,-58.61l0 117.22zm-2540.77 -2402.75l109.39 0 0 0 3.15 117.27 9.33 115.7 15.37 114 21.24 112.19 26.99 110.24 32.57 108.15 38.01 105.93 43.31 103.58 48.47 101.07 53.46 98.44 58.33 95.66 63.04 92.71 67.61 89.64 72.02 86.42 76.3 83.04 80.39 79.52 84.38 75.85 88.18 72.03 91.84 68.05 95.35 63.94 98.71 59.66 101.91 55.25 104.96 50.7 107.84 45.97 110.6 41.11 113.18 36.1 115.6 30.96 117.89 25.65 120.03 20.22 122 14.62 123.82 8.87 125.5 2.99 0 117.22 -130.36 -3.11 -128.68 -9.23 -126.85 -15.2 -124.82 -21.02 -122.67 -26.69 -120.34 -32.22 -117.84 -37.6 -115.21 -42.83 -112.39 -47.91 -109.44 -52.85 -106.31 -57.63 -103.02 -62.28 -99.59 -66.77 -96 -71.13 -92.22 -75.33 -88.31 -79.4 -84.23 -83.3 -79.99 -87.08 -75.58 -90.69 -71.03 -94.16 -66.29 -97.51 -61.39 -100.67 -56.34 -103.71 -51.11 -106.61 -45.71 -109.32 -40.17 -111.9 -34.43 -114.32 -28.53 -116.59 -22.48 -118.69 -16.25 -120.62 -9.87 -122.4 -3.33 -123.98 0 0zm0 0c0,-32.36 24.49,-58.61 54.69,-58.61 30.2,0 54.69,26.25 54.69,58.61l-109.39 0zm2540.77 -2402.74l0 117.22 0 0 -125.5 2.99 -123.82 8.87 -122 14.62 -120.03 20.22 -117.89 25.65 -115.6 30.96 -113.18 36.1 -110.6 41.11 -107.84 45.97 -104.96 50.7 -101.91 55.25 -98.71 59.66 -95.35 63.94 -91.84 68.05 -88.18 72.03 -84.38 75.85 -80.39 79.52 -76.3 83.03 -72.01 86.42 -67.62 89.65 -63.04 92.71 -58.33 95.66 -53.46 98.44 -48.47 101.06 -43.31 103.58 -38.01 105.93 -32.57 108.16 -26.99 110.23 -21.24 112.19 -15.37 114 -9.33 115.7 -3.15 117.27 -109.39 0 3.33 -123.98 9.87 -122.4 16.25 -120.62 22.48 -118.69 28.53 -116.58 34.43 -114.33 40.17 -111.9 45.71 -109.32 51.11 -106.6 56.34 -103.71 61.39 -100.67 66.29 -97.51 71.02 -94.17 75.59 -90.69 79.99 -87.07 84.23 -83.3 88.31 -79.4 92.22 -75.33 96 -71.13 99.59 -66.77 103.02 -62.28 106.31 -57.63 109.44 -52.85 112.39 -47.91 115.21 -42.83 117.84 -37.6 120.34 -32.22 122.67 -26.69 124.82 -21.02 126.85 -15.2 128.68 -9.23 130.36 -3.11 0 0zm0 0c30.2,0 54.69,26.25 54.69,58.61 0,32.36 -24.49,58.61 -54.69,58.61l0 -117.22z"/>
    </g>
    <g>
     <path class="fil0" d="M3839.34 4462.71c1234.13,0 2234.6,1049.51 2234.6,2344.14 0,1294.63 -1000.47,2344.13 -2234.6,2344.13 -1234.13,0 -2234.59,-1049.51 -2234.59,-2344.13 0,-1294.64 1000.46,-2344.14 2234.59,-2344.14z"/>
     <path id="_1_2" class="fil2" d="M6123.1 6806.85l-98.32 0 0 0 -2.83 -117.27 -8.39 -115.7 -13.81 -114 -19.1 -112.19 -24.25 -110.24 -29.28 -108.15 -34.17 -105.93 -38.94 -103.58 -43.55 -101.08 -48.06 -98.43 -52.44 -95.66 -56.66 -92.72 -60.76 -89.63 -64.74 -86.42 -68.57 -83.04 -72.28 -79.52 -75.83 -75.85 -79.26 -72.03 -82.56 -68.05 -85.7 -63.94 -88.73 -59.66 -91.59 -55.25 -94.34 -50.7 -96.95 -45.97 -99.4 -41.11 -101.73 -36.1 -103.92 -30.96 -105.96 -25.65 -107.88 -20.22 -109.66 -14.62 -111.3 -8.87 -112.81 -2.99 0 -117.22 117.17 3.11 115.67 9.23 114.01 15.2 112.19 21.02 110.26 26.69 108.16 32.22 105.93 37.6 103.55 42.83 101.02 47.91 98.38 52.85 95.55 57.63 92.61 62.28 89.51 66.77 86.28 71.13 82.9 75.33 79.38 79.4 75.72 83.3 71.89 87.08 67.94 90.69 63.84 94.17 59.58 97.5 55.19 100.67 50.64 103.72 45.93 106.6 41.1 109.32 36.09 111.9 30.95 114.32 25.65 116.59 20.2 118.69 14.61 120.62 8.87 122.4 2.99 123.98 0 0zm0 0c0,32.36 -22.01,58.61 -49.16,58.61 -27.15,0 -49.16,-26.25 -49.16,-58.61l98.32 0zm-2283.76 2402.74l0 -117.22 0 0 112.81 -2.99 111.3 -8.87 109.66 -14.62 107.88 -20.22 105.96 -25.65 103.92 -30.96 101.73 -36.1 99.4 -41.11 96.95 -45.97 94.34 -50.7 91.59 -55.25 88.73 -59.66 85.7 -63.94 82.56 -68.05 79.26 -72.03 75.83 -75.85 72.28 -79.52 68.57 -83.03 64.73 -86.42 60.77 -89.64 56.66 -92.72 52.44 -95.66 48.06 -98.43 43.55 -101.07 38.94 -103.58 34.17 -105.93 29.28 -108.16 24.25 -110.23 19.1 -112.19 13.81 -114 8.39 -115.7 2.83 -117.27 98.32 0 -2.99 123.98 -8.87 122.4 -14.61 120.62 -20.2 118.69 -25.65 116.58 -30.95 114.33 -36.09 111.9 -41.1 109.32 -45.93 106.59 -50.64 103.72 -55.19 100.67 -59.58 97.5 -63.83 94.18 -67.95 90.69 -71.89 87.07 -75.72 83.3 -79.38 79.4 -82.9 75.33 -86.28 71.13 -89.51 66.77 -92.61 62.28 -95.55 57.63 -98.38 52.85 -101.02 47.91 -103.55 42.83 -105.93 37.6 -108.16 32.22 -110.26 26.69 -112.19 21.02 -114.01 15.2 -115.67 9.23 -117.17 3.11 0 0zm0 0c-27.15,0 -49.16,-26.25 -49.16,-58.61 0,-32.36 22.01,-58.61 49.16,-58.61l0 117.22zm-2283.75 -2402.74l98.32 0 0 0 2.83 117.27 8.39 115.7 13.81 114 19.1 112.19 24.25 110.23 29.28 108.16 34.17 105.94 38.93 103.57 43.56 101.06 48.06 98.44 52.43 95.66 56.67 92.71 60.77 89.65 64.73 86.42 68.57 83.03 72.27 79.52 75.83 75.85 79.26 72.03 82.56 68.05 85.71 63.94 88.72 59.66 91.6 55.25 94.34 50.7 96.94 45.97 99.4 41.11 101.73 36.1 103.92 30.96 105.96 25.65 107.88 20.22 109.66 14.62 111.3 8.87 112.81 2.99 0 117.22 -117.17 -3.11 -115.67 -9.23 -114.01 -15.2 -112.19 -21.02 -110.26 -26.69 -108.16 -32.22 -105.93 -37.6 -103.55 -42.83 -101.03 -47.91 -98.36 -52.85 -95.56 -57.63 -92.6 -62.28 -89.52 -66.77 -86.28 -71.13 -82.9 -75.33 -79.38 -79.4 -75.71 -83.3 -71.89 -87.07 -67.95 -90.69 -63.83 -94.17 -59.59 -97.51 -55.18 -100.67 -50.64 -103.71 -45.94 -106.6 -41.09 -109.33 -36.09 -111.89 -30.95 -114.33 -25.65 -116.58 -20.2 -118.69 -14.61 -120.62 -8.87 -122.4 -2.99 -123.98 0 0zm0 0c0,-32.36 22.01,-58.61 49.16,-58.61 27.15,0 49.16,26.25 49.16,58.61l-98.32 0zm2283.75 -2402.75l0 117.22 0 0 -112.81 2.99 -111.3 8.87 -109.66 14.62 -107.88 20.22 -105.96 25.65 -103.92 30.96 -101.73 36.1 -99.4 41.11 -96.94 45.97 -94.34 50.7 -91.6 55.25 -88.72 59.66 -85.71 63.94 -82.56 68.05 -79.26 72.03 -75.83 75.85 -72.27 79.52 -68.57 83.04 -64.74 86.42 -60.76 89.64 -56.67 92.71 -52.43 95.66 -48.06 98.43 -43.56 101.08 -38.93 103.57 -34.17 105.94 -29.28 108.15 -24.25 110.24 -19.1 112.19 -13.81 114 -8.39 115.7 -2.83 117.27 -98.32 0 2.99 -123.98 8.87 -122.4 14.61 -120.62 20.2 -118.69 25.65 -116.59 30.95 -114.32 36.09 -111.89 41.09 -109.33 45.94 -106.6 50.64 -103.72 55.18 -100.67 59.59 -97.51 63.84 -94.16 67.94 -90.69 71.89 -87.08 75.71 -83.3 79.38 -79.4 82.9 -75.33 86.28 -71.13 89.52 -66.77 92.6 -62.28 95.56 -57.63 98.36 -52.85 101.03 -47.91 103.55 -42.83 105.93 -37.6 108.16 -32.22 110.26 -26.69 112.19 -21.02 114.01 -15.2 115.67 -9.23 117.17 -3.11 0 0zm0 0c27.15,0 49.16,26.25 49.16,58.61 0,32.36 -22.01,58.61 -49.16,58.61l0 -117.22z"/>
    </g>
   </g>
  </g>
  <path class="fil3" d="M1779.49 3051.64l1893.51 -1893.51c93.9,-93.9 247.54,-93.9 341.44,0l1893.51 1893.51c93.9,93.9 93.9,247.54 0,341.44l-1893.51 1893.51c-93.9,93.9 -247.54,93.9 -341.44,0l-1893.51 -1893.51c-93.9,-93.9 -93.9,-247.54 0,-341.44z"/>
  <path class="fil4" d="M6403.22 4294.01l172.25 0 153.54 -530.1c4.33,-16.03 8.5,-32.49 12.63,-49.63 3.9,-17.14 7.32,-33.16 10.52,-48.07 2.96,-14.91 5.53,-26.93 7.3,-36.28 1.73,-9.11 2.57,-14.03 2.61,-14.24l2.68 0c-0.1,0.44 0.58,5.56 1.6,15.35 1.21,10.02 2.71,22.71 4.5,38.29 1.84,15.35 3.92,31.59 6.34,48.28 2.62,16.92 5.11,32.28 7.9,46.3l73.61 367.19 150.88 0 232.16 -367.19c8.78,-14.02 17.86,-29.38 27.46,-46.07 9.35,-16.69 18.34,-32.71 26.48,-47.85 8.41,-15.35 15.09,-27.82 20.3,-37.61 5.25,-10.01 7.9,-15.13 7.95,-15.36l2.68 0c-0.05,0.23 -1.27,4.9 -3.46,14.02 -2.01,9.35 -4.75,21.15 -8.1,35.83 -3.15,14.7 -6.58,30.72 -9.77,47.64 -3.39,16.91 -6.24,33.37 -8.79,49.4l-73.42 530.1 170.91 0 126.84 -948.04 -184.26 0 -285.94 468.68c-8.38,14.25 -17.2,29.38 -25.98,45.41 -8.94,15.8 -17.08,30.91 -24.79,45.16 -7.68,14.02 -13.72,25.59 -18.52,34.5 -4.58,8.9 -7.13,13.57 -7.17,13.8l-2.67 0c0.04,-0.23 -0.52,-4.9 -1.51,-13.8 -0.98,-8.91 -2.51,-20.48 -4.18,-34.5 -1.62,-14.25 -3.73,-29.36 -5.91,-45.16 -2.13,-16.03 -4.45,-31.16 -6.74,-45.41l-85.27 -468.68 -184.26 0 -280.4 948.04zm1261.27 -340.49c-11.15,53.18 -12.44,101.7 -3.53,145.32 8.93,43.62 26.74,81.01 53.79,112.61 27.12,31.36 62.2,55.63 105.48,72.77 43.12,16.92 93.56,25.59 151.14,25.82 57.48,-0.23 111.19,-8.9 161.54,-25.82 50.4,-17.14 95.87,-41.4 136.19,-72.77 40.37,-31.6 74.42,-68.99 101.77,-112.61 27.58,-43.61 47.1,-92.13 58.71,-145.32l130.06 -607.55 -172.24 0 -129.79 606.21c-9.36,42.72 -26.08,79.23 -49.78,108.83 -23.73,29.81 -53.09,52.52 -88.02,68.09 -34.66,15.36 -73.55,23.37 -116.04,23.37 -42.51,0 -77.79,-7.78 -105.83,-23.37 -27.84,-15.58 -47.28,-38.05 -58.06,-67.65 -11.02,-29.59 -12.03,-65.42 -3.16,-107.93l130.06 -607.55 -172.24 0 -130.07 607.55zm919.21 340.49l582.17 0 31.73 -148.21 -409.92 0 171.22 -799.83 -172.25 0 -202.96 948.04zm839.87 0l172.26 0 171.22 -799.82 311.11 0 31.72 -148.22 -794.46 0 -31.73 148.22 311.11 0 -171.22 799.82zm608.88 0l172.25 0 202.96 -948.04 -172.26 0 -202.95 948.04zm383.22 0l172.24 0 153.55 -530.1c4.32,-16.03 8.5,-32.49 12.63,-49.63 3.9,-17.14 7.31,-33.16 10.51,-48.07 2.96,-14.91 5.54,-26.93 7.31,-36.28 1.72,-9.11 2.56,-14.03 2.6,-14.24l2.68 0c-0.09,0.44 0.59,5.56 1.61,15.35 1.21,10.02 2.71,22.71 4.5,38.29 1.83,15.35 3.92,31.59 6.34,48.28 2.61,16.92 5.11,32.28 7.9,46.3l73.61 367.19 150.87 0 232.17 -367.19c8.78,-14.02 17.86,-29.38 27.46,-46.07 9.35,-16.69 18.34,-32.71 26.48,-47.85 8.41,-15.35 15.08,-27.82 20.29,-37.61 5.26,-10.01 7.9,-15.13 7.96,-15.36l2.68 0c-0.05,0.23 -1.28,4.9 -3.47,14.02 -2,9.35 -4.75,21.15 -8.1,35.83 -3.14,14.7 -6.57,30.72 -9.76,47.64 -3.4,16.91 -6.24,33.37 -8.79,49.4l-73.43 530.1 170.92 0 126.84 -948.04 -184.26 0 -285.95 468.68c-8.38,14.25 -17.19,29.38 -25.97,45.41 -8.94,15.8 -17.08,30.91 -24.8,45.16 -7.67,14.02 -13.72,25.59 -18.51,34.5 -4.58,8.9 -7.13,13.57 -7.17,13.8l-2.67 0c0.04,-0.23 -0.52,-4.9 -1.52,-13.8 -0.98,-8.91 -2.5,-20.48 -4.18,-34.5 -1.62,-14.25 -3.73,-29.36 -5.91,-45.16 -2.12,-16.03 -4.45,-31.16 -6.73,-45.41l-85.27 -468.68 -184.27 0 -280.39 948.04zm1201.72 0l588.85 0 31.73 -148.21 -416.59 0 54.59 -255.03 319.12 0 31.73 -148.22 -319.12 0 53.16 -248.35 395.23 0 31.73 -148.22 -567.5 0 -202.96 948.04zm767.77 0l323.14 0c73.47,-0.23 142.09,-10.91 205.84,-32.27 63.78,-21.36 121.14,-52.3 172.4,-93.24 51.06,-40.96 94.17,-90.57 129.45,-149.33 35.29,-58.75 61.14,-125.51 77.41,-200.51 15.85,-75 18.52,-141.54 8.34,-200.06 -10.17,-58.53 -32.08,-107.94 -65.69,-148.44 -33.83,-40.51 -77.94,-71.44 -132.67,-92.36 -54.66,-21.13 -118.71,-31.82 -192.15,-31.82l-323.13 0 -202.96 948.04zm204 -148.21l139.49 -651.61 141.53 0c47.63,0 89.05,7.12 124.83,20.92 35.48,14.02 64.22,34.71 86.19,62.08 21.67,27.61 35.8,61.43 42.08,101.7 6.28,40.29 3.63,87.02 -7.45,139.76 -15.47,71.22 -41.45,131.3 -77.44,179.82 -35.97,48.52 -80.31,85.23 -132.57,109.93 -52.3,24.93 -110.6,37.4 -175.14,37.4l-141.52 0zm782.76 148.21l172.26 0 202.96 -948.04 -172.26 0 -202.96 948.04zm450.09 -480.7c-11.78,56.08 -15.11,109.05 -9.76,158.9 5.14,49.85 18.1,95.24 38.67,136.41 20.56,41.17 47.83,77 81.94,106.82 34.07,30.05 74.03,53.41 119.95,69.66 46.1,16.46 96.88,24.7 152.9,24.93 56.13,-0.23 110.63,-8.47 163.55,-24.93 52.89,-16.25 102.85,-39.61 149.78,-69.66 46.9,-29.81 89.49,-65.64 127.69,-106.82 38.19,-41.17 70.62,-86.57 97.09,-136.41 26.7,-49.86 46.05,-102.82 58.27,-158.9 11.46,-54.52 14.45,-105.92 8.8,-154.45 -5.41,-48.51 -18.63,-92.78 -39.42,-132.85 -20.81,-40.06 -48.32,-74.78 -82.58,-103.93 -34.21,-29.36 -74.35,-51.86 -120.34,-67.87 -45.96,-16.03 -97,-24.04 -153.03,-24.27 -56.12,0.23 -110.37,8.24 -163.42,24.27 -52.83,16.02 -102.59,38.51 -149.39,67.87 -46.75,29.16 -89.11,63.88 -127.05,103.93 -37.97,40.07 -70.15,84.34 -96.33,132.85 -26.42,48.53 -45.42,99.92 -57.32,154.45zm177.59 0c10.27,-46.95 27.8,-90.35 52.26,-129.73 24.5,-39.63 54.14,-74.12 88.86,-103.27 34.55,-29.36 72.58,-52.08 113.89,-68.31 41.03,-16.03 83.52,-24.26 127.18,-24.49 43.57,0.23 82.54,8.46 116.94,24.49 34.13,16.24 62.43,38.95 84.62,68.31 22.25,29.16 37.12,63.65 44.44,103.27 7.58,39.38 6.52,82.78 -3.29,129.73 -10.71,48.96 -28.63,94.14 -53.46,135.31 -24.6,41.16 -54.54,76.99 -89.54,107.49 -34.96,30.25 -73.23,54.06 -114.4,70.77 -41.45,16.92 -83.98,25.36 -127.66,25.59 -43.56,-0.23 -82.48,-8.67 -116.47,-25.59 -34.26,-16.71 -62.32,-40.52 -84.11,-70.77 -21.95,-30.49 -36.54,-66.32 -43.75,-107.49 -7.21,-41.17 -5.76,-86.36 4.5,-135.31zm826.7 367.2c-0.1,0.44 3.62,4.9 10.89,13.58 7.32,8.46 18.59,19.13 33.64,32.04 15.31,12.68 34.8,25.59 58.34,38.29 23.73,12.91 51.72,23.58 84.39,32.04 32.63,8.68 69.96,13.12 112.14,13.58 49.47,-0.23 95.1,-7.56 136.96,-22.26 41.82,-14.46 78.81,-34.49 111,-60.08 32.19,-25.6 58.95,-54.97 80.12,-88.35 20.93,-33.38 35.68,-68.99 43.83,-107.04 7.83,-37.62 8.43,-70.56 1.96,-98.59 -6.44,-28.05 -18.15,-52.31 -34.93,-72.78 -16.75,-20.47 -36.75,-38.28 -59.95,-53.63 -23.24,-15.13 -47.49,-28.71 -73.23,-40.51 -25.7,-12.02 -50.37,-23.58 -74.51,-34.49 -24.16,-10.9 -45.49,-22.48 -64.05,-34.5 -18.57,-12.02 -32.54,-25.81 -41.72,-41.15 -9.16,-15.37 -11.76,-33.39 -7.5,-54.31 5.03,-22.47 15.7,-42.06 31.81,-59.19 16.32,-16.91 36.09,-30.26 59.72,-39.84 23.4,-9.57 48.67,-14.24 75.64,-14.47 23.77,0.23 45.63,3.12 65.56,8.67 20,5.35 37.68,12.25 53.27,20.48 15.64,8.01 29.02,16.24 39.71,24.48 10.93,8.23 19.28,14.91 24.76,20.48 5.73,5.56 8.66,8.44 8.61,8.67l104.79 -140.2c0.06,-0.23 -2.98,-3.8 -9.28,-10.69 -6.14,-6.67 -15.68,-15.13 -28.9,-25.14 -12.98,-10.01 -29.74,-20.03 -50.31,-30.04 -20.56,-10.01 -45.27,-18.25 -73.85,-25.15 -28.62,-6.67 -61.69,-10.24 -99.02,-10.47 -45.67,0.23 -89.2,7.12 -130.62,20.71 -41.67,13.79 -79.15,32.93 -113.13,57.63 -34.07,24.93 -62.3,53.86 -85.45,87.24 -22.96,33.38 -38.79,69.88 -47.47,109.49 -7.56,36.28 -7.86,67.88 -1.22,95.03 6.82,27.39 18.68,50.97 35.49,71.22 17.04,20.24 37.03,38.05 60.24,53.4 23.19,15.37 47.61,29.17 73.2,41.61 25.64,12.25 50.44,24.26 74.46,35.83 24.04,11.36 45.46,23.6 63.89,36.28 18.69,12.46 32.34,26.71 41.59,42.73 9.08,15.8 11.57,34.27 7.32,55.19 -5.76,25.81 -17.01,47.17 -33.32,64.09 -16.34,17.14 -35.75,29.81 -58.47,38.28 -22.46,8.24 -45.84,12.46 -70.32,12.46 -26.66,-0.21 -51.27,-3.79 -73.66,-10.45 -22.38,-6.67 -42.21,-14.92 -59.69,-24.7 -17.45,-10.02 -32.26,-19.81 -44.36,-29.82 -12.15,-9.8 -21.29,-18.02 -27.65,-24.71 -6.35,-6.67 -9.6,-10.23 -9.55,-10.46l-121.2 129.52z"/>
  <path class="fil4" d="M7001.77 1894.87l286.25 0 -220.14 1057.99 419.74 0 -50.82 244.23 -706 0 270.97 -1302.22zm985.27 0l288.18 0 100.92 1302.22 -292.75 0 -8.84 -268.97 -366.35 0 -120.11 268.97 -263.12 0 662.06 -1302.22zm79.62 809.85l-20.34 -531.44 -237.24 531.44 257.58 0zm976.96 -809.85l409.33 0c79.45,0 139.6,3.58 180.38,11.07 40.83,7.16 79.36,27.03 116.03,58.94 36.61,32.23 61.32,76.2 74.16,131.88 12.83,55.69 12.26,117.89 -2.17,187.25 -33.88,162.81 -118.95,277.44 -254.81,343.54l121.17 569.55 -311.95 0 -66.7 -515.16 -142.95 0 -107.2 515.16 -286.25 0 270.97 -1302.22zm242.4 210.68l-76.03 365.36 126.02 0c111.68,0 180.71,-62.52 206.79,-187.88 8.94,-42.99 8.19,-78.47 -2.66,-106.16 -10.85,-27.69 -26.14,-46.56 -45.91,-56.34 -20.12,-9.76 -51.28,-14.98 -93.93,-14.98l-114.29 0zm745.78 -210.68l791.97 0 -46.48 223.38 -505.72 0 -62.89 302.19 393.04 0 -46.68 224.36 -393.04 0 -66.47 319.47 505.72 0 -48.45 232.82 -791.97 0 270.97 -1302.22zm855.33 0l308.05 0c133.52,0 238.57,17.9 314.79,53.72 76.18,36.14 129.17,102.25 159.19,198.97 30.35,96.72 28.18,227.62 -6.03,392.07 -24.39,117.23 -61.32,221.11 -110.76,311.63 -49.46,90.53 -104.43,162.17 -164.76,214.27 -60.33,52.11 -123.6,86.96 -189.83,104.86 -65.93,17.9 -145.59,26.7 -239.04,26.7l-342.59 0 270.97 -1302.22zm239.77 223.38l-177.88 854.81 48.52 0c66.11,0 120.26,-13.03 161.69,-38.43 41.43,-25.41 79.63,-69.7 114.6,-132.87 34.7,-63.5 64.42,-154.68 89.35,-274.52 22.97,-110.4 29,-195.7 17.38,-255.62 -11.38,-59.6 -32.87,-100.29 -64.29,-121.47 -31.34,-21.49 -78.34,-31.91 -140.87,-31.91l-48.51 0z"/>
 </g>
</svg>
