<?xml version="1.0" encoding="UTF-8"?>
<!DOCTYPE svg PUBLIC "-//W3C//DTD SVG 1.1//EN" "http://www.w3.org/Graphics/SVG/1.1/DTD/svg11.dtd">
<!-- Creator: CorelDRAW (Versión de evaluación) -->
<svg xmlns="http://www.w3.org/2000/svg" xml:space="preserve" width="167.584mm" height="64.1468mm" version="1.1" style="shape-rendering:geometricPrecision; text-rendering:geometricPrecision; image-rendering:optimizeQuality; fill-rule:evenodd; clip-rule:evenodd"
viewBox="0 0 16744.11 6409.22"
 xmlns:xlink="http://www.w3.org/1999/xlink"
 xmlns:xodm="http://www.corel.com/coreldraw/odm/2003">
 <defs>
  <style type="text/css">
   <![CDATA[
    .fil0 {fill:black}
    .fil1 {fill:white;fill-rule:nonzero}
   ]]>
  </style>
 </defs>
 <g id="Capa_x0020_1">
  <metadata id="CorelCorpID_0Corel-Layer"/>
  <rect class="fil0" x="-0" width="16744.11" height="6409.22"/>
  <g id="_2125902158256">
   <path class="fil1" d="M3376.52 2768.85l-337.04 1488.14 -288.18 0 -200.42 -571.9c-54.28,-156.18 -87.26,-280 -98.25,-371.47 -0.53,22.31 -1.28,39.41 -2.31,52.06 -3.34,40.91 -12.6,94.82 -27.44,161.75l-165.72 729.57 -315.4 0 337.05 -1488.14 349.06 0 114.06 344.34c78.99,238.36 128.73,414.62 148.95,528.03 0.45,-29.38 1.3,-51.7 2.45,-65.82 3.43,-42.02 18.43,-122.72 45.3,-241.69l128.32 -564.85 309.56 0zm496.92 1526.07c-152.84,0 -280.9,-57.63 -383.86,-172.91 -102.98,-114.89 -145.87,-280 -128.3,-495.3 20.32,-249.14 100.4,-460.72 240.24,-634.74 140.15,-174.03 311.42,-261.04 514.12,-261.04 162.55,0 290.66,60.99 385.01,182.57 94.34,121.59 133.48,281.12 117.42,477.82 -20.49,251.37 -99.76,464.81 -238.09,640.32 -138.01,175.51 -306.75,263.27 -506.54,263.27zm30.79 -345.83c66.05,0 118.91,-32.72 158.86,-97.79 39.64,-65.07 74.63,-160.64 104.66,-286.7 30.33,-125.69 47.31,-210.84 50.96,-255.46 6.21,-76.23 -4.27,-134.24 -31.2,-173.28 -27.23,-39.42 -65.76,-59.12 -115.63,-59.12 -95.52,0 -169.19,77.34 -220.68,232.4 -51.19,155.07 -81.8,292.27 -91.54,411.64 -12.41,152.08 35.77,228.31 144.58,228.31zm1478.14 -841.1l-260.81 1149 -375.94 0 260.81 -1149 -277.82 0 78.03 -341.37 938.72 0 -77.39 341.37 -285.6 0zm858.56 -339.14l-337.36 1488.14 -368.18 0 337.04 -1488.14 368.5 0zm746.41 912.52l343.59 51.31c-53.73,162.5 -133.91,296 -240.8,399.74 -106.58,103.75 -234.85,155.81 -384.77,155.81 -162.55,0 -286.6,-63.22 -371.77,-190.01 -85.51,-126.81 -120.14,-289.67 -103.94,-488.24 18.71,-229.42 94.55,-432.83 227.15,-609.45 132.61,-176.64 302.36,-265.13 509.29,-265.13 150.56,0 268.01,52.81 352.62,158.78 84.62,105.97 120.82,245.78 108.57,419.81l-367.75 30.49c6.17,-91.47 -0.59,-159.52 -19.9,-204.53 -19.64,-44.98 -56.98,-67.67 -112.34,-67.67 -95.53,0 -167.29,81.81 -215.58,245.05 -47.96,163.24 -75.91,291.52 -83.55,385.23 -12.44,152.46 32.5,228.69 135.15,228.69 50.84,0 93.24,-19.7 127.83,-58.75 34.27,-39.05 66.33,-102.63 96.22,-191.13zm1075.98 -912.52l-337.36 1488.14 -368.18 0 337.04 -1488.14 368.5 0zm605.37 1184.71l-351 0 -143.27 303.43 -320.9 0 720.76 -1488.14 408.31 0 77.44 1488.14 -382.09 0 -9.25 -303.43zm-1.76 -307.89l-14.39 -430.97 -204.19 430.97 218.57 0zm1777.86 -529.88l-340.14 97.05c-5.78,-44.25 -26.9,-79.2 -62.72,-104.49 -35.79,-25.66 -76.53,-38.3 -121.87,-38.3 -85.49,0 -130.9,32.72 -136.2,97.8 -1.73,21.19 2.94,39.42 13.71,54.29 10.74,15.25 42.86,34.21 96.39,56.88l198.77 84.05c51.98,21.56 99.21,53.91 141.74,96.3 42.51,42.39 72.08,88.87 88.07,139.08 16.27,50.57 21.91,104.48 17.24,161.74 -12.25,150.23 -73.52,274.06 -184.16,372.22 -110.63,97.8 -251.6,146.88 -422.57,146.88 -146.69,0 -271.48,-34.21 -374.7,-102.63 -103.54,-68.42 -170.78,-172.9 -202.42,-313.09l379.89 -84.04c23.44,105.61 98.79,158.41 225.4,158.41 52.79,0 92.22,-11.16 117.64,-33.09 25.47,-22.31 39.16,-47.22 41.48,-75.86 1.46,-17.85 -1.77,-33.84 -9.71,-47.6 -8.26,-13.76 -17.16,-23.8 -27.01,-30.11 -9.88,-5.95 -57.33,-27.52 -142.12,-63.97 -114.51,-49.08 -194.51,-88.49 -239.72,-117.88 -44.88,-29.36 -81.12,-73.25 -108.1,-131.62 -27,-58.02 -37.29,-126.43 -30.89,-204.9 11.11,-136.09 63.87,-251.01 158.33,-345.08 94.45,-94.08 231.39,-141.31 410.13,-141.31 136.31,0 250.53,33.1 342.26,99.3 92.1,65.81 149.16,156.18 171.29,269.96z"/>
   <path class="fil1" d="M2607.07 1079.09l340.85 0 -262.14 1259.8 499.8 0 -60.51 290.81 -840.65 0 322.65 -1550.61zm1173.2 0l343.16 0 120.17 1550.61 -348.58 0 -10.54 -320.28 -436.21 0 -143.03 320.28 -313.29 0 788.33 -1550.61zm94.81 964.33l-24.22 -632.8 -282.49 632.8 306.71 0zm1163.29 -964.33l487.41 0c94.61,0 166.23,4.27 214.78,13.19 48.62,8.53 94.5,32.18 138.16,70.18 43.59,38.39 73.02,90.73 88.3,157.04 15.28,66.31 14.6,140.37 -2.59,222.97 -40.34,193.86 -141.63,330.35 -303.41,409.06l144.28 678.17 -371.45 0 -79.42 -613.42 -170.23 0 -127.63 613.42 -340.85 0 322.65 -1550.61zm288.64 250.88l-90.52 435.05 150.05 0c133,0 215.18,-74.45 246.25,-223.72 10.64,-51.2 9.74,-93.45 -3.18,-126.41 -12.92,-32.96 -31.11,-55.44 -54.66,-67.08 -23.96,-11.62 -61.05,-17.83 -111.84,-17.83l-136.09 0zm888.03 -250.88l943.02 0 -55.34 265.99 -602.18 0 -74.89 359.83 468.01 0 -55.58 267.15 -468.01 0 -79.14 380.4 602.17 0 -57.68 277.23 -943.02 0 322.65 -1550.61zm1018.47 0l366.81 0c158.98,0 284.06,21.33 374.84,63.98 90.69,43.04 153.79,121.77 189.56,236.93 36.14,115.16 33.54,271.03 -7.19,466.84 -29.05,139.59 -73.02,263.29 -131.89,371.07 -58.88,107.8 -124.33,193.11 -196.17,255.13 -71.84,62.05 -147.18,103.54 -226.05,124.86 -78.5,21.32 -173.35,31.79 -284.63,31.79l-407.92 0 322.65 -1550.61zm285.5 265.99l-211.8 1017.85 57.76 0c78.72,0 143.21,-15.51 192.55,-45.75 49.33,-30.25 94.82,-82.99 136.45,-158.21 41.32,-75.62 76.7,-184.19 106.4,-326.88 27.36,-131.45 34.53,-233.03 20.69,-304.37 -13.56,-70.97 -39.15,-119.43 -76.54,-144.64 -37.33,-25.59 -93.29,-38.01 -167.75,-38.01l-57.76 0z"/>
   <path class="fil1" d="M10549.36 4292.97c-50.61,0 -89.92,-17.45 -118,-51.97 -28.36,-34.89 -38.3,-77.56 -30.45,-128.41 8.08,-52.35 31.87,-95.02 71.43,-128.43 39.9,-33.4 85.48,-50.11 137.08,-50.11 52.58,0 92.61,17.09 120.81,50.85 27.93,33.41 37.87,76.09 29.9,127.69 -8.13,52.7 -31.71,96.12 -70.67,129.9 -39.29,33.77 -85.85,50.48 -140.1,50.48zm675.08 -1316.87c-51.61,0 -91.3,-17.08 -118.73,-51.6 -27.74,-34.51 -37.81,-76.45 -30.06,-126.56 7.96,-51.59 30.97,-93.53 69.1,-126.19 37.78,-32.66 82.65,-48.99 134.25,-48.99 52.6,0 92.42,16.33 120.12,48.99 27.37,32.66 37.44,74.61 29.46,126.19 -8.02,51.97 -31.21,95.02 -68.78,128.42 -37.85,33.03 -82.77,49.74 -135.35,49.74zm-47.99 1289.77l-305.97 0 171.92 -1113.47 305.98 0 -171.93 1113.47zm1131.96 0l-305.29 0 95.53 -618.71c26.66,-172.59 -14.97,-258.7 -124.78,-258.7 -52.92,0 -100.07,22.64 -141.2,68.29 -41.44,45.65 -67.64,103.92 -78.47,174.07l-98.06 635.05 -305.97 0 171.92 -1113.47 305.98 0 -27.23 176.3 3.97 0c94.08,-135.84 210.68,-203.4 350.27,-203.4 219.63,0 305.83,152.92 258.61,458.76l-105.28 681.81zm1019.38 -1385.16c-36.68,-17.45 -73.34,-26.35 -109.39,-26.35 -98.25,0 -156.43,59.75 -174.93,179.64l-18.28 118.4 226.57 0 -39.14 253.5 -226.57 0 -132.79 859.97 -305.31 0 132.79 -859.97 -166.72 0 39.15 -253.5 166.71 0 21.33 -138.07c19.6,-126.93 72.07,-229 157.81,-306.58 85.41,-77.56 191.65,-116.54 318.34,-116.54 61.85,0 112.63,7.42 151.75,21.9l-41.31 267.6zm283.77 1412.26c-165.38,0 -287.36,-51.97 -365.9,-155.89 -78.56,-103.92 -104.03,-245.34 -76.52,-423.49 28.43,-184.09 99.68,-328.48 213.96,-432.4 114.29,-103.92 255.29,-155.89 422.33,-155.89 164.71,0 286.03,51.97 363.6,155.89 77.55,103.92 103.26,241.62 76.84,412.73 -28.54,184.83 -99.42,331.07 -212.56,438.34 -113.14,107.27 -253.71,160.71 -421.75,160.71zm147.6 -904.51c-72.44,0 -132.97,27.84 -181.59,83.51 -48.69,56.05 -81.07,135.1 -96.83,237.17 -33.01,213.79 27.56,320.68 181.37,320.68 146.54,0 236.93,-109.86 270.79,-329.21 32.16,-208.22 -25.88,-312.14 -173.74,-312.14z"/>
   <path class="fil1" d="M2201.61 5126.84l-409.42 0 142.68 -682.54 393.66 0 -26.16 125.1 -239.81 0 -31.75 151.91 223.23 0 -26.05 124.61 -223.24 0 -32.64 156.14 255.57 0 -26.08 124.77zm212.43 0l-150.28 0 150.83 -721.53 150.29 0 -150.84 721.53zm557.12 -564.58c-25.35,0 -44.58,-7.47 -57.51,-22.58 -13.08,-15.12 -17.37,-33.47 -12.78,-55.4 4.72,-22.59 16.68,-40.95 35.91,-55.24 19.07,-14.3 41.36,-21.45 66.7,-21.45 25.84,0 45.15,7.15 58.23,21.45 12.94,14.3 17.23,32.65 12.51,55.24 -4.77,22.74 -16.83,41.58 -35.8,56.21 -19.1,14.46 -41.43,21.77 -67.26,21.77zm-43.78 564.58l-150.28 0 101.88 -487.41 150.29 0 -101.89 487.41zm564.85 0l-149.96 0 56.61 -270.84c15.8,-75.55 -3.3,-113.24 -57.23,-113.24 -26.01,0 -49.52,9.92 -70.43,29.9 -21.07,19.98 -34.86,45.48 -41.27,76.19l-58.11 277.99 -150.29 0 101.89 -487.41 150.28 0 -16.13 77.18 1.95 0c48.34,-59.47 106.68,-89.04 175.24,-89.04 107.88,0 147.82,66.94 119.84,200.81l-62.39 298.47zm382.25 -5.69c-24.7,11.69 -59.4,17.55 -104.07,17.55 -105.93,0 -147.53,-55.08 -124.54,-165.07l46.67 -223.23 -78.96 0 23.19 -110.98 78.96 0 21.98 -105.11 158.91 -42.89 -30.94 148 109.51 0 -23.19 110.98 -109.51 0 -41.2 197.07c-10.59,50.69 4.26,76.04 44.54,76.04 15.93,0 33.28,-4.55 51.96,-13.81l-23.3 111.46zm527.15 -195.12l-317.94 0c-9.75,70.67 27.53,106.09 111.53,106.09 53.61,0 103.38,-12.67 149.29,-38.02l-22.69 108.53c-50.03,24.04 -111.03,36.07 -183.16,36.07 -78.63,0 -135.17,-21.77 -169.59,-65.47 -34.27,-43.54 -43.3,-104.47 -27,-182.45 16.92,-80.91 53.72,-145.09 110.72,-192.37 56.85,-47.28 119.45,-70.84 188.01,-70.84 71,0 121.66,21.13 151.69,63.21 30,42.24 37.5,99.6 22.39,171.89l-13.25 63.37zm-120.07 -92.45c14.57,-69.69 -6.39,-104.63 -62.94,-104.63 -24.04,0 -47.08,9.91 -68.8,29.89 -21.89,19.98 -37.68,45.01 -47.79,74.74l179.53 0zm526.54 -58.49c-16.14,-9.9 -36.23,-14.78 -60.28,-14.78 -32.66,0 -60.67,12.02 -84.2,35.9 -23.37,24.05 -39.44,56.54 -48.06,97.81l-48.67 232.82 -150.28 0 101.88 -487.41 150.28 0 -18.91 90.5 1.96 0c37.7,-66.12 87.33,-99.11 149.23,-99.11 15.92,0 27.86,1.94 36.01,5.69l-28.97 138.58zm161.72 -212.83c-25.35,0 -44.58,-7.47 -57.51,-22.58 -13.08,-15.12 -17.37,-33.47 -12.78,-55.4 4.72,-22.59 16.68,-40.95 35.91,-55.24 19.07,-14.3 41.36,-21.45 66.7,-21.45 25.84,0 45.15,7.15 58.24,21.45 12.93,14.3 17.22,32.65 12.5,55.24 -4.77,22.74 -16.83,41.58 -35.8,56.21 -19.1,14.46 -41.43,21.77 -67.26,21.77zm-43.78 564.58l-150.28 0 101.88 -487.41 150.29 0 -101.89 487.41zm323.85 11.86c-81.23,0 -140.32,-22.75 -177.29,-68.24 -36.95,-45.49 -47.25,-107.39 -30.94,-185.37 16.86,-80.59 54.11,-143.79 111.87,-189.28 57.76,-45.49 127.83,-68.24 209.87,-68.24 80.91,0 139.67,22.75 176.15,68.24 36.47,45.49 46.94,105.77 31.28,180.67 -16.92,80.91 -54.01,144.92 -111.28,191.88 -57.26,46.95 -127.14,70.35 -209.67,70.35zm86.67 -395.94c-35.58,0 -65.73,12.19 -90.49,36.56 -24.79,24.54 -41.94,59.14 -51.28,103.81 -19.56,93.59 8.51,140.38 84.06,140.38 71.97,0 118.09,-48.09 138.17,-144.11 19.05,-91.14 -7.83,-136.64 -80.46,-136.64zm638.51 32.33c-16.14,-9.9 -36.23,-14.78 -60.28,-14.78 -32.66,0 -60.67,12.02 -84.2,35.9 -23.37,24.05 -39.44,56.54 -48.06,97.81l-48.67 232.82 -150.29 0 101.89 -487.41 150.28 0 -18.91 90.5 1.96 0c37.7,-66.12 87.33,-99.11 149.22,-99.11 15.93,0 27.86,1.94 36.02,5.69l-28.97 138.58zm528.55 346.07c-24.7,11.69 -59.4,17.55 -104.07,17.55 -105.94,0 -147.54,-55.08 -124.55,-165.07l46.67 -223.23 -78.96 0 23.19 -110.98 78.97 0 21.97 -105.11 158.92 -42.89 -30.94 148 109.51 0 -23.19 110.98 -109.51 0 -41.2 197.07c-10.6,50.69 4.25,76.04 44.54,76.04 15.92,0 33.28,-4.55 51.96,-13.81l-23.3 111.46zm456.58 5.69l-142.32 0 14.64 -70.02 -1.95 0c-44.07,54.58 -98.2,81.88 -162.38,81.88 -47.27,0 -81.68,-13.33 -103.21,-40.13 -21.53,-26.82 -27.51,-62.72 -18.16,-107.4 19.76,-94.56 87.23,-149.14 202.22,-163.76l136.08 -17.56c11.14,-53.28 -12.21,-79.93 -70.04,-79.93 -58,0 -116.84,17.22 -176.39,51.83l23.67 -113.24c23.23,-10.88 53.79,-20.3 91.92,-28.6 37.96,-8.28 71.95,-12.35 101.85,-12.35 138.91,0 193.93,69.38 164.96,207.96l-60.89 291.31zm-99.95 -198.05l6.86 -32.82 -90.91 11.38c-50.24,6.33 -79.22,28.43 -87.14,66.28 -3.57,17.06 -0.68,31.19 8.9,42.07 9.75,10.89 24.69,16.42 44.99,16.42 28.28,0 53.22,-9.75 75.17,-29.25 21.78,-19.49 35.89,-44.19 42.12,-74.09zm960.32 198.05l-149.95 0 58.11 -277.99c14.8,-70.83 -3.83,-106.09 -55.81,-106.09 -24.69,0 -47.05,10.56 -67.1,31.84 -20.04,21.29 -33.37,47.77 -40,79.45l-57.02 272.79 -150.28 0 58.72 -280.91c14.37,-68.72 -4.1,-103.17 -55.11,-103.17 -25.68,0 -48.42,10.07 -67.94,30.38 -19.67,20.31 -33.25,47.93 -40.55,82.86l-56.62 270.84 -150.28 0 101.88 -487.41 150.29 0 -15.94 76.21 1.96 0c21.03,-25.99 47.25,-47.28 78.76,-63.53 31.52,-16.41 63.94,-24.54 97.24,-24.54 68.89,0 109.69,30.22 122.36,90.82 49.89,-60.6 110.63,-90.82 182.76,-90.82 105.93,0 145.25,65.31 117.91,196.1l-63.39 303.17zm250.61 -56.7l-1.95 0 -11.85 56.7 -150.29 0 150.84 -721.53 150.28 0 -64.27 307.39 1.95 0c49.07,-56.7 107.81,-85.14 176.37,-85.14 62.72,0 106.62,21.62 131.57,64.67 24.92,43.2 29.65,102.18 14,177.08 -16.99,81.24 -50.43,146.39 -100.35,195.61 -50.11,49.24 -108.19,73.77 -174.48,73.77 -59.95,0 -100.51,-22.75 -121.82,-68.56zm38.74 -205.52l-10.43 49.88c-6.58,31.52 -3.08,57.51 10.8,78.15 13.73,20.62 34.82,30.86 63.09,30.86 34.11,0 63.52,-13.16 87.91,-39.64 24.38,-26.49 41.81,-64.02 51.96,-112.59 8.42,-40.3 6.24,-71.82 -6.22,-94.56 -12.66,-22.59 -34.81,-33.96 -66.98,-33.96 -30.05,0 -57.42,11.22 -81.95,33.8 -24.52,22.42 -40.59,51.82 -48.16,88.06zm563.22 -302.35c-25.35,0 -44.58,-7.47 -57.51,-22.58 -13.08,-15.12 -17.37,-33.47 -12.78,-55.4 4.72,-22.59 16.68,-40.95 35.91,-55.24 19.08,-14.3 41.36,-21.45 66.71,-21.45 25.83,0 45.14,7.15 58.23,21.45 12.93,14.3 17.22,32.65 12.5,55.24 -4.76,22.74 -16.83,41.58 -35.8,56.21 -19.1,14.46 -41.42,21.77 -67.26,21.77zm-43.77 564.58l-150.29 0 101.89 -487.41 150.28 0 -101.88 487.41zm573.99 -200.81l-317.94 0c-9.75,70.67 27.53,106.09 111.53,106.09 53.61,0 103.38,-12.67 149.29,-38.02l-22.69 108.53c-50.03,24.04 -111.03,36.07 -183.16,36.07 -78.64,0 -135.17,-21.77 -169.59,-65.47 -34.27,-43.54 -43.3,-104.47 -27,-182.45 16.92,-80.91 53.72,-145.09 110.72,-192.37 56.84,-47.28 119.45,-70.84 188.01,-70.84 71,0 121.66,21.13 151.69,63.21 29.99,42.24 37.5,99.6 22.39,171.89l-13.25 63.37zm-120.07 -92.45c14.57,-69.69 -6.39,-104.63 -62.94,-104.63 -24.05,0 -47.08,9.91 -68.8,29.89 -21.89,19.98 -37.68,45.01 -47.79,74.74l179.53 0zm165.7 -425.02l-181.12 153.7 -108.54 0 155.94 -153.7 133.72 0zm440.03 718.28l-149.96 0 56.62 -270.84c15.8,-75.55 -3.3,-113.24 -57.23,-113.24 -26.01,0 -49.52,9.92 -70.43,29.9 -21.08,19.98 -34.86,45.48 -41.27,76.19l-58.11 277.99 -150.29 0 101.89 -487.41 150.28 0 -16.13 77.18 1.95 0c48.34,-59.47 106.68,-89.04 175.24,-89.04 107.88,0 147.82,66.94 119.84,200.81l-62.4 298.47zm835.24 -200.81l-317.95 0c-9.74,70.67 27.54,106.09 111.54,106.09 53.61,0 103.38,-12.67 149.29,-38.02l-22.69 108.53c-50.03,24.04 -111.04,36.07 -183.17,36.07 -78.63,0 -135.17,-21.77 -169.58,-65.47 -34.27,-43.54 -43.3,-104.47 -27,-182.45 16.91,-80.91 53.72,-145.09 110.72,-192.37 56.84,-47.28 119.45,-70.84 188.01,-70.84 71,0 121.66,21.13 151.69,63.21 29.99,42.24 37.5,99.6 22.39,171.89l-13.25 63.37zm-120.08 -92.45c14.58,-69.69 -6.38,-104.63 -62.93,-104.63 -24.05,0 -47.08,9.91 -68.8,29.89 -21.89,19.98 -37.68,45.01 -47.8,74.74l179.53 0zm105.73 280.42l25.48 -121.85c21.74,14.94 44.12,26 67.13,33.3 23,7.31 45.47,10.89 67.41,10.89 26.64,0 48.52,-3.58 65.31,-10.89 16.97,-7.3 26.91,-18.36 30.03,-33.3 2,-9.58 0.26,-17.56 -5.41,-23.88 -5.67,-6.34 -13.45,-11.87 -23.51,-16.58 -9.89,-4.72 -21,-9.1 -33.22,-12.84 -12.19,-3.9 -23.8,-8.12 -34.84,-12.83 -17.8,-7.31 -33.2,-15.28 -46.26,-23.56 -13.01,-8.45 -23.32,-18.19 -31.05,-29.4 -7.6,-11.05 -12.55,-23.88 -14.69,-38.51 -2.16,-14.63 -1.32,-31.85 2.87,-51.84 5.71,-27.29 16.65,-50.85 32.6,-70.5 15.99,-19.66 35.26,-35.75 57.69,-48.26 22.45,-12.52 47.12,-21.77 73.86,-27.63 26.74,-5.84 53.99,-8.77 81.61,-8.77 21.6,0 43.03,1.64 64.59,5.05 21.57,3.25 42.48,8.12 62.77,14.46l-24.28 116.16c-16.83,-11.21 -35.41,-19.49 -56.01,-25.02 -20.62,-5.52 -41.32,-8.28 -62.29,-8.28 -9.91,0 -19.34,0.81 -28.34,2.6 -9.1,1.62 -17.45,4.23 -24.83,7.63 -7.33,3.26 -13.42,7.47 -18.27,12.84 -4.99,5.2 -8.02,11.21 -9.42,17.87 -1.83,8.77 -0.67,16.41 3.69,22.74 4.54,6.33 10.69,11.86 19,16.42 8.27,4.71 17.65,8.76 28.13,12.34 10.42,3.75 20.85,7.47 31.28,11.21 18.52,6.98 34.97,14.63 49.48,22.91 14.35,8.29 26.31,17.87 35.51,29.09 9.23,11.04 15.44,24.04 18.49,38.99 3.05,14.95 2.44,32.66 -1.88,53.29 -6.04,28.92 -17.39,53.61 -34.33,74.08 -16.8,20.47 -36.83,37.05 -60.31,49.88 -23.48,12.84 -49.5,22.26 -77.85,28.12 -28.36,5.85 -57.07,8.77 -86.33,8.77 -53.6,0 -101.43,-8.28 -143.82,-24.7zm1165.25 12.84l-149.96 0 56.62 -270.84c15.79,-75.55 -3.3,-113.24 -57.24,-113.24 -26,0 -49.52,9.92 -70.43,29.9 -21.07,19.98 -34.86,45.48 -41.27,76.19l-58.11 277.99 -150.28 0 101.88 -487.41 150.28 0 -16.13 77.18 1.95 0c48.34,-59.47 106.68,-89.04 175.24,-89.04 107.88,0 147.82,66.94 119.84,200.81l-62.39 298.47zm316.2 11.86c-81.23,0 -140.32,-22.75 -177.29,-68.24 -36.95,-45.49 -47.25,-107.39 -30.94,-185.37 16.86,-80.59 54.11,-143.79 111.87,-189.28 57.76,-45.49 127.83,-68.24 209.87,-68.24 80.91,0 139.68,22.75 176.16,68.24 36.46,45.49 46.93,105.77 31.27,180.67 -16.92,80.91 -54.01,144.92 -111.28,191.88 -57.26,46.95 -127.14,70.35 -209.67,70.35zm86.68 -395.94c-35.59,0 -65.74,12.19 -90.5,36.56 -24.79,24.54 -41.93,59.14 -51.28,103.81 -19.56,93.59 8.51,140.38 84.06,140.38 71.97,0 118.09,-48.09 138.17,-144.11 19.05,-91.14 -7.83,-136.64 -80.45,-136.64zm542.75 378.4c-24.7,11.69 -59.4,17.55 -104.07,17.55 -105.93,0 -147.53,-55.08 -124.54,-165.07l46.67 -223.23 -78.96 0 23.19 -110.98 78.96 0 21.98 -105.11 158.91 -42.89 -30.94 148 109.51 0 -23.19 110.98 -109.51 0 -41.2 197.07c-10.59,50.69 4.26,76.04 44.54,76.04 15.93,0 33.28,-4.55 51.96,-13.81l-23.3 111.46zm245.12 -558.89c-25.35,0 -44.58,-7.47 -57.51,-22.58 -13.08,-15.12 -17.37,-33.47 -12.78,-55.4 4.72,-22.59 16.68,-40.95 35.91,-55.24 19.08,-14.3 41.36,-21.45 66.71,-21.45 25.83,0 45.14,7.15 58.23,21.45 12.93,14.3 17.22,32.65 12.5,55.24 -4.76,22.74 -16.83,41.58 -35.8,56.21 -19.1,14.46 -41.42,21.77 -67.26,21.77zm-43.77 564.58l-150.28 0 101.88 -487.41 150.28 0 -101.88 487.41zm467.12 -17.56c-38.07,19.66 -89.17,29.41 -153.19,29.41 -74.9,0 -130.77,-22.59 -167.57,-68.08 -36.83,-45.33 -47.83,-103.81 -32.81,-175.62 17.32,-82.86 55.79,-148 115.33,-195.77 59.7,-47.78 131.14,-71.66 214.33,-71.66 57.35,0 97.35,7.64 119.86,22.75l-26.7 127.7c-26.44,-23.56 -59.08,-35.26 -97.75,-35.26 -43.21,0 -79.95,12.52 -110.6,37.86 -30.44,25.18 -50.39,59.95 -59.7,104.47 -8.99,43.05 -3.91,77.01 15.02,101.53 18.87,24.71 49.64,36.89 91.71,36.89 37.53,0 76.53,-11.7 117.37,-35.25l-25.31 121.03zm256.44 -547.02c-25.35,0 -44.58,-7.47 -57.51,-22.58 -13.08,-15.12 -17.37,-33.47 -12.78,-55.4 4.72,-22.59 16.68,-40.95 35.91,-55.24 19.08,-14.3 41.36,-21.45 66.71,-21.45 25.83,0 45.14,7.15 58.23,21.45 12.93,14.3 17.22,32.65 12.5,55.24 -4.76,22.74 -16.83,41.58 -35.8,56.21 -19.1,14.46 -41.42,21.77 -67.26,21.77zm-43.77 564.58l-150.29 0 101.89 -487.41 150.28 0 -101.88 487.41zm499.68 0l-142.33 0 14.64 -70.02 -1.94 0c-44.07,54.58 -98.2,81.88 -162.38,81.88 -47.27,0 -81.68,-13.33 -103.22,-40.13 -21.52,-26.82 -27.51,-62.72 -18.15,-107.4 19.76,-94.56 87.23,-149.14 202.22,-163.76l136.08 -17.56c11.14,-53.28 -12.21,-79.93 -70.05,-79.93 -57.99,0 -116.84,17.22 -176.39,51.83l23.68 -113.24c23.23,-10.88 53.79,-20.3 91.92,-28.6 37.96,-8.28 71.95,-12.35 101.84,-12.35 138.92,0 193.94,69.38 164.97,207.96l-60.89 291.31zm-99.95 -198.05l6.86 -32.82 -90.92 11.38c-50.23,6.33 -79.21,28.43 -87.14,66.28 -3.56,17.06 -0.67,31.19 8.91,42.07 9.75,10.89 24.69,16.42 44.99,16.42 28.28,0 53.21,-9.75 75.17,-29.25 21.78,-19.49 35.88,-44.19 42.12,-74.09z"/>
  </g>
 </g>
</svg>
