<?xml version="1.0" encoding="UTF-8"?>
<!DOCTYPE svg PUBLIC "-//W3C//DTD SVG 1.1//EN" "http://www.w3.org/Graphics/SVG/1.1/DTD/svg11.dtd">
<!-- Creator: CorelDRAW (Versión de evaluación) -->
<svg xmlns="http://www.w3.org/2000/svg" xml:space="preserve" width="91.8568mm" height="81.0126mm" version="1.1" style="shape-rendering:geometricPrecision; text-rendering:geometricPrecision; image-rendering:optimizeQuality; fill-rule:evenodd; clip-rule:evenodd"
viewBox="0 0 2968920.38 2618423.01"
 xmlns:xlink="http://www.w3.org/1999/xlink"
 xmlns:xodm="http://www.corel.com/coreldraw/odm/2003">
 <defs>
  <style type="text/css">
   <![CDATA[
    .fil1 {fill:#FEFEFE}
    .fil0 {fill:black}
    .fil2 {fill:white}
    .fil3 {fill:black;fill-rule:nonzero}
   ]]>
  </style>
 </defs>
 <g id="Capa_x0020_1">
  <metadata id="CorelCorpID_0Corel-Layer"/>
  <rect class="fil0" x="-1.51" y="-0.68" width="2968920.38" height="2618423.69"/>
  <g id="_2125296752224">
   <polygon class="fil1" points="1504893.64,2397711.35 260082.09,1285264.74 321692.73,1223654.1 "/>
   <polygon class="fil1" points="1862533.99,2065714.63 617722.44,953268.02 679329.84,891660.62 "/>
   <polygon class="fil1" points="2236102.21,1743776.27 991287.43,631326.42 1052898.07,569719.02 "/>
   <polygon class="fil1" points="2597368.99,1428405.56 1352554.21,315958.95 1414164.85,254348.31 "/>
  </g>
  <g id="_2125296767632">
   <polygon class="fil2" points="1352554.21,2397711.35 2597365.76,1285264.74 2535758.35,1223654.1 "/>
   <polygon class="fil2" points="994913.86,2065714.63 2239728.65,953268.02 2178118.01,891660.62 "/>
   <polygon class="fil2" points="621345.64,1743776.27 1866160.42,631326.42 1804549.78,569719.02 "/>
   <polygon class="fil2" points="260082.09,1428405.56 1504893.64,315958.95 1443283,254348.31 "/>
  </g>
  <polygon class="fil0" points="1098264.08,996209.94 893738.87,931767.97 980592.35,690820.02 1187916.57,682416.51 1227884.95,743351.64 1328003.04,693622.27 1854405.21,691188.48 1910760.42,724440.52 2036838.89,674013.01 2106878.89,735649.5 2095673.14,886941.72 2000416.15,970992.96 2277786.84,1027028.19 2300928.8,1163491.45 2196534.62,1324008.14 2036838.89,1382842.39 596758.92,1380043.38 596758.92,1237157.89 681492.13,1010256.73 840505.88,996209.94 865719.63,1195130.66 "/>
  <path class="fil2" d="M810191.84 1038120.82c29195.72,115273.5 -91452.79,179702.54 -73967.03,287519.54 167501.29,24725.7 240249.81,-316408.21 498030.63,-292639.22 14677.05,126595.61 -105312.11,172843.99 -64461.37,311770.12l-127646.05 10236.12 20291.24 -134469.05c-109626.99,-5607.73 -155319.44,28814.33 -80489.44,120729.31 -42537.91,10737.1 -51823.78,14302.12 -92726.24,12753.94 -78288.37,-2963.85 -120228.33,15523.86 -266384.72,5497.83 116.36,-93611.84 70489.27,-174004.32 84248.39,-314003.52l103104.57 -7395.09zm182508.02 150891.44l94907.92 8128.78 47024.09 -112270.86c-82742.23,2576 -94833.58,44490.11 -141932.01,104142.08zm277874.9 -389693.26l10863.15 35142.82 44250.93 -9689.89 20216.9 -50802.43 -36264.37 -3697.54 -39066.61 29047.05zm-231817.22 21212.39c67910.04,-4832.02 70182.22,-36671.61 49373.84,-92470.9l-49373.84 92470.9zm472131.67 104759.42c66963.03,-23652.64 110868.12,-121905.8 82454.57,-185685.19 -48552.88,23045 -30960.46,14683.51 -58242.77,79455.16 -24741.87,58724.36 -27919.04,45815.28 -24211.8,106230.03zm425185.15 -19560.78c45443.58,2963.85 40530.76,8451.99 74099.54,-48662.77 32938.52,-56048.16 31322.46,-47457.19 13684.79,-107186.74 -50847.68,21002.3 -79215.99,101556.39 -87784.33,155849.51zm82806.87 418565.77c88010.58,-9861.19 177145.94,-184544.25 128386.2,-264574.73 -68000.54,9728.68 -53294.4,42379.53 -86265.24,117458.41 -27091.61,61668.82 -48304.01,79868.87 -42120.96,147116.33zm-571697.07 -135606.75c58323.57,-7155.91 117613.55,-92180.01 60938.36,-144478.92 -34758.2,30889.35 -59487.14,95492.93 -60938.36,144478.92zm876120.59 -127658.97c12382.24,64577.72 6519.18,150975.47 -41565.04,226464.83 -82286.5,106950.79 -170277.68,143279.8 -353251.13,138809.78l-50925.25 -3826.83c-120477.21,-56167.75 -1380.11,-9101.64 -132852.99,8720.25 -38843.6,-18510.34 -60973.91,-16493.5 -109468.61,-1173.26 -77328.43,-1677.47 -147530.04,-15530.33 -211367.6,-17369.4 -94429.57,-2708.52 -89526.44,36403.35 -186422.12,1121.55 -25255.77,-17204.57 -84448.79,3645.83 -125832.83,13258.15l-88349.95 -627.03c-51125.65,-32586.22 -60388.9,-30485.34 -108120.82,2831.34 -69105.92,5623.89 -283130.32,11813.39 -338102.19,-8994.99 -76129.31,-95163.26 -6418.99,-146075.58 21257.64,-241536.2 39968.37,-53766.29 10811.44,-112086.63 39405.99,-180940.44 63333.36,-35217.16 211529.21,-11451.39 229286.47,-49070.02 8765.5,-47421.64 65456.86,-281255.7 80482.98,-290548.04 35692.28,-22068.9 130138.01,-16083.02 224115.08,-13946.59 44519.2,2782.85 45029.87,39797.07 67544.81,59693.99 1974.82,1745.34 27786.52,-28080.64 95030.74,-38791.88 34266.92,-5455.82 89041.63,-8817.22 124853.49,15902.02 72654.79,-14499.28 182417.52,-21655.19 251982.4,-5523.69 6583.82,-10785.58 41342.02,-32660.55 53976.37,-32841.55l108683.21 -1544.95c55169.03,1053.67 35553.3,64910.63 47011.16,54761.78 45071.89,-39913.43 123163.1,-60702.41 180048.38,-23588 80951.63,52828.97 50417.81,172246.04 -9505.66,267325.27 98379.21,27553.81 205184.56,-18859.41 232085.48,121433.91zm-406813.79 295263.7c-17734.63,-71500.92 12117.21,-112826.78 43142.31,-179986.97 21664.89,-46885.11 28946.85,-125267.21 38181.01,-140600.37 92529.08,-7343.37 183093.03,-28038.63 257658,34241.06 51949.84,221755.63 -155122.28,298020.69 -338981.33,286346.28zm-623242.89 -12673.14c-8102.92,-55947.97 82157.21,-306938.11 84429.39,-310328.6 76885.63,-12799.19 176864.74,-27741.27 242399.17,18381.06 32641.16,153583.79 -96488.43,127277.58 -158244.51,176593.24 41319.4,102125.24 54234.94,-10113.3 118790.04,83317.54 -70822.17,123163.1 -126676.41,-5711.15 -160452.05,-70557.14 -39522.34,38323.23 -18368.13,42499.12 -19124.44,93576.29 -63805.25,24221.49 -44894.12,24602.88 -107797.61,9017.61zm315768.25 9686.66c-3678.15,-170675.24 86614.3,-155471.35 83227.04,-322432.88l233788.81 1593.43c-80.8,58543.36 2359.45,54855.51 -32498.95,101255.8 -119.59,-271.5 -47379.62,-205834.22 -122148.21,13170.88 75615.41,46969.14 17938.26,-11305.95 97299.69,34457.61 -59626.12,30643.71 -45084.82,5255.42 -119413.84,22744.42 -26626.19,49448.18 -36102.76,64125.23 -33853.21,119591.61 104381.26,830.65 83737.72,-59228.57 159049.31,-70149.89l-47554.16 100447.77 -217896.48 -678.74zm-716592.93 -340012.37l115418.94 -510.67c-22692.7,34696.79 -74943.13,85389.33 -114778.98,94458.66l-639.96 -93947.98zm988475.49 -73844.21c-3865.61,-107303.09 47324.68,-247114.83 177514.4,-224444.75 84904.51,100363.74 -12375.78,248747.05 -177514.4,224444.75zm-877646.15 -219399.42c60256.38,-10846.99 106495.06,-13885.18 160775.26,12530.92 17724.94,105441.39 -46157.88,86032.52 -107539.04,124711.28 57819.36,70069.09 42589.62,-11855.41 80069.26,65285.56 -78702.08,56432.78 -76329.7,-2362.68 -115858.51,-54962.17l-16176.75 70195.14 -67147.26 1761.5c-882.37,-55673.24 42748,-174094.82 65877.03,-219522.24zm304177.88 141201.55l-68818.26 2653.57c-46225.75,78847.52 13051.29,19693.3 -14004.77,80890.22l-54448.26 100.2c7947.78,-122817.26 106905.54,-244600.24 252095.53,-221332.22 -4259.93,43565.72 -50876.77,189098.31 -63850.5,219506.08l-72725.89 1150.63 21752.16 -82968.47zm496721.63 -135865.32l59189.78 -13403.59 -19903.38 48504.4c-8235.44,63821.41 -18662.25,53892.34 -39894.04,108686.44 -29835.68,76989.06 7934.85,57095.37 -59703.69,80990.42 -13355.11,-18652.55 -56080.48,22589.27 8645.92,-115428.64 24661.06,-52596.26 22485.85,-50644.06 26322.37,-110942.46l25343.04 1593.43zm-375426.69 217253.29c3409.88,-45744.17 51267.86,-181577.17 62509.17,-217812.45 95496.17,-7695.67 254038.03,-12841.21 166576.91,133153.57 -48963.36,81737.04 -142232.59,91194.22 -229086.08,84658.87z"/>
  <rect class="fil2" x="209973.41" y="1627119.11" width="2437501.96" height="493213.96" rx="104278.28" ry="87682.74"/>
  <path class="fil3" d="M322988.81 1984847.04l0 -36041.35 34706.49 0 0 -140726.43 -34706.49 0 0 -36044.58 217544.18 0 0 65818.86 -46513.41 0 0 -29774.27 -72994.16 0 0 49209 52596.26 0 0 36041.35 -52596.26 0 0 55476.08 37211.38 0 0 36041.35 -135247.99 0zm215931.35 0l0 -36041.35 31484.06 0 0 -140726.43 -31484.06 0 0 -36044.58 121414.52 0 53727.5 124740.37 53552.97 -124740.37 124455.94 0 0 36044.58 -31487.3 0 0 140726.43 31487.3 0 0 36041.35 -122371.23 0 0 -36041.35 29341.17 0 0 -140726.43 -5785.49 0 -75318.05 176767.78 -26176.93 0 -76213.35 -176767.78 -5782.26 0 0 140726.43 31842.83 0 0 36041.35 -102687.63 0zm457803.69 -54483.82l41506.86 -3500.38c4886.96,18180.67 14250.41,27269.38 28025.7,27269.38 21703.67,0 34050.37,-20216.9 37088.56,-60644.23 -12818.58,8878.63 -27964.29,13319.56 -45375.71,13319.56 -18132.18,0 -33575.24,-5956.79 -46335.65,-17812.2 -12825.05,-11858.64 -19202.01,-28051.55 -19202.01,-48633.68 0,-20737.27 6855.32,-37922.44 20633.84,-51452.09 13772.06,-13529.65 32915.89,-20323.56 57425.04,-20323.56 27311.4,0 48362.19,8413.2 63032.77,25284.86 14728.76,16871.66 22065.67,44816.55 22065.67,83892.86 0,73285.05 -29880.93,109904.95 -89571.69,109904.95 -19499.37,0 -35478.96,-4806.16 -48064.83,-14470.19 -12521.23,-9664.03 -19615.73,-23924.14 -21228.55,-42835.26zm106621.12 -67538.34l0 -2249.55c0,-16244.63 -2918.6,-29984.36 -8820.45,-41264.45 -5905.08,-11231.61 -14967.94,-16871.66 -27133.63,-16871.66 -7572.85,0 -13775.29,3183.64 -18487.72,9505.66 -4712.43,6370.51 -7094.5,14887.14 -7094.5,25646.86 0,9977.55 2501.66,18284.09 7511.44,25023.06 5071.19,6687.25 12763.63,10029.26 23196.91,10029.26 9541.21,0 19858.13,-3293.53 30827.94,-9819.18zm230899.29 60279l-2084.72 61743.15 -155704.06 0c0,-18542.66 1729.18,-32906.2 5126.14,-43093.83 3461.6,-10184.4 9124.27,-20058.53 16997.71,-29670.85 7870.21,-9557.37 18843.25,-20058.53 32977.3,-31445.28 18487.72,-14890.37 30711.59,-25805.23 36616.67,-32806 5901.85,-6949.05 8823.68,-14835.42 8823.68,-23558.91 0,-6528.88 -2207.54,-11910.36 -6622.61,-16141.2 -4470.02,-4230.84 -9954.92,-6322.02 -16635.71,-6322.02 -9660.8,0 -16755.3,3503.62 -21409.55,10501.15 -4589.61,7000.77 -7214.09,18439.23 -7928.39,34321.86l-44726.05 -1829.38c0,-20582.13 3519.78,-36044.58 10497.92,-46494.02 6974.91,-10394.49 16516.12,-17967.35 28504.05,-22670.08 12046.1,-4699.5 25103.86,-7052.48 39237.92,-7052.48 23196.91,0 41445.45,5591.56 54680.98,16823.18 13241.99,11176.66 19861.37,25174.97 19861.37,41839.77 0,8985.29 -2026.54,17291.83 -6024.67,24864.69 -4053.08,7576.09 -9121.04,13949.82 -15207.12,19117.98 -6141.02,5119.68 -16936.3,12540.62 -32437.54,22201.42 -23319.73,14573.62 -37928.91,26118.75 -43892.17,34683.86 -5963.26,8516.63 -9421.62,16037.77 -10494.69,22566.65l70844.8 0 0 -27579.66 38998.74 0zm41978.75 61743.15l0 -51400.38 58323.57 0 0 51400.38 -58323.57 0zm97496.85 -54483.82l41503.63 -3500.38c4890.19,18180.67 14250.41,27269.38 28028.93,27269.38 21703.67,0 34050.37,-20216.9 37091.79,-60644.23 -12821.81,8878.63 -27967.52,13319.56 -45378.94,13319.56 -18132.18,0 -33575.24,-5956.79 -46338.88,-17812.2 -12821.81,-11858.64 -19198.78,-28051.55 -19198.78,-48633.68 0,-20737.27 6855.32,-37922.44 20630.61,-51452.09 13775.29,-13529.65 32919.12,-20323.56 57428.28,-20323.56 27311.4,0 48362.19,8413.2 63032.77,25284.86 14728.76,16871.66 22065.67,44816.55 22065.67,83892.86 0,73285.05 -29880.93,109904.95 -89571.69,109904.95 -19499.37,0 -35482.19,-4806.16 -48064.83,-14470.19 -12521.23,-9664.03 -19618.96,-23924.14 -21228.55,-42835.26zm106624.35 -67538.34l0 -2249.55c0,-16244.63 -2921.83,-29984.36 -8823.68,-41264.45 -5905.08,-11231.61 -14971.17,-16871.66 -27133.63,-16871.66 -7576.09,0 -13778.52,3183.64 -18487.72,9505.66 -4712.43,6370.51 -7094.5,14887.14 -7094.5,25646.86 0,9977.55 2501.66,18284.09 7511.44,25023.06 5067.96,6687.25 12760.4,10029.26 23196.91,10029.26 9537.98,0 19858.13,-3293.53 30831.18,-9819.18zm155041.48 122022.16l0 -36041.35 31487.3 0 0 -140726.43 -31487.3 0 0 -36044.58 121414.52 0 53730.73 124740.37 53549.73 -124740.37 124459.18 0 0 36044.58 -31490.53 0 0 140726.43 31490.53 0 0 36041.35 -122371.23 0 0 -36041.35 29341.17 0 0 -140726.43 -5785.49 0 -75318.05 176767.78 -26176.93 0 -76213.35 -176767.78 -5782.26 0 0 140726.43 31842.83 0 0 36041.35 -102690.86 0zm359411.55 0l0 -36041.35 30411 0 0 -140726.43 -30411 0 0 -36044.58 117358.21 0 0 36044.58 -25401.22 0 0 46697.64 66190.55 0 0 -46697.64 -24690.15 0 0 -36044.58 116647.15 0 0 36044.58 -30414.23 0 0 140726.43 30414.23 0 0 36041.35 -116647.15 0 0 -36041.35 24690.15 0 0 -57984.2 -66190.55 0 0 57984.2 25401.22 0 0 36041.35 -117358.21 0zm263811.95 0l0 -36041.35 115212.09 -140726.43 -67625.61 0 0 38862.99 -41144.87 0 0 -74907.57 187485.48 0 0 32072.31 -118489.45 144698.7 79849.48 0 0 -40744.08 41148.1 0 0 76785.43 -196435.22 0z"/>
 </g>
</svg>
