<?xml version="1.0" encoding="UTF-8"?>
<!DOCTYPE svg PUBLIC "-//W3C//DTD SVG 1.1//EN" "http://www.w3.org/Graphics/SVG/1.1/DTD/svg11.dtd">
<!-- Creator: CorelDRAW (Versión de evaluación) -->
<svg xmlns="http://www.w3.org/2000/svg" xml:space="preserve" width="75.415mm" height="66.3145mm" version="1.1" style="shape-rendering:geometricPrecision; text-rendering:geometricPrecision; image-rendering:optimizeQuality; fill-rule:evenodd; clip-rule:evenodd"
viewBox="0 0 3340.59 2937.47"
 xmlns:xlink="http://www.w3.org/1999/xlink"
 xmlns:xodm="http://www.corel.com/coreldraw/odm/2003">
 <defs>
  <style type="text/css">
   <![CDATA[
    .fil2 {fill:black}
    .fil0 {fill:red}
    .fil1 {fill:white}
    .fil3 {fill:white;fill-rule:nonzero}
   ]]>
  </style>
 </defs>
 <g id="Capa_x0020_1">
  <metadata id="CorelCorpID_0Corel-Layer"/>
  <g id="_2125834822512">
   <g>
    <polygon class="fil0" points="1774.68,2937.47 68.67,1412.87 153.11,1328.43 "/>
    <polygon class="fil0" points="2264.83,2482.47 558.82,957.87 643.25,873.43 "/>
    <polygon class="fil0" points="2776.8,2041.26 1070.79,516.65 1155.22,432.21 "/>
    <polygon class="fil0" points="3271.91,1609.04 1565.9,84.44 1650.34,0 "/>
   </g>
   <g>
    <polygon class="fil0" points="1565.9,2937.47 3271.91,1412.87 3187.48,1328.43 "/>
    <polygon class="fil0" points="1075.76,2482.47 2781.77,957.87 2697.33,873.43 "/>
    <polygon class="fil0" points="563.78,2041.26 2269.8,516.65 2185.36,432.21 "/>
    <polygon class="fil0" points="68.67,1609.04 1774.68,84.44 1690.24,0 "/>
   </g>
  </g>
  <g id="_2125834794288">
   <polygon class="fil1" points="1217.4,1016.72 937.1,928.4 1056.13,598.18 1340.27,586.67 1395.04,670.18 1532.25,602.02 2253.69,598.69 2330.92,644.26 2503.71,575.15 2599.7,659.62 2584.34,866.97 2453.79,982.16 2833.93,1058.95 2865.64,1245.98 2722.57,1465.96 2503.71,1546.6 530.09,1542.76 530.09,1346.94 646.21,1035.97 864.14,1016.72 898.7,1289.34 "/>
   <path class="fil2" d="M822.6 1074.16c40.01,157.98 -125.34,246.28 -101.37,394.04 229.56,33.89 329.26,-433.64 682.55,-401.06 20.11,173.5 -144.33,236.88 -88.34,427.28l-174.94 14.03 27.81 -184.29c-150.24,-7.69 -212.86,39.49 -110.31,165.46 -58.3,14.72 -71.02,19.6 -127.08,17.48 -107.29,-4.06 -164.77,21.28 -365.08,7.53 0.16,-128.29 96.61,-238.47 115.46,-430.34l141.3 -10.13zm250.13 206.8l130.07 11.14 64.45 -153.87c-113.4,3.53 -129.97,60.97 -194.52,142.73zm380.83 -534.07l14.89 48.16 60.65 -13.28 27.71 -69.62 -49.7 -5.07 -53.54 39.81zm-317.7 29.07c93.07,-6.62 96.18,-50.26 67.67,-126.73l-67.67 126.73zm647.05 143.57c91.77,-32.42 151.94,-167.07 113,-254.48 -66.54,31.58 -42.43,20.12 -79.82,108.89 -33.91,80.48 -38.26,62.79 -33.18,145.59zm582.71 -26.81c62.28,4.06 55.55,11.58 101.55,-66.69 45.14,-76.81 42.93,-65.04 18.75,-146.9 -69.69,28.78 -108.57,139.18 -120.31,213.59zm113.49 573.64c120.62,-13.51 242.78,-252.92 175.95,-362.6 -93.19,13.33 -73.04,58.08 -118.23,160.98 -37.13,84.52 -66.2,109.46 -57.73,201.62zm-783.51 -185.85c79.93,-9.81 161.19,-126.33 83.52,-198.01 -47.64,42.33 -81.53,130.87 -83.52,198.01zm1200.72 -174.96c16.97,88.5 8.93,206.91 -56.96,310.37 -112.77,146.58 -233.36,196.36 -484.13,190.24l-69.79 -5.24c-165.11,-76.98 -1.89,-12.47 -182.07,11.95 -53.23,-25.37 -83.56,-22.6 -150.03,-1.61 -105.98,-2.3 -202.19,-21.28 -289.68,-23.8 -129.42,-3.71 -122.7,49.89 -255.49,1.54 -34.61,-23.58 -115.74,5 -172.45,18.17l-121.08 -0.86c-70.07,-44.66 -82.76,-41.78 -148.18,3.88 -94.71,7.71 -388.03,16.19 -463.37,-12.33 -104.33,-130.42 -8.8,-200.2 29.13,-331.02 54.78,-73.69 14.82,-153.61 54.01,-247.98 86.8,-48.26 289.9,-15.69 314.24,-67.25 12.01,-64.99 89.71,-385.46 110.3,-398.19 48.92,-30.25 178.35,-22.04 307.15,-19.11 61.01,3.81 61.71,54.54 92.57,81.81 2.71,2.39 38.08,-38.48 130.24,-53.16 46.96,-7.48 122.03,-12.08 171.11,21.79 99.57,-19.87 250,-29.68 345.34,-7.57 9.02,-14.78 56.66,-44.76 73.97,-45.01l148.95 -2.12c75.61,1.44 48.73,88.96 64.43,75.05 61.77,-54.7 168.79,-83.19 246.76,-32.33 110.94,72.4 69.1,236.06 -13.03,366.37 134.83,37.76 281.2,-25.85 318.07,166.42zm-557.54 404.66c-24.31,-97.99 16.61,-154.63 59.13,-246.67 29.69,-64.26 39.67,-171.68 52.33,-192.69 126.81,-10.06 250.93,-38.43 353.12,46.93 71.2,303.92 -212.59,408.44 -464.57,392.44zm-854.15 -17.37c-11.11,-76.68 112.6,-420.66 115.71,-425.3 105.37,-17.54 242.39,-38.02 332.21,25.19 44.73,210.49 -132.24,174.43 -216.87,242.02 56.63,139.96 74.33,-13.86 162.8,114.19 -97.06,168.79 -173.61,-7.83 -219.9,-96.7 -54.17,52.52 -25.17,58.24 -26.21,128.25 -87.44,33.2 -61.53,33.72 -147.74,12.36zm432.76 13.28c-5.04,-233.91 118.7,-213.07 114.06,-441.89l320.41 2.18c-0.11,80.23 3.23,75.18 -44.54,138.77 -0.16,-0.37 -64.93,-282.09 -167.4,18.05 103.63,64.37 24.58,-15.49 133.35,47.22 -81.72,42 -61.79,7.2 -163.66,31.17 -36.49,67.77 -49.48,87.88 -46.4,163.9 143.05,1.14 114.76,-81.17 217.98,-96.14l-65.17 137.66 -298.63 -0.93zm-982.09 -465.99l158.18 -0.7c-31.1,47.55 -102.71,117.03 -157.3,129.46l-0.88 -128.76zm1354.7 -101.2c-5.3,-147.06 64.86,-338.67 243.28,-307.6 116.36,137.55 -16.96,340.91 -243.28,307.6zm-1202.81 -300.69c82.58,-14.87 145.95,-19.03 220.34,17.17 24.29,144.51 -63.26,117.91 -147.38,170.92 79.24,96.03 58.37,-16.25 109.73,89.47 -107.86,77.34 -104.61,-3.24 -158.78,-75.33l-22.17 96.2 -92.03 2.41c-1.21,-76.3 58.59,-238.6 90.28,-300.85zm416.87 193.52l-94.32 3.64c-63.35,108.06 17.89,26.99 -19.19,110.86l-74.62 0.14c10.89,-168.32 146.51,-335.22 345.5,-303.33 -5.84,59.71 -69.73,259.16 -87.51,300.83l-99.67 1.58 29.81 -113.71zm680.75 -186.2l81.12 -18.37 -27.28 66.48c-11.29,87.47 -25.58,73.86 -54.67,148.95 -40.89,105.51 10.87,78.25 -81.82,111 -18.3,-25.56 -76.86,30.96 11.85,-158.19 33.8,-72.08 30.82,-69.41 36.07,-152.05l34.73 2.18zm-514.52 297.74c4.67,-62.69 70.26,-248.85 85.67,-298.51 130.88,-10.55 348.16,-17.6 228.29,182.49 -67.1,112.02 -194.93,124.98 -313.96,116.02z"/>
  </g>
  <rect class="fil2" x="-0" y="1881.38" width="3340.59" height="675.95" rx="142.91" ry="120.17"/>
  <path class="fil3" d="M154.89 2371.64l0 -49.39 47.57 0 0 -192.87 -47.57 0 0 -49.4 298.14 0 0 90.2 -63.75 0 0 -40.81 -100.04 0 0 67.44 72.08 0 0 49.39 -72.08 0 0 76.03 51 0 0 49.39 -185.36 0zm295.93 0l0 -49.39 43.15 0 0 -192.87 -43.15 0 0 -49.4 166.4 0 73.63 170.96 73.39 -170.96 170.57 0 0 49.4 -43.15 0 0 192.87 43.15 0 0 49.39 -167.71 0 0 -49.39 40.21 0 0 -192.87 -7.93 0 -103.22 242.26 -35.88 0 -104.45 -242.26 -7.92 0 0 192.87 43.64 0 0 49.39 -140.73 0zm627.42 -74.67l56.88 -4.8c6.7,24.92 19.53,37.37 38.41,37.37 29.74,0 46.67,-27.71 50.83,-83.11 -17.57,12.17 -38.32,18.25 -62.19,18.25 -24.85,0 -46.01,-8.16 -63.5,-24.41 -17.58,-16.25 -26.32,-38.44 -26.32,-66.65 0,-28.42 9.4,-51.97 28.28,-70.51 18.87,-18.54 45.11,-27.85 78.7,-27.85 37.43,0 66.28,11.53 86.39,34.65 20.19,23.12 30.24,61.42 30.24,114.97 0,100.44 -40.95,150.62 -122.76,150.62 -26.72,0 -48.62,-6.59 -65.87,-19.83 -17.16,-13.24 -26.88,-32.79 -29.09,-58.71zm146.12 -92.56l0 -3.08c0,-22.26 -4,-41.09 -12.09,-56.55 -8.09,-15.39 -20.51,-23.12 -37.19,-23.12 -10.38,0 -18.88,4.36 -25.34,13.03 -6.46,8.73 -9.72,20.4 -9.72,35.15 0,13.67 3.43,25.06 10.29,34.29 6.95,9.16 17.49,13.75 31.79,13.75 13.08,0 27.22,-4.51 42.25,-13.46zm316.45 82.61l-2.86 84.62 -213.39 0c0,-25.41 2.37,-45.1 7.03,-59.06 4.74,-13.96 12.5,-27.49 23.3,-40.66 10.79,-13.1 25.82,-27.49 45.2,-43.1 25.34,-20.41 42.09,-35.37 50.18,-44.96 8.09,-9.52 12.09,-20.33 12.09,-32.29 0,-8.95 -3.03,-16.32 -9.08,-22.12 -6.13,-5.8 -13.64,-8.66 -22.8,-8.66 -13.24,0 -22.96,4.8 -29.34,14.39 -6.29,9.59 -9.89,25.27 -10.87,47.04l-61.3 -2.51c0,-28.21 4.82,-49.4 14.39,-63.72 9.56,-14.25 22.64,-24.62 39.06,-31.07 16.51,-6.44 34.4,-9.67 53.78,-9.67 31.79,0 56.8,7.66 74.94,23.06 18.15,15.32 27.22,34.5 27.22,57.34 0,12.31 -2.78,23.7 -8.26,34.08 -5.55,10.38 -12.5,19.12 -20.84,26.2 -8.42,7.02 -23.21,17.19 -44.46,30.43 -31.96,19.97 -51.98,35.8 -60.15,47.53 -8.17,11.67 -12.91,21.98 -14.38,30.93l97.09 0 0 -37.8 53.45 0zm57.53 84.62l0 -70.44 79.93 0 0 70.44 -79.93 0zm133.62 -74.67l56.88 -4.8c6.7,24.92 19.53,37.37 38.41,37.37 29.74,0 46.67,-27.71 50.83,-83.11 -17.57,12.17 -38.33,18.25 -62.19,18.25 -24.85,0 -46.01,-8.16 -63.51,-24.41 -17.57,-16.25 -26.31,-38.44 -26.31,-66.65 0,-28.42 9.4,-51.97 28.27,-70.51 18.88,-18.54 45.12,-27.85 78.71,-27.85 37.43,0 66.28,11.53 86.39,34.65 20.19,23.12 30.24,61.42 30.24,114.97 0,100.44 -40.95,150.62 -122.76,150.62 -26.72,0 -48.63,-6.59 -65.87,-19.83 -17.16,-13.24 -26.89,-32.79 -29.09,-58.71zm146.13 -92.56l0 -3.08c0,-22.26 -4,-41.09 -12.09,-56.55 -8.09,-15.39 -20.52,-23.12 -37.19,-23.12 -10.38,0 -18.88,4.36 -25.34,13.03 -6.46,8.73 -9.72,20.4 -9.72,35.15 0,13.67 3.43,25.06 10.29,34.29 6.95,9.16 17.49,13.75 31.79,13.75 13.07,0 27.22,-4.51 42.25,-13.46zm212.48 167.23l0 -49.39 43.15 0 0 -192.87 -43.15 0 0 -49.4 166.4 0 73.64 170.96 73.39 -170.96 170.57 0 0 49.4 -43.16 0 0 192.87 43.16 0 0 49.39 -167.71 0 0 -49.39 40.21 0 0 -192.87 -7.93 0 -103.22 242.26 -35.88 0 -104.45 -242.26 -7.92 0 0 192.87 43.64 0 0 49.39 -140.74 0zm492.57 0l0 -49.39 41.68 0 0 -192.87 -41.68 0 0 -49.4 160.84 0 0 49.4 -34.81 0 0 64 90.71 0 0 -64 -33.84 0 0 -49.4 159.86 0 0 49.4 -41.68 0 0 192.87 41.68 0 0 49.39 -159.86 0 0 -49.39 33.84 0 0 -79.47 -90.71 0 0 79.47 34.81 0 0 49.39 -160.84 0zm361.55 0l0 -49.39 157.9 -192.87 -92.68 0 0 53.26 -56.39 0 0 -102.66 256.95 0 0 43.95 -162.39 198.31 109.43 0 0 -55.84 56.39 0 0 105.23 -269.21 0z"/>
 </g>
</svg>
